<mxfile host="app.diagrams.net" modified="2021-09-02T21:30:56.498Z" agent="5.0 (Windows NT 10.0; Win64; x64) AppleWebKit/537.36 (KHTML, like Gecko) Chrome/93.0.4577.63 Safari/537.36" etag="P6CuKmMiCHMo2bErY4FR" version="15.0.5" type="github" pages="7">
  <diagram name="Translator" id="MH78IomrJqzAsg-W4SIo">
    <mxGraphModel dx="2547" dy="2746" grid="1" gridSize="10" guides="1" tooltips="1" connect="1" arrows="1" fold="1" page="1" pageScale="1" pageWidth="827" pageHeight="1169" math="0" shadow="0">
      <root>
        <mxCell id="WIyWlLk6GJQsqaUBKTNV-0" />
        <mxCell id="WIyWlLk6GJQsqaUBKTNV-1" parent="WIyWlLk6GJQsqaUBKTNV-0" />
        <mxCell id="WIyWlLk6GJQsqaUBKTNV-3" value="PS_START" style="rounded=1;whiteSpace=wrap;html=1;fontSize=12;glass=0;strokeWidth=1;shadow=0;" parent="WIyWlLk6GJQsqaUBKTNV-1" vertex="1">
          <mxGeometry x="740" y="-60" width="120" height="40" as="geometry" />
        </mxCell>
        <mxCell id="9fOPiK6Cyf-GxQi1RAT0-7" style="edgeStyle=orthogonalEdgeStyle;rounded=0;orthogonalLoop=1;jettySize=auto;html=1;startArrow=none;" parent="WIyWlLk6GJQsqaUBKTNV-1" source="BwAWwdijLhmff7g70wNX-19" target="9fOPiK6Cyf-GxQi1RAT0-5" edge="1">
          <mxGeometry relative="1" as="geometry" />
        </mxCell>
        <mxCell id="9fOPiK6Cyf-GxQi1RAT0-0" value="PS_FUNCTION" style="rounded=1;whiteSpace=wrap;html=1;fontSize=12;glass=0;strokeWidth=1;shadow=0;" parent="WIyWlLk6GJQsqaUBKTNV-1" vertex="1">
          <mxGeometry x="470" y="440" width="120" height="40" as="geometry" />
        </mxCell>
        <mxCell id="9fOPiK6Cyf-GxQi1RAT0-11" style="edgeStyle=orthogonalEdgeStyle;rounded=0;orthogonalLoop=1;jettySize=auto;html=1;entryX=0.5;entryY=0;entryDx=0;entryDy=0;startArrow=none;" parent="WIyWlLk6GJQsqaUBKTNV-1" source="BwAWwdijLhmff7g70wNX-30" target="9fOPiK6Cyf-GxQi1RAT0-10" edge="1">
          <mxGeometry relative="1" as="geometry" />
        </mxCell>
        <mxCell id="9fOPiK6Cyf-GxQi1RAT0-1" value="PS_DOT1" style="rounded=1;whiteSpace=wrap;html=1;fontSize=12;glass=0;strokeWidth=1;shadow=0;" parent="WIyWlLk6GJQsqaUBKTNV-1" vertex="1">
          <mxGeometry x="-475" y="440" width="120" height="40" as="geometry" />
        </mxCell>
        <mxCell id="9fOPiK6Cyf-GxQi1RAT0-4" value="PS_FINISH" style="rounded=1;whiteSpace=wrap;html=1;fontSize=12;glass=0;strokeWidth=4;shadow=0;fillColor=#dae8fc;strokeColor=#6c8ebf;" parent="WIyWlLk6GJQsqaUBKTNV-1" vertex="1">
          <mxGeometry x="740" y="1150" width="120" height="40" as="geometry" />
        </mxCell>
        <mxCell id="9fOPiK6Cyf-GxQi1RAT0-9" style="edgeStyle=orthogonalEdgeStyle;rounded=0;orthogonalLoop=1;jettySize=auto;html=1;entryX=0.5;entryY=0;entryDx=0;entryDy=0;startArrow=none;" parent="WIyWlLk6GJQsqaUBKTNV-1" source="BwAWwdijLhmff7g70wNX-21" target="9fOPiK6Cyf-GxQi1RAT0-8" edge="1">
          <mxGeometry relative="1" as="geometry">
            <mxPoint x="530" y="575" as="targetPoint" />
          </mxGeometry>
        </mxCell>
        <mxCell id="9fOPiK6Cyf-GxQi1RAT0-5" value="PS_NON_UNARY1" style="rounded=1;whiteSpace=wrap;html=1;fontSize=12;glass=0;strokeWidth=1;shadow=0;" parent="WIyWlLk6GJQsqaUBKTNV-1" vertex="1">
          <mxGeometry x="470" y="640" width="120" height="40" as="geometry" />
        </mxCell>
        <mxCell id="9fOPiK6Cyf-GxQi1RAT0-8" value="PS_NON_UNARY1" style="rounded=1;whiteSpace=wrap;html=1;fontSize=12;glass=0;strokeWidth=1;shadow=0;" parent="WIyWlLk6GJQsqaUBKTNV-1" vertex="1">
          <mxGeometry x="470" y="790" width="120" height="40" as="geometry" />
        </mxCell>
        <mxCell id="9fOPiK6Cyf-GxQi1RAT0-10" value="PS_DOT2" style="rounded=1;whiteSpace=wrap;html=1;fontSize=12;glass=0;strokeWidth=1;shadow=0;" parent="WIyWlLk6GJQsqaUBKTNV-1" vertex="1">
          <mxGeometry x="-475" y="640" width="120" height="40" as="geometry" />
        </mxCell>
        <mxCell id="9fOPiK6Cyf-GxQi1RAT0-36" style="edgeStyle=orthogonalEdgeStyle;rounded=1;orthogonalLoop=1;jettySize=auto;html=1;exitX=0.5;exitY=1;exitDx=0;exitDy=0;startArrow=none;" parent="WIyWlLk6GJQsqaUBKTNV-1" source="BwAWwdijLhmff7g70wNX-26" edge="1">
          <mxGeometry relative="1" as="geometry">
            <Array as="points">
              <mxPoint x="-415" y="920" />
              <mxPoint x="800" y="920" />
            </Array>
            <mxPoint x="800" y="920" as="targetPoint" />
          </mxGeometry>
        </mxCell>
        <mxCell id="9fOPiK6Cyf-GxQi1RAT0-17" value="PS_UNARY" style="rounded=1;whiteSpace=wrap;html=1;fontSize=12;glass=0;strokeWidth=1;shadow=0;" parent="WIyWlLk6GJQsqaUBKTNV-1" vertex="1">
          <mxGeometry x="120" y="440" width="120" height="40" as="geometry" />
        </mxCell>
        <mxCell id="9fOPiK6Cyf-GxQi1RAT0-22" style="edgeStyle=orthogonalEdgeStyle;rounded=1;orthogonalLoop=1;jettySize=auto;html=1;startArrow=none;" parent="WIyWlLk6GJQsqaUBKTNV-1" source="BwAWwdijLhmff7g70wNX-2" target="9fOPiK6Cyf-GxQi1RAT0-1" edge="1">
          <mxGeometry relative="1" as="geometry">
            <mxPoint x="415" y="280" as="sourcePoint" />
            <mxPoint x="545" y="355" as="targetPoint" />
          </mxGeometry>
        </mxCell>
        <mxCell id="9fOPiK6Cyf-GxQi1RAT0-44" style="edgeStyle=orthogonalEdgeStyle;rounded=1;orthogonalLoop=1;jettySize=auto;html=1;entryX=1;entryY=0.5;entryDx=0;entryDy=0;strokeColor=#00FF00;startArrow=none;" parent="WIyWlLk6GJQsqaUBKTNV-1" source="BwAWwdijLhmff7g70wNX-64" target="9fOPiK6Cyf-GxQi1RAT0-0" edge="1">
          <mxGeometry relative="1" as="geometry">
            <mxPoint x="280" y="200" as="sourcePoint" />
            <Array as="points">
              <mxPoint x="680" y="460" />
            </Array>
          </mxGeometry>
        </mxCell>
        <mxCell id="9fOPiK6Cyf-GxQi1RAT0-40" value="PS_SYMBOL" style="rounded=1;whiteSpace=wrap;html=1;fontSize=12;glass=0;strokeWidth=1;shadow=0;" parent="WIyWlLk6GJQsqaUBKTNV-1" vertex="1">
          <mxGeometry x="220" y="120" width="120" height="40" as="geometry" />
        </mxCell>
        <mxCell id="9fOPiK6Cyf-GxQi1RAT0-56" value="" style="endArrow=classic;html=1;entryX=0.5;entryY=0;entryDx=0;entryDy=0;rounded=1;startArrow=none;" parent="WIyWlLk6GJQsqaUBKTNV-1" source="BwAWwdijLhmff7g70wNX-0" target="9fOPiK6Cyf-GxQi1RAT0-40" edge="1">
          <mxGeometry width="50" height="50" relative="1" as="geometry">
            <mxPoint x="280" y="-200" as="sourcePoint" />
            <mxPoint x="310" y="170" as="targetPoint" />
          </mxGeometry>
        </mxCell>
        <mxCell id="9fOPiK6Cyf-GxQi1RAT0-57" value="" style="endArrow=classic;html=1;strokeColor=#000000;entryX=0.5;entryY=0;entryDx=0;entryDy=0;startArrow=none;" parent="WIyWlLk6GJQsqaUBKTNV-1" source="BwAWwdijLhmff7g70wNX-7" target="9fOPiK6Cyf-GxQi1RAT0-17" edge="1">
          <mxGeometry width="50" height="50" relative="1" as="geometry">
            <mxPoint x="180" y="280" as="sourcePoint" />
            <mxPoint x="340" y="330" as="targetPoint" />
          </mxGeometry>
        </mxCell>
        <mxCell id="9fOPiK6Cyf-GxQi1RAT0-58" value="" style="endArrow=classic;html=1;strokeColor=#000000;startArrow=none;" parent="WIyWlLk6GJQsqaUBKTNV-1" source="BwAWwdijLhmff7g70wNX-11" target="9fOPiK6Cyf-GxQi1RAT0-0" edge="1">
          <mxGeometry width="50" height="50" relative="1" as="geometry">
            <mxPoint x="530" y="280" as="sourcePoint" />
            <mxPoint x="310" y="330" as="targetPoint" />
          </mxGeometry>
        </mxCell>
        <mxCell id="9fOPiK6Cyf-GxQi1RAT0-64" value="" style="endArrow=classic;html=1;strokeColor=#FF8000;startArrow=none;" parent="WIyWlLk6GJQsqaUBKTNV-1" source="BwAWwdijLhmff7g70wNX-34" edge="1">
          <mxGeometry width="50" height="50" relative="1" as="geometry">
            <mxPoint x="-515" y="680" as="sourcePoint" />
            <mxPoint x="40" y="1000" as="targetPoint" />
            <Array as="points">
              <mxPoint x="-615" y="1000" />
            </Array>
          </mxGeometry>
        </mxCell>
        <mxCell id="9fOPiK6Cyf-GxQi1RAT0-65" value="PS_COMMENT2" style="rounded=1;whiteSpace=wrap;html=1;fontSize=12;glass=0;strokeWidth=1;shadow=0;" parent="WIyWlLk6GJQsqaUBKTNV-1" vertex="1">
          <mxGeometry x="-20" y="1040" width="120" height="40" as="geometry" />
        </mxCell>
        <mxCell id="9fOPiK6Cyf-GxQi1RAT0-67" value="" style="endArrow=classic;html=1;strokeColor=#FF8000;exitX=0.5;exitY=1;exitDx=0;exitDy=0;startArrow=none;entryX=0.5;entryY=0;entryDx=0;entryDy=0;" parent="WIyWlLk6GJQsqaUBKTNV-1" source="BwAWwdijLhmff7g70wNX-74" target="9fOPiK6Cyf-GxQi1RAT0-65" edge="1">
          <mxGeometry width="50" height="50" relative="1" as="geometry">
            <mxPoint x="100" y="490" as="sourcePoint" />
            <mxPoint x="40" y="1000" as="targetPoint" />
            <Array as="points" />
          </mxGeometry>
        </mxCell>
        <mxCell id="9fOPiK6Cyf-GxQi1RAT0-73" value="" style="endArrow=classic;html=1;strokeColor=#000000;exitX=0.5;exitY=1;exitDx=0;exitDy=0;startArrow=none;" parent="WIyWlLk6GJQsqaUBKTNV-1" source="BwAWwdijLhmff7g70wNX-25" edge="1">
          <mxGeometry width="50" height="50" relative="1" as="geometry">
            <mxPoint x="130" y="820" as="sourcePoint" />
            <mxPoint x="180" y="920" as="targetPoint" />
          </mxGeometry>
        </mxCell>
        <mxCell id="9fOPiK6Cyf-GxQi1RAT0-74" value="" style="endArrow=classic;html=1;strokeColor=#000000;exitX=0.5;exitY=1;exitDx=0;exitDy=0;startArrow=none;" parent="WIyWlLk6GJQsqaUBKTNV-1" source="BwAWwdijLhmff7g70wNX-23" edge="1">
          <mxGeometry width="50" height="50" relative="1" as="geometry">
            <mxPoint x="130" y="820" as="sourcePoint" />
            <mxPoint x="530" y="920" as="targetPoint" />
          </mxGeometry>
        </mxCell>
        <mxCell id="9fOPiK6Cyf-GxQi1RAT0-76" value="" style="endArrow=classic;html=1;exitX=0.5;exitY=1;exitDx=0;exitDy=0;strokeColor=#FF8000;startArrow=none;" parent="WIyWlLk6GJQsqaUBKTNV-1" source="BwAWwdijLhmff7g70wNX-46" target="9fOPiK6Cyf-GxQi1RAT0-4" edge="1">
          <mxGeometry width="50" height="50" relative="1" as="geometry">
            <mxPoint x="130" y="600" as="sourcePoint" />
            <mxPoint x="-80" y="1000" as="targetPoint" />
            <Array as="points">
              <mxPoint x="40" y="1170" />
            </Array>
          </mxGeometry>
        </mxCell>
        <mxCell id="9fOPiK6Cyf-GxQi1RAT0-79" value="" style="endArrow=classic;html=1;strokeColor=#FF8000;startArrow=none;exitX=0.469;exitY=1.1;exitDx=0;exitDy=0;exitPerimeter=0;" parent="WIyWlLk6GJQsqaUBKTNV-1" source="BwAWwdijLhmff7g70wNX-55" edge="1">
          <mxGeometry width="50" height="50" relative="1" as="geometry">
            <mxPoint x="360" y="640" as="sourcePoint" />
            <mxPoint x="40" y="1000" as="targetPoint" />
            <Array as="points">
              <mxPoint x="301" y="1000" />
            </Array>
          </mxGeometry>
        </mxCell>
        <mxCell id="BwAWwdijLhmff7g70wNX-2" value="&lt;span style=&quot;font-size: 24px&quot;&gt;TDotCommand&lt;/span&gt;" style="text;html=1;align=center;verticalAlign=middle;resizable=0;points=[];autosize=1;strokeColor=none;" parent="WIyWlLk6GJQsqaUBKTNV-1" vertex="1">
          <mxGeometry x="-505" y="340" width="180" height="20" as="geometry" />
        </mxCell>
        <mxCell id="BwAWwdijLhmff7g70wNX-3" value="" style="edgeStyle=orthogonalEdgeStyle;rounded=1;orthogonalLoop=1;jettySize=auto;html=1;endArrow=none;" parent="WIyWlLk6GJQsqaUBKTNV-1" target="BwAWwdijLhmff7g70wNX-2" edge="1">
          <mxGeometry relative="1" as="geometry">
            <mxPoint x="800" y="280" as="sourcePoint" />
            <mxPoint x="-180" y="440" as="targetPoint" />
          </mxGeometry>
        </mxCell>
        <mxCell id="BwAWwdijLhmff7g70wNX-0" value="&lt;font style=&quot;font-size: 24px&quot;&gt;TSymbol&lt;/font&gt;" style="text;html=1;align=center;verticalAlign=middle;resizable=0;points=[];autosize=1;strokeColor=none;" parent="WIyWlLk6GJQsqaUBKTNV-1" vertex="1">
          <mxGeometry x="225" y="60" width="110" height="20" as="geometry" />
        </mxCell>
        <mxCell id="BwAWwdijLhmff7g70wNX-6" value="" style="endArrow=none;html=1;entryX=0.5;entryY=0;entryDx=0;entryDy=0;rounded=1;" parent="WIyWlLk6GJQsqaUBKTNV-1" target="BwAWwdijLhmff7g70wNX-0" edge="1">
          <mxGeometry width="50" height="50" relative="1" as="geometry">
            <mxPoint x="800" y="40" as="sourcePoint" />
            <mxPoint x="280" y="-120" as="targetPoint" />
            <Array as="points">
              <mxPoint x="280" y="40" />
            </Array>
          </mxGeometry>
        </mxCell>
        <mxCell id="BwAWwdijLhmff7g70wNX-7" value="&lt;span style=&quot;font-size: 24px&quot;&gt;TIdent&lt;/span&gt;" style="text;html=1;align=center;verticalAlign=middle;resizable=0;points=[];autosize=1;strokeColor=none;" parent="WIyWlLk6GJQsqaUBKTNV-1" vertex="1">
          <mxGeometry x="140" y="340" width="80" height="20" as="geometry" />
        </mxCell>
        <mxCell id="BwAWwdijLhmff7g70wNX-8" value="" style="endArrow=none;html=1;strokeColor=#000000;entryX=0.5;entryY=0;entryDx=0;entryDy=0;" parent="WIyWlLk6GJQsqaUBKTNV-1" target="BwAWwdijLhmff7g70wNX-7" edge="1">
          <mxGeometry width="50" height="50" relative="1" as="geometry">
            <mxPoint x="180" y="280" as="sourcePoint" />
            <mxPoint x="180" y="450" as="targetPoint" />
          </mxGeometry>
        </mxCell>
        <mxCell id="BwAWwdijLhmff7g70wNX-11" value="&lt;span style=&quot;font-size: 24px&quot;&gt;TIdent&lt;/span&gt;" style="text;html=1;align=center;verticalAlign=middle;resizable=0;points=[];autosize=1;strokeColor=none;" parent="WIyWlLk6GJQsqaUBKTNV-1" vertex="1">
          <mxGeometry x="490" y="340" width="80" height="20" as="geometry" />
        </mxCell>
        <mxCell id="BwAWwdijLhmff7g70wNX-12" value="" style="endArrow=none;html=1;strokeColor=#000000;" parent="WIyWlLk6GJQsqaUBKTNV-1" target="BwAWwdijLhmff7g70wNX-11" edge="1">
          <mxGeometry width="50" height="50" relative="1" as="geometry">
            <mxPoint x="530" y="280" as="sourcePoint" />
            <mxPoint x="530" y="440" as="targetPoint" />
          </mxGeometry>
        </mxCell>
        <mxCell id="BwAWwdijLhmff7g70wNX-13" value="&lt;font style=&quot;font-size: 24px&quot;&gt;TEmpty&lt;/font&gt;" style="text;html=1;align=center;verticalAlign=middle;resizable=0;points=[];autosize=1;strokeColor=none;" parent="WIyWlLk6GJQsqaUBKTNV-1" vertex="1">
          <mxGeometry x="750" y="60" width="100" height="20" as="geometry" />
        </mxCell>
        <mxCell id="BwAWwdijLhmff7g70wNX-14" value="" style="rounded=0;html=1;jettySize=auto;orthogonalLoop=1;fontSize=11;endArrow=none;endFill=0;endSize=8;strokeWidth=1;shadow=0;labelBackgroundColor=none;edgeStyle=orthogonalEdgeStyle;entryX=0.5;entryY=0;entryDx=0;entryDy=0;" parent="WIyWlLk6GJQsqaUBKTNV-1" source="WIyWlLk6GJQsqaUBKTNV-3" target="BwAWwdijLhmff7g70wNX-13" edge="1">
          <mxGeometry relative="1" as="geometry">
            <mxPoint x="650" y="960" as="targetPoint" />
            <Array as="points" />
            <mxPoint x="650" y="-160" as="sourcePoint" />
          </mxGeometry>
        </mxCell>
        <mxCell id="BwAWwdijLhmff7g70wNX-19" value="&lt;font style=&quot;font-size: 24px&quot;&gt;THex/TInt/&lt;br&gt;TIdent/TStringLiteral&lt;/font&gt;" style="text;html=1;align=center;verticalAlign=middle;resizable=0;points=[];autosize=1;strokeColor=none;" parent="WIyWlLk6GJQsqaUBKTNV-1" vertex="1">
          <mxGeometry x="415" y="565" width="230" height="40" as="geometry" />
        </mxCell>
        <mxCell id="BwAWwdijLhmff7g70wNX-20" value="" style="edgeStyle=orthogonalEdgeStyle;rounded=0;orthogonalLoop=1;jettySize=auto;html=1;endArrow=none;" parent="WIyWlLk6GJQsqaUBKTNV-1" source="9fOPiK6Cyf-GxQi1RAT0-0" target="BwAWwdijLhmff7g70wNX-19" edge="1">
          <mxGeometry relative="1" as="geometry">
            <mxPoint x="530" y="480" as="sourcePoint" />
            <mxPoint x="530" y="630" as="targetPoint" />
          </mxGeometry>
        </mxCell>
        <mxCell id="BwAWwdijLhmff7g70wNX-21" value="&lt;font style=&quot;font-size: 24px&quot;&gt;TAddress&lt;/font&gt;" style="text;html=1;align=center;verticalAlign=middle;resizable=0;points=[];autosize=1;strokeColor=none;" parent="WIyWlLk6GJQsqaUBKTNV-1" vertex="1">
          <mxGeometry x="470" y="740" width="120" height="20" as="geometry" />
        </mxCell>
        <mxCell id="BwAWwdijLhmff7g70wNX-22" value="" style="edgeStyle=orthogonalEdgeStyle;rounded=0;orthogonalLoop=1;jettySize=auto;html=1;entryX=0.5;entryY=0;entryDx=0;entryDy=0;endArrow=none;" parent="WIyWlLk6GJQsqaUBKTNV-1" source="9fOPiK6Cyf-GxQi1RAT0-5" target="BwAWwdijLhmff7g70wNX-21" edge="1">
          <mxGeometry relative="1" as="geometry">
            <mxPoint x="530" y="740" as="targetPoint" />
            <mxPoint x="530" y="670" as="sourcePoint" />
          </mxGeometry>
        </mxCell>
        <mxCell id="BwAWwdijLhmff7g70wNX-23" value="&lt;font style=&quot;font-size: 24px&quot;&gt;TEmpty&lt;/font&gt;" style="text;html=1;align=center;verticalAlign=middle;resizable=0;points=[];autosize=1;strokeColor=none;" parent="WIyWlLk6GJQsqaUBKTNV-1" vertex="1">
          <mxGeometry x="480" y="860" width="100" height="20" as="geometry" />
        </mxCell>
        <mxCell id="BwAWwdijLhmff7g70wNX-24" value="" style="endArrow=none;html=1;strokeColor=#000000;exitX=0.5;exitY=1;exitDx=0;exitDy=0;" parent="WIyWlLk6GJQsqaUBKTNV-1" source="9fOPiK6Cyf-GxQi1RAT0-8" target="BwAWwdijLhmff7g70wNX-23" edge="1">
          <mxGeometry width="50" height="50" relative="1" as="geometry">
            <mxPoint x="530" y="830" as="sourcePoint" />
            <mxPoint x="530" y="920" as="targetPoint" />
          </mxGeometry>
        </mxCell>
        <mxCell id="BwAWwdijLhmff7g70wNX-26" value="&lt;font style=&quot;font-size: 24px&quot;&gt;TEmpty&lt;/font&gt;" style="text;html=1;align=center;verticalAlign=middle;resizable=0;points=[];autosize=1;strokeColor=none;" parent="WIyWlLk6GJQsqaUBKTNV-1" vertex="1">
          <mxGeometry x="-465" y="780" width="100" height="20" as="geometry" />
        </mxCell>
        <mxCell id="BwAWwdijLhmff7g70wNX-27" value="" style="edgeStyle=orthogonalEdgeStyle;rounded=1;orthogonalLoop=1;jettySize=auto;html=1;entryX=0.5;entryY=0;entryDx=0;entryDy=0;exitX=0.5;exitY=1;exitDx=0;exitDy=0;endArrow=none;" parent="WIyWlLk6GJQsqaUBKTNV-1" source="9fOPiK6Cyf-GxQi1RAT0-10" target="BwAWwdijLhmff7g70wNX-26" edge="1">
          <mxGeometry relative="1" as="geometry">
            <Array as="points" />
            <mxPoint x="-415" y="680" as="sourcePoint" />
            <mxPoint x="505" y="1050" as="targetPoint" />
          </mxGeometry>
        </mxCell>
        <mxCell id="BwAWwdijLhmff7g70wNX-25" value="&lt;font style=&quot;font-size: 24px&quot;&gt;TEmpty&lt;/font&gt;" style="text;html=1;align=center;verticalAlign=middle;resizable=0;points=[];autosize=1;strokeColor=none;" parent="WIyWlLk6GJQsqaUBKTNV-1" vertex="1">
          <mxGeometry x="130" y="580" width="100" height="20" as="geometry" />
        </mxCell>
        <mxCell id="BwAWwdijLhmff7g70wNX-28" value="" style="endArrow=none;html=1;strokeColor=#000000;exitX=0.5;exitY=1;exitDx=0;exitDy=0;" parent="WIyWlLk6GJQsqaUBKTNV-1" source="9fOPiK6Cyf-GxQi1RAT0-17" target="BwAWwdijLhmff7g70wNX-25" edge="1">
          <mxGeometry width="50" height="50" relative="1" as="geometry">
            <mxPoint x="180" y="490" as="sourcePoint" />
            <mxPoint x="180" y="920" as="targetPoint" />
          </mxGeometry>
        </mxCell>
        <mxCell id="BwAWwdijLhmff7g70wNX-30" value="&lt;span style=&quot;font-size: 24px&quot;&gt;THex/TInt/&lt;br&gt;&lt;/span&gt;&lt;span style=&quot;font-size: 24px&quot;&gt;TIdent/TStringLiteral&lt;/span&gt;" style="text;html=1;align=center;verticalAlign=middle;resizable=0;points=[];autosize=1;strokeColor=none;" parent="WIyWlLk6GJQsqaUBKTNV-1" vertex="1">
          <mxGeometry x="-530" y="550" width="230" height="40" as="geometry" />
        </mxCell>
        <mxCell id="BwAWwdijLhmff7g70wNX-33" value="" style="edgeStyle=orthogonalEdgeStyle;rounded=0;orthogonalLoop=1;jettySize=auto;html=1;entryX=0.5;entryY=0;entryDx=0;entryDy=0;endArrow=none;" parent="WIyWlLk6GJQsqaUBKTNV-1" source="9fOPiK6Cyf-GxQi1RAT0-1" target="BwAWwdijLhmff7g70wNX-30" edge="1">
          <mxGeometry relative="1" as="geometry">
            <mxPoint x="-415" y="480" as="sourcePoint" />
            <mxPoint x="-415" y="640" as="targetPoint" />
          </mxGeometry>
        </mxCell>
        <mxCell id="BwAWwdijLhmff7g70wNX-34" value="&lt;font style=&quot;font-size: 24px&quot;&gt;TComment&lt;/font&gt;" style="text;html=1;align=center;verticalAlign=middle;resizable=0;points=[];autosize=1;strokeColor=none;" parent="WIyWlLk6GJQsqaUBKTNV-1" vertex="1">
          <mxGeometry x="-680" y="780" width="130" height="20" as="geometry" />
        </mxCell>
        <mxCell id="BwAWwdijLhmff7g70wNX-39" value="" style="endArrow=none;html=1;strokeColor=#FF8000;entryX=0.5;entryY=0;entryDx=0;entryDy=0;startArrow=none;" parent="WIyWlLk6GJQsqaUBKTNV-1" source="9fOPiK6Cyf-GxQi1RAT0-10" target="BwAWwdijLhmff7g70wNX-34" edge="1">
          <mxGeometry width="50" height="50" relative="1" as="geometry">
            <mxPoint x="-415" y="680" as="sourcePoint" />
            <mxPoint x="-615" y="930" as="targetPoint" />
            <Array as="points">
              <mxPoint x="-415" y="720" />
              <mxPoint x="-615" y="720" />
            </Array>
          </mxGeometry>
        </mxCell>
        <mxCell id="BwAWwdijLhmff7g70wNX-41" value="" style="endArrow=classic;html=1;exitX=1;exitY=0.5;exitDx=0;exitDy=0;startArrow=none;" parent="WIyWlLk6GJQsqaUBKTNV-1" source="BwAWwdijLhmff7g70wNX-42" edge="1">
          <mxGeometry width="50" height="50" relative="1" as="geometry">
            <mxPoint x="620" y="690" as="sourcePoint" />
            <mxPoint x="800" y="660" as="targetPoint" />
          </mxGeometry>
        </mxCell>
        <mxCell id="BwAWwdijLhmff7g70wNX-42" value="&lt;font style=&quot;font-size: 24px&quot;&gt;TEmpty&lt;/font&gt;" style="text;html=1;align=center;verticalAlign=middle;resizable=0;points=[];autosize=1;strokeColor=none;" parent="WIyWlLk6GJQsqaUBKTNV-1" vertex="1">
          <mxGeometry x="630" y="650" width="100" height="20" as="geometry" />
        </mxCell>
        <mxCell id="BwAWwdijLhmff7g70wNX-43" value="" style="endArrow=none;html=1;exitX=1;exitY=0.5;exitDx=0;exitDy=0;" parent="WIyWlLk6GJQsqaUBKTNV-1" source="9fOPiK6Cyf-GxQi1RAT0-5" target="BwAWwdijLhmff7g70wNX-42" edge="1">
          <mxGeometry width="50" height="50" relative="1" as="geometry">
            <mxPoint x="590" y="660" as="sourcePoint" />
            <mxPoint x="740" y="660" as="targetPoint" />
          </mxGeometry>
        </mxCell>
        <mxCell id="BwAWwdijLhmff7g70wNX-46" value="&lt;font style=&quot;font-size: 24px&quot;&gt;TEmpty&lt;/font&gt;" style="text;html=1;align=center;verticalAlign=middle;resizable=0;points=[];autosize=1;strokeColor=none;" parent="WIyWlLk6GJQsqaUBKTNV-1" vertex="1">
          <mxGeometry x="-10" y="1120" width="100" height="20" as="geometry" />
        </mxCell>
        <mxCell id="BwAWwdijLhmff7g70wNX-47" value="" style="endArrow=none;html=1;exitX=0.5;exitY=1;exitDx=0;exitDy=0;strokeColor=#FF8000;" parent="WIyWlLk6GJQsqaUBKTNV-1" source="9fOPiK6Cyf-GxQi1RAT0-65" target="BwAWwdijLhmff7g70wNX-46" edge="1">
          <mxGeometry width="50" height="50" relative="1" as="geometry">
            <mxPoint x="-615" y="920" as="sourcePoint" />
            <mxPoint x="-235" y="1000" as="targetPoint" />
            <Array as="points" />
          </mxGeometry>
        </mxCell>
        <mxCell id="BwAWwdijLhmff7g70wNX-55" value="&lt;font style=&quot;font-size: 24px&quot;&gt;TComment&lt;/font&gt;" style="text;html=1;align=center;verticalAlign=middle;resizable=0;points=[];autosize=1;strokeColor=none;" parent="WIyWlLk6GJQsqaUBKTNV-1" vertex="1">
          <mxGeometry x="240" y="580" width="130" height="20" as="geometry" />
        </mxCell>
        <mxCell id="BwAWwdijLhmff7g70wNX-56" value="" style="endArrow=none;html=1;strokeColor=#FF8000;entryX=0.462;entryY=0;entryDx=0;entryDy=0;entryPerimeter=0;" parent="WIyWlLk6GJQsqaUBKTNV-1" target="BwAWwdijLhmff7g70wNX-55" edge="1">
          <mxGeometry width="50" height="50" relative="1" as="geometry">
            <mxPoint x="530" y="480" as="sourcePoint" />
            <mxPoint x="360" y="610" as="targetPoint" />
            <Array as="points">
              <mxPoint x="530" y="520" />
              <mxPoint x="300" y="520" />
            </Array>
          </mxGeometry>
        </mxCell>
        <mxCell id="BwAWwdijLhmff7g70wNX-58" value="&lt;span style=&quot;font-size: 24px&quot;&gt;TDotCommand&lt;/span&gt;" style="text;html=1;align=center;verticalAlign=middle;resizable=0;points=[];autosize=1;strokeColor=none;" parent="WIyWlLk6GJQsqaUBKTNV-1" vertex="1">
          <mxGeometry x="-330" y="340" width="180" height="20" as="geometry" />
        </mxCell>
        <mxCell id="BwAWwdijLhmff7g70wNX-64" value="&lt;span style=&quot;font-size: 24px&quot;&gt;TIdent&lt;/span&gt;" style="text;html=1;align=center;verticalAlign=middle;resizable=0;points=[];autosize=1;strokeColor=none;" parent="WIyWlLk6GJQsqaUBKTNV-1" vertex="1">
          <mxGeometry x="640" y="340" width="80" height="20" as="geometry" />
        </mxCell>
        <mxCell id="BwAWwdijLhmff7g70wNX-68" value="" style="edgeStyle=orthogonalEdgeStyle;rounded=1;orthogonalLoop=1;jettySize=auto;html=1;strokeColor=#00FF00;endArrow=none;" parent="WIyWlLk6GJQsqaUBKTNV-1" edge="1">
          <mxGeometry relative="1" as="geometry">
            <mxPoint x="280" y="200" as="sourcePoint" />
            <Array as="points">
              <mxPoint x="280" y="200" />
              <mxPoint x="680" y="200" />
            </Array>
            <mxPoint x="680" y="336" as="targetPoint" />
          </mxGeometry>
        </mxCell>
        <mxCell id="BwAWwdijLhmff7g70wNX-72" value="&lt;span style=&quot;font-size: 24px&quot;&gt;TIdent&lt;/span&gt;" style="text;html=1;align=center;verticalAlign=middle;resizable=0;points=[];autosize=1;strokeColor=none;" parent="WIyWlLk6GJQsqaUBKTNV-1" vertex="1">
          <mxGeometry x="280" y="340" width="80" height="20" as="geometry" />
        </mxCell>
        <mxCell id="BwAWwdijLhmff7g70wNX-74" value="&lt;font style=&quot;font-size: 24px&quot;&gt;TComment&lt;/font&gt;" style="text;html=1;align=center;verticalAlign=middle;resizable=0;points=[];autosize=1;strokeColor=none;" parent="WIyWlLk6GJQsqaUBKTNV-1" vertex="1">
          <mxGeometry x="-25" y="580" width="130" height="20" as="geometry" />
        </mxCell>
        <mxCell id="BwAWwdijLhmff7g70wNX-75" value="" style="endArrow=none;html=1;strokeColor=#FF8000;exitX=0.5;exitY=1;exitDx=0;exitDy=0;" parent="WIyWlLk6GJQsqaUBKTNV-1" source="9fOPiK6Cyf-GxQi1RAT0-17" target="BwAWwdijLhmff7g70wNX-74" edge="1">
          <mxGeometry width="50" height="50" relative="1" as="geometry">
            <mxPoint x="180" y="490" as="sourcePoint" />
            <mxPoint x="80" y="840" as="targetPoint" />
            <Array as="points">
              <mxPoint x="180" y="520" />
              <mxPoint x="40" y="520" />
            </Array>
          </mxGeometry>
        </mxCell>
        <mxCell id="BwAWwdijLhmff7g70wNX-76" value="" style="endArrow=classic;html=1;strokeColor=#FF8000;exitX=0.469;exitY=0;exitDx=0;exitDy=0;entryX=0.25;entryY=0;entryDx=0;entryDy=0;startArrow=none;exitPerimeter=0;" parent="WIyWlLk6GJQsqaUBKTNV-1" source="BwAWwdijLhmff7g70wNX-79" target="WIyWlLk6GJQsqaUBKTNV-3" edge="1">
          <mxGeometry width="50" height="50" relative="1" as="geometry">
            <mxPoint x="390" y="130" as="sourcePoint" />
            <mxPoint x="700" y="-160" as="targetPoint" />
            <Array as="points">
              <mxPoint x="600" y="-140" />
              <mxPoint x="770" y="-140" />
            </Array>
          </mxGeometry>
        </mxCell>
        <mxCell id="BwAWwdijLhmff7g70wNX-79" value="&lt;font style=&quot;font-size: 24px&quot;&gt;TComment&lt;/font&gt;" style="text;html=1;align=center;verticalAlign=middle;resizable=0;points=[];autosize=1;strokeColor=none;" parent="WIyWlLk6GJQsqaUBKTNV-1" vertex="1">
          <mxGeometry x="540" y="-100" width="130" height="20" as="geometry" />
        </mxCell>
        <mxCell id="BwAWwdijLhmff7g70wNX-82" value="" style="endArrow=none;html=1;strokeColor=#FF8000;exitX=0;exitY=0.5;exitDx=0;exitDy=0;entryX=0.469;entryY=1.25;entryDx=0;entryDy=0;entryPerimeter=0;" parent="WIyWlLk6GJQsqaUBKTNV-1" source="WIyWlLk6GJQsqaUBKTNV-3" target="BwAWwdijLhmff7g70wNX-79" edge="1">
          <mxGeometry width="50" height="50" relative="1" as="geometry">
            <mxPoint x="740" y="-40" as="sourcePoint" />
            <mxPoint x="770" y="-60" as="targetPoint" />
            <Array as="points">
              <mxPoint x="601" y="-40" />
            </Array>
          </mxGeometry>
        </mxCell>
        <mxCell id="_FcQ6w-wz9mEZq4ZfC42-0" value="" style="endArrow=classic;html=1;exitX=0.5;exitY=1;exitDx=0;exitDy=0;exitPerimeter=0;" parent="WIyWlLk6GJQsqaUBKTNV-1" source="BwAWwdijLhmff7g70wNX-13" target="9fOPiK6Cyf-GxQi1RAT0-4" edge="1">
          <mxGeometry width="50" height="50" relative="1" as="geometry">
            <mxPoint x="520" y="370" as="sourcePoint" />
            <mxPoint x="570" y="320" as="targetPoint" />
          </mxGeometry>
        </mxCell>
        <mxCell id="_FcQ6w-wz9mEZq4ZfC42-2" value="" style="endArrow=classic;html=1;strokeColor=#33FF33;entryX=1;entryY=0.5;entryDx=0;entryDy=0;" parent="WIyWlLk6GJQsqaUBKTNV-1" source="BwAWwdijLhmff7g70wNX-58" target="9fOPiK6Cyf-GxQi1RAT0-1" edge="1">
          <mxGeometry width="50" height="50" relative="1" as="geometry">
            <mxPoint x="-310" y="373" as="sourcePoint" />
            <mxPoint x="120" y="340" as="targetPoint" />
            <Array as="points">
              <mxPoint x="-243" y="460" />
            </Array>
          </mxGeometry>
        </mxCell>
        <mxCell id="_FcQ6w-wz9mEZq4ZfC42-3" value="" style="endArrow=none;html=1;strokeColor=#33FF33;" parent="WIyWlLk6GJQsqaUBKTNV-1" source="BwAWwdijLhmff7g70wNX-58" edge="1">
          <mxGeometry width="50" height="50" relative="1" as="geometry">
            <mxPoint x="70" y="390" as="sourcePoint" />
            <mxPoint x="280" y="200" as="targetPoint" />
            <Array as="points">
              <mxPoint x="-242" y="200" />
            </Array>
          </mxGeometry>
        </mxCell>
        <mxCell id="lcEyt09xjSLfSt4ivCsN-3" value="" style="endArrow=classic;html=1;exitX=0.507;exitY=1.1;exitDx=0;exitDy=0;exitPerimeter=0;entryX=1;entryY=0.5;entryDx=0;entryDy=0;strokeColor=#33FF33;" parent="WIyWlLk6GJQsqaUBKTNV-1" source="BwAWwdijLhmff7g70wNX-72" target="9fOPiK6Cyf-GxQi1RAT0-17" edge="1">
          <mxGeometry width="50" height="50" relative="1" as="geometry">
            <mxPoint x="20" y="710" as="sourcePoint" />
            <mxPoint x="70" y="660" as="targetPoint" />
            <Array as="points">
              <mxPoint x="321" y="460" />
            </Array>
          </mxGeometry>
        </mxCell>
        <mxCell id="lcEyt09xjSLfSt4ivCsN-4" value="" style="endArrow=none;html=1;strokeColor=#33FF33;" parent="WIyWlLk6GJQsqaUBKTNV-1" target="BwAWwdijLhmff7g70wNX-72" edge="1">
          <mxGeometry width="50" height="50" relative="1" as="geometry">
            <mxPoint x="320" y="200" as="sourcePoint" />
            <mxPoint x="210" y="570" as="targetPoint" />
          </mxGeometry>
        </mxCell>
        <mxCell id="lcEyt09xjSLfSt4ivCsN-5" value="" style="endArrow=none;html=1;strokeColor=#33FF33;exitX=0.5;exitY=1;exitDx=0;exitDy=0;" parent="WIyWlLk6GJQsqaUBKTNV-1" source="9fOPiK6Cyf-GxQi1RAT0-40" edge="1">
          <mxGeometry width="50" height="50" relative="1" as="geometry">
            <mxPoint x="160" y="620" as="sourcePoint" />
            <mxPoint x="280" y="200" as="targetPoint" />
          </mxGeometry>
        </mxCell>
        <mxCell id="IXmrDewo1QXf85BInkCj-0" value="" style="endArrow=classic;html=1;exitX=0.5;exitY=1;exitDx=0;exitDy=0;startArrow=none;" parent="WIyWlLk6GJQsqaUBKTNV-1" source="IXmrDewo1QXf85BInkCj-1" edge="1">
          <mxGeometry width="50" height="50" relative="1" as="geometry">
            <mxPoint x="260" y="530" as="sourcePoint" />
            <mxPoint x="-200" y="920" as="targetPoint" />
            <Array as="points" />
          </mxGeometry>
        </mxCell>
        <mxCell id="IXmrDewo1QXf85BInkCj-1" value="&lt;font style=&quot;font-size: 24px&quot;&gt;TEmpty&lt;/font&gt;" style="text;html=1;align=center;verticalAlign=middle;resizable=0;points=[];autosize=1;strokeColor=none;" parent="WIyWlLk6GJQsqaUBKTNV-1" vertex="1">
          <mxGeometry x="-250" y="640" width="100" height="20" as="geometry" />
        </mxCell>
        <mxCell id="IXmrDewo1QXf85BInkCj-2" value="" style="endArrow=none;html=1;exitX=0.5;exitY=1;exitDx=0;exitDy=0;" parent="WIyWlLk6GJQsqaUBKTNV-1" source="9fOPiK6Cyf-GxQi1RAT0-1" target="IXmrDewo1QXf85BInkCj-1" edge="1">
          <mxGeometry width="50" height="50" relative="1" as="geometry">
            <mxPoint x="-415" y="480" as="sourcePoint" />
            <mxPoint x="-200" y="920" as="targetPoint" />
            <Array as="points">
              <mxPoint x="-415" y="520" />
              <mxPoint x="-200" y="520" />
            </Array>
          </mxGeometry>
        </mxCell>
      </root>
    </mxGraphModel>
  </diagram>
  <diagram id="RYAMC7czJ1SRBqrOaCQX" name="Tokenizer">
    <mxGraphModel dx="1720" dy="1577" grid="1" gridSize="10" guides="1" tooltips="1" connect="1" arrows="1" fold="1" page="1" pageScale="1" pageWidth="850" pageHeight="1100" math="0" shadow="0">
      <root>
        <mxCell id="9igGc7xNILyxVrzB3KSH-0" />
        <mxCell id="9igGc7xNILyxVrzB3KSH-1" parent="9igGc7xNILyxVrzB3KSH-0" />
        <mxCell id="9igGc7xNILyxVrzB3KSH-2" style="edgeStyle=orthogonalEdgeStyle;rounded=0;orthogonalLoop=1;jettySize=auto;html=1;exitX=0;exitY=0.5;exitDx=0;exitDy=0;entryX=0.5;entryY=0;entryDx=0;entryDy=0;" edge="1" parent="9igGc7xNILyxVrzB3KSH-1" source="9igGc7xNILyxVrzB3KSH-4" target="9igGc7xNILyxVrzB3KSH-4">
          <mxGeometry relative="1" as="geometry">
            <mxPoint x="180" y="400" as="targetPoint" />
            <Array as="points">
              <mxPoint x="40" y="450" />
              <mxPoint x="40" y="360" />
              <mxPoint x="180" y="360" />
            </Array>
          </mxGeometry>
        </mxCell>
        <mxCell id="9igGc7xNILyxVrzB3KSH-3" style="edgeStyle=orthogonalEdgeStyle;rounded=0;orthogonalLoop=1;jettySize=auto;html=1;entryX=0;entryY=0.5;entryDx=0;entryDy=0;" edge="1" parent="9igGc7xNILyxVrzB3KSH-1" source="9igGc7xNILyxVrzB3KSH-4" target="9igGc7xNILyxVrzB3KSH-35">
          <mxGeometry relative="1" as="geometry">
            <Array as="points">
              <mxPoint x="280" y="450" />
              <mxPoint x="280" y="1370" />
            </Array>
          </mxGeometry>
        </mxCell>
        <mxCell id="9igGc7xNILyxVrzB3KSH-4" value="LS_START" style="rounded=0;whiteSpace=wrap;html=1;strokeWidth=4;fillColor=#dae8fc;strokeColor=#6c8ebf;" vertex="1" parent="9igGc7xNILyxVrzB3KSH-1">
          <mxGeometry x="120" y="410" width="120" height="80" as="geometry" />
        </mxCell>
        <mxCell id="9igGc7xNILyxVrzB3KSH-5" style="edgeStyle=orthogonalEdgeStyle;rounded=0;orthogonalLoop=1;jettySize=auto;html=1;entryX=0.5;entryY=0;entryDx=0;entryDy=0;startArrow=none;" edge="1" parent="9igGc7xNILyxVrzB3KSH-1" source="9igGc7xNILyxVrzB3KSH-61" target="9igGc7xNILyxVrzB3KSH-8">
          <mxGeometry relative="1" as="geometry" />
        </mxCell>
        <mxCell id="9igGc7xNILyxVrzB3KSH-6" style="edgeStyle=orthogonalEdgeStyle;rounded=0;orthogonalLoop=1;jettySize=auto;html=1;startArrow=none;" edge="1" parent="9igGc7xNILyxVrzB3KSH-1" source="9igGc7xNILyxVrzB3KSH-76" target="9igGc7xNILyxVrzB3KSH-18">
          <mxGeometry relative="1" as="geometry" />
        </mxCell>
        <mxCell id="9igGc7xNILyxVrzB3KSH-7" value="LS_INT1" style="rounded=0;whiteSpace=wrap;html=1;" vertex="1" parent="9igGc7xNILyxVrzB3KSH-1">
          <mxGeometry x="385" y="90" width="120" height="80" as="geometry" />
        </mxCell>
        <mxCell id="9igGc7xNILyxVrzB3KSH-8" value="LS_INT2" style="rounded=0;whiteSpace=wrap;html=1;strokeWidth=4;fillColor=#dae8fc;strokeColor=#6c8ebf;" vertex="1" parent="9igGc7xNILyxVrzB3KSH-1">
          <mxGeometry x="385" y="250" width="120" height="80" as="geometry" />
        </mxCell>
        <mxCell id="9igGc7xNILyxVrzB3KSH-9" style="edgeStyle=orthogonalEdgeStyle;rounded=0;orthogonalLoop=1;jettySize=auto;html=1;entryX=0.5;entryY=1;entryDx=0;entryDy=0;startArrow=none;" edge="1" parent="9igGc7xNILyxVrzB3KSH-1" source="9igGc7xNILyxVrzB3KSH-63" target="9igGc7xNILyxVrzB3KSH-8">
          <mxGeometry relative="1" as="geometry" />
        </mxCell>
        <mxCell id="9igGc7xNILyxVrzB3KSH-10" value="LS_SIGN" style="rounded=0;whiteSpace=wrap;html=1;" vertex="1" parent="9igGc7xNILyxVrzB3KSH-1">
          <mxGeometry x="385" y="410" width="120" height="80" as="geometry" />
        </mxCell>
        <mxCell id="9igGc7xNILyxVrzB3KSH-11" style="edgeStyle=orthogonalEdgeStyle;rounded=0;orthogonalLoop=1;jettySize=auto;html=1;exitX=1;exitY=0.5;exitDx=0;exitDy=0;startArrow=none;" edge="1" parent="9igGc7xNILyxVrzB3KSH-1" source="9igGc7xNILyxVrzB3KSH-68" target="9igGc7xNILyxVrzB3KSH-20">
          <mxGeometry relative="1" as="geometry">
            <mxPoint x="520" y="730" as="sourcePoint" />
          </mxGeometry>
        </mxCell>
        <mxCell id="9igGc7xNILyxVrzB3KSH-12" value="LS_Ident" style="rounded=0;whiteSpace=wrap;html=1;strokeWidth=4;fillColor=#dae8fc;strokeColor=#6c8ebf;" vertex="1" parent="9igGc7xNILyxVrzB3KSH-1">
          <mxGeometry x="405" y="690" width="120" height="80" as="geometry" />
        </mxCell>
        <mxCell id="9igGc7xNILyxVrzB3KSH-13" style="edgeStyle=orthogonalEdgeStyle;rounded=0;orthogonalLoop=1;jettySize=auto;html=1;exitX=1;exitY=0.5;exitDx=0;exitDy=0;" edge="1" parent="9igGc7xNILyxVrzB3KSH-1" source="9igGc7xNILyxVrzB3KSH-14" target="9igGc7xNILyxVrzB3KSH-22">
          <mxGeometry relative="1" as="geometry">
            <mxPoint x="570" y="1050" as="sourcePoint" />
          </mxGeometry>
        </mxCell>
        <mxCell id="9igGc7xNILyxVrzB3KSH-14" value="LS_ADDR1" style="rounded=0;whiteSpace=wrap;html=1;" vertex="1" parent="9igGc7xNILyxVrzB3KSH-1">
          <mxGeometry x="410" y="1010" width="120" height="80" as="geometry" />
        </mxCell>
        <mxCell id="9igGc7xNILyxVrzB3KSH-15" style="edgeStyle=orthogonalEdgeStyle;rounded=0;orthogonalLoop=1;jettySize=auto;html=1;startArrow=none;" edge="1" parent="9igGc7xNILyxVrzB3KSH-1" source="9igGc7xNILyxVrzB3KSH-66" target="9igGc7xNILyxVrzB3KSH-12">
          <mxGeometry relative="1" as="geometry">
            <mxPoint x="480" y="890" as="sourcePoint" />
            <mxPoint x="640" y="880" as="targetPoint" />
            <Array as="points" />
          </mxGeometry>
        </mxCell>
        <mxCell id="9igGc7xNILyxVrzB3KSH-16" value="LS_DOT1" style="rounded=0;whiteSpace=wrap;html=1;" vertex="1" parent="9igGc7xNILyxVrzB3KSH-1">
          <mxGeometry x="405" y="850" width="120" height="80" as="geometry" />
        </mxCell>
        <mxCell id="9igGc7xNILyxVrzB3KSH-17" style="edgeStyle=orthogonalEdgeStyle;rounded=0;orthogonalLoop=1;jettySize=auto;html=1;startArrow=none;" edge="1" parent="9igGc7xNILyxVrzB3KSH-1" source="9igGc7xNILyxVrzB3KSH-72" target="9igGc7xNILyxVrzB3KSH-19">
          <mxGeometry relative="1" as="geometry" />
        </mxCell>
        <mxCell id="9igGc7xNILyxVrzB3KSH-18" value="LS_HEX1" style="rounded=0;whiteSpace=wrap;html=1;" vertex="1" parent="9igGc7xNILyxVrzB3KSH-1">
          <mxGeometry x="640" y="90" width="120" height="80" as="geometry" />
        </mxCell>
        <mxCell id="9igGc7xNILyxVrzB3KSH-19" value="LS_HEX2" style="rounded=0;whiteSpace=wrap;html=1;strokeWidth=4;fillColor=#dae8fc;strokeColor=#6c8ebf;" vertex="1" parent="9igGc7xNILyxVrzB3KSH-1">
          <mxGeometry x="920" y="90" width="120" height="80" as="geometry" />
        </mxCell>
        <mxCell id="9igGc7xNILyxVrzB3KSH-20" value="LS_SYMBOL" style="rounded=0;whiteSpace=wrap;html=1;strokeWidth=4;fillColor=#dae8fc;strokeColor=#6c8ebf;" vertex="1" parent="9igGc7xNILyxVrzB3KSH-1">
          <mxGeometry x="640" y="690" width="120" height="80" as="geometry" />
        </mxCell>
        <mxCell id="9igGc7xNILyxVrzB3KSH-21" style="edgeStyle=orthogonalEdgeStyle;rounded=0;orthogonalLoop=1;jettySize=auto;html=1;exitX=1;exitY=0.5;exitDx=0;exitDy=0;" edge="1" parent="9igGc7xNILyxVrzB3KSH-1" source="9igGc7xNILyxVrzB3KSH-22">
          <mxGeometry relative="1" as="geometry">
            <mxPoint x="750" y="1010" as="targetPoint" />
            <Array as="points">
              <mxPoint x="850" y="1050" />
              <mxPoint x="850" y="970" />
              <mxPoint x="750" y="970" />
            </Array>
          </mxGeometry>
        </mxCell>
        <mxCell id="9igGc7xNILyxVrzB3KSH-22" value="LS_ADDR2" style="rounded=0;whiteSpace=wrap;html=1;strokeWidth=4;fillColor=#dae8fc;strokeColor=#6c8ebf;" vertex="1" parent="9igGc7xNILyxVrzB3KSH-1">
          <mxGeometry x="690" y="1010" width="120" height="80" as="geometry" />
        </mxCell>
        <mxCell id="9igGc7xNILyxVrzB3KSH-23" style="edgeStyle=orthogonalEdgeStyle;rounded=0;orthogonalLoop=1;jettySize=auto;html=1;entryX=0.5;entryY=0;entryDx=0;entryDy=0;exitX=-0.02;exitY=0.548;exitDx=0;exitDy=0;startArrow=none;exitPerimeter=0;" edge="1" parent="9igGc7xNILyxVrzB3KSH-1" source="9igGc7xNILyxVrzB3KSH-74" target="9igGc7xNILyxVrzB3KSH-19">
          <mxGeometry relative="1" as="geometry">
            <mxPoint x="950" y="90" as="targetPoint" />
            <mxPoint x="1050" y="140" as="sourcePoint" />
            <Array as="points">
              <mxPoint x="980" y="50" />
            </Array>
          </mxGeometry>
        </mxCell>
        <mxCell id="9igGc7xNILyxVrzB3KSH-24" value="&lt;font style=&quot;font-size: 24px&quot;&gt;Letter&lt;/font&gt;" style="text;html=1;resizable=0;autosize=1;align=center;verticalAlign=middle;points=[];fillColor=none;strokeColor=none;rounded=0;" vertex="1" parent="9igGc7xNILyxVrzB3KSH-1">
          <mxGeometry x="575" y="990" width="80" height="20" as="geometry" />
        </mxCell>
        <mxCell id="9igGc7xNILyxVrzB3KSH-25" value="&lt;font style=&quot;font-size: 24px&quot;&gt;Letter&lt;/font&gt;" style="text;html=1;resizable=0;autosize=1;align=center;verticalAlign=middle;points=[];fillColor=none;strokeColor=none;rounded=0;" vertex="1" parent="9igGc7xNILyxVrzB3KSH-1">
          <mxGeometry x="760" y="950" width="80" height="20" as="geometry" />
        </mxCell>
        <mxCell id="9igGc7xNILyxVrzB3KSH-26" style="edgeStyle=orthogonalEdgeStyle;rounded=0;orthogonalLoop=1;jettySize=auto;html=1;startArrow=none;exitX=-0.01;exitY=0.429;exitDx=0;exitDy=0;exitPerimeter=0;" edge="1" parent="9igGc7xNILyxVrzB3KSH-1" source="9igGc7xNILyxVrzB3KSH-70">
          <mxGeometry relative="1" as="geometry">
            <mxPoint x="710" y="690" as="targetPoint" />
            <mxPoint x="770" y="730" as="sourcePoint" />
            <Array as="points">
              <mxPoint x="710" y="629" />
            </Array>
          </mxGeometry>
        </mxCell>
        <mxCell id="9igGc7xNILyxVrzB3KSH-27" style="edgeStyle=orthogonalEdgeStyle;rounded=0;orthogonalLoop=1;jettySize=auto;html=1;exitX=1;exitY=0.5;exitDx=0;exitDy=0;" edge="1" parent="9igGc7xNILyxVrzB3KSH-1" source="9igGc7xNILyxVrzB3KSH-28" target="9igGc7xNILyxVrzB3KSH-30">
          <mxGeometry relative="1" as="geometry">
            <mxPoint x="570" y="1210" as="sourcePoint" />
          </mxGeometry>
        </mxCell>
        <mxCell id="9igGc7xNILyxVrzB3KSH-28" value="LS_COMMENT1" style="rounded=0;whiteSpace=wrap;html=1;strokeWidth=4;fillColor=#dae8fc;strokeColor=#6c8ebf;" vertex="1" parent="9igGc7xNILyxVrzB3KSH-1">
          <mxGeometry x="410" y="1170" width="120" height="80" as="geometry" />
        </mxCell>
        <mxCell id="9igGc7xNILyxVrzB3KSH-29" style="edgeStyle=orthogonalEdgeStyle;rounded=0;orthogonalLoop=1;jettySize=auto;html=1;exitX=1;exitY=0.5;exitDx=0;exitDy=0;" edge="1" parent="9igGc7xNILyxVrzB3KSH-1" source="9igGc7xNILyxVrzB3KSH-30">
          <mxGeometry relative="1" as="geometry">
            <mxPoint x="750" y="1170" as="targetPoint" />
            <Array as="points">
              <mxPoint x="850" y="1210" />
              <mxPoint x="850" y="1130" />
              <mxPoint x="750" y="1130" />
            </Array>
          </mxGeometry>
        </mxCell>
        <mxCell id="9igGc7xNILyxVrzB3KSH-30" value="LS_COMMENT2" style="rounded=0;whiteSpace=wrap;html=1;strokeWidth=1;" vertex="1" parent="9igGc7xNILyxVrzB3KSH-1">
          <mxGeometry x="690" y="1170" width="120" height="80" as="geometry" />
        </mxCell>
        <mxCell id="9igGc7xNILyxVrzB3KSH-31" value="&lt;font style=&quot;font-size: 24px&quot;&gt;Space&lt;/font&gt;" style="text;html=1;resizable=0;autosize=1;align=center;verticalAlign=middle;points=[];fillColor=none;strokeColor=none;rounded=0;" vertex="1" parent="9igGc7xNILyxVrzB3KSH-1">
          <mxGeometry x="70" y="320" width="80" height="20" as="geometry" />
        </mxCell>
        <mxCell id="9igGc7xNILyxVrzB3KSH-32" value="&lt;font style=&quot;font-size: 24px&quot;&gt;;&lt;/font&gt;" style="text;html=1;resizable=0;autosize=1;align=center;verticalAlign=middle;points=[];fillColor=none;strokeColor=none;rounded=0;" vertex="1" parent="9igGc7xNILyxVrzB3KSH-1">
          <mxGeometry x="340" y="1190" width="20" height="20" as="geometry" />
        </mxCell>
        <mxCell id="9igGc7xNILyxVrzB3KSH-33" value="&lt;span style=&quot;font-size: 24px&quot;&gt;Char&lt;/span&gt;" style="text;html=1;resizable=0;autosize=1;align=center;verticalAlign=middle;points=[];fillColor=none;strokeColor=none;rounded=0;" vertex="1" parent="9igGc7xNILyxVrzB3KSH-1">
          <mxGeometry x="575" y="1190" width="70" height="20" as="geometry" />
        </mxCell>
        <mxCell id="9igGc7xNILyxVrzB3KSH-34" value="&lt;span style=&quot;font-size: 24px&quot;&gt;Char&lt;/span&gt;" style="text;html=1;resizable=0;autosize=1;align=center;verticalAlign=middle;points=[];fillColor=none;strokeColor=none;rounded=0;" vertex="1" parent="9igGc7xNILyxVrzB3KSH-1">
          <mxGeometry x="760" y="1110" width="70" height="20" as="geometry" />
        </mxCell>
        <mxCell id="9igGc7xNILyxVrzB3KSH-35" value="LS_STRLIT1" style="rounded=0;whiteSpace=wrap;html=1;" vertex="1" parent="9igGc7xNILyxVrzB3KSH-1">
          <mxGeometry x="410" y="1330" width="120" height="80" as="geometry" />
        </mxCell>
        <mxCell id="9igGc7xNILyxVrzB3KSH-36" value="" style="endArrow=classic;html=1;entryX=0;entryY=0.5;entryDx=0;entryDy=0;startArrow=none;" edge="1" parent="9igGc7xNILyxVrzB3KSH-1" source="9igGc7xNILyxVrzB3KSH-84" target="9igGc7xNILyxVrzB3KSH-16">
          <mxGeometry width="50" height="50" relative="1" as="geometry">
            <mxPoint x="280" y="890" as="sourcePoint" />
            <mxPoint x="540" y="830" as="targetPoint" />
          </mxGeometry>
        </mxCell>
        <mxCell id="9igGc7xNILyxVrzB3KSH-37" value="" style="endArrow=classic;html=1;entryX=0;entryY=0.5;entryDx=0;entryDy=0;startArrow=none;" edge="1" parent="9igGc7xNILyxVrzB3KSH-1" source="9igGc7xNILyxVrzB3KSH-88" target="9igGc7xNILyxVrzB3KSH-14">
          <mxGeometry width="50" height="50" relative="1" as="geometry">
            <mxPoint x="280" y="1049.5" as="sourcePoint" />
            <mxPoint x="360" y="1049.5" as="targetPoint" />
          </mxGeometry>
        </mxCell>
        <mxCell id="9igGc7xNILyxVrzB3KSH-38" value="" style="endArrow=classic;html=1;startArrow=none;" edge="1" parent="9igGc7xNILyxVrzB3KSH-1" source="9igGc7xNILyxVrzB3KSH-86" target="9igGc7xNILyxVrzB3KSH-12">
          <mxGeometry width="50" height="50" relative="1" as="geometry">
            <mxPoint x="280" y="729.71" as="sourcePoint" />
            <mxPoint x="360" y="729.71" as="targetPoint" />
          </mxGeometry>
        </mxCell>
        <mxCell id="9igGc7xNILyxVrzB3KSH-39" value="" style="endArrow=classic;html=1;startArrow=none;" edge="1" parent="9igGc7xNILyxVrzB3KSH-1" source="9igGc7xNILyxVrzB3KSH-82">
          <mxGeometry width="50" height="50" relative="1" as="geometry">
            <mxPoint x="280" y="289.5" as="sourcePoint" />
            <mxPoint x="390" y="290" as="targetPoint" />
          </mxGeometry>
        </mxCell>
        <mxCell id="9igGc7xNILyxVrzB3KSH-40" value="" style="endArrow=classic;html=1;startArrow=none;" edge="1" parent="9igGc7xNILyxVrzB3KSH-1" source="9igGc7xNILyxVrzB3KSH-80" target="9igGc7xNILyxVrzB3KSH-10">
          <mxGeometry width="50" height="50" relative="1" as="geometry">
            <mxPoint x="280" y="450" as="sourcePoint" />
            <mxPoint x="360" y="450" as="targetPoint" />
          </mxGeometry>
        </mxCell>
        <mxCell id="9igGc7xNILyxVrzB3KSH-41" value="" style="endArrow=classic;html=1;" edge="1" parent="9igGc7xNILyxVrzB3KSH-1" target="9igGc7xNILyxVrzB3KSH-28">
          <mxGeometry width="50" height="50" relative="1" as="geometry">
            <mxPoint x="280" y="1209.5" as="sourcePoint" />
            <mxPoint x="360" y="1209.5" as="targetPoint" />
          </mxGeometry>
        </mxCell>
        <mxCell id="9igGc7xNILyxVrzB3KSH-42" value="LS_STRLIT2" style="rounded=0;whiteSpace=wrap;html=1;" vertex="1" parent="9igGc7xNILyxVrzB3KSH-1">
          <mxGeometry x="690" y="1330" width="120" height="80" as="geometry" />
        </mxCell>
        <mxCell id="9igGc7xNILyxVrzB3KSH-43" value="LS_STRLIT3" style="rounded=0;whiteSpace=wrap;html=1;strokeWidth=4;fillColor=#dae8fc;strokeColor=#6c8ebf;" vertex="1" parent="9igGc7xNILyxVrzB3KSH-1">
          <mxGeometry x="970" y="1330" width="120" height="80" as="geometry" />
        </mxCell>
        <mxCell id="9igGc7xNILyxVrzB3KSH-44" style="edgeStyle=orthogonalEdgeStyle;rounded=0;orthogonalLoop=1;jettySize=auto;html=1;exitX=1;exitY=0.5;exitDx=0;exitDy=0;" edge="1" parent="9igGc7xNILyxVrzB3KSH-1">
          <mxGeometry relative="1" as="geometry">
            <mxPoint x="530" y="1369.5" as="sourcePoint" />
            <mxPoint x="690" y="1369.5" as="targetPoint" />
          </mxGeometry>
        </mxCell>
        <mxCell id="9igGc7xNILyxVrzB3KSH-45" style="edgeStyle=orthogonalEdgeStyle;rounded=0;orthogonalLoop=1;jettySize=auto;html=1;exitX=1;exitY=0.5;exitDx=0;exitDy=0;" edge="1" parent="9igGc7xNILyxVrzB3KSH-1">
          <mxGeometry relative="1" as="geometry">
            <mxPoint x="810" y="1369.5" as="sourcePoint" />
            <mxPoint x="970" y="1369.5" as="targetPoint" />
          </mxGeometry>
        </mxCell>
        <mxCell id="9igGc7xNILyxVrzB3KSH-46" style="edgeStyle=orthogonalEdgeStyle;rounded=0;orthogonalLoop=1;jettySize=auto;html=1;exitX=1;exitY=0.5;exitDx=0;exitDy=0;" edge="1" parent="9igGc7xNILyxVrzB3KSH-1">
          <mxGeometry relative="1" as="geometry">
            <mxPoint x="750" y="1330" as="targetPoint" />
            <Array as="points">
              <mxPoint x="840" y="1370" />
              <mxPoint x="840" y="1290" />
              <mxPoint x="750" y="1290" />
            </Array>
            <mxPoint x="810" y="1370" as="sourcePoint" />
          </mxGeometry>
        </mxCell>
        <mxCell id="9igGc7xNILyxVrzB3KSH-47" value="&lt;span style=&quot;font-size: 24px&quot;&gt;Char&lt;/span&gt;" style="text;html=1;resizable=0;autosize=1;align=center;verticalAlign=middle;points=[];fillColor=none;strokeColor=none;rounded=0;" vertex="1" parent="9igGc7xNILyxVrzB3KSH-1">
          <mxGeometry x="765" y="1270" width="70" height="20" as="geometry" />
        </mxCell>
        <mxCell id="9igGc7xNILyxVrzB3KSH-48" style="edgeStyle=orthogonalEdgeStyle;rounded=0;orthogonalLoop=1;jettySize=auto;html=1;exitX=1;exitY=0.5;exitDx=0;exitDy=0;" edge="1" parent="9igGc7xNILyxVrzB3KSH-1">
          <mxGeometry relative="1" as="geometry">
            <mxPoint x="810" y="1209.5" as="sourcePoint" />
            <mxPoint x="970" y="1209.5" as="targetPoint" />
          </mxGeometry>
        </mxCell>
        <mxCell id="9igGc7xNILyxVrzB3KSH-49" value="LS_COMMENT3" style="rounded=0;whiteSpace=wrap;html=1;strokeWidth=4;fillColor=#dae8fc;strokeColor=#6c8ebf;" vertex="1" parent="9igGc7xNILyxVrzB3KSH-1">
          <mxGeometry x="970" y="1170" width="120" height="80" as="geometry" />
        </mxCell>
        <mxCell id="9igGc7xNILyxVrzB3KSH-50" value="&lt;span style=&quot;font-size: 24px&quot;&gt;&quot;&lt;/span&gt;" style="text;html=1;resizable=0;autosize=1;align=center;verticalAlign=middle;points=[];fillColor=none;strokeColor=none;rounded=0;" vertex="1" parent="9igGc7xNILyxVrzB3KSH-1">
          <mxGeometry x="310" y="1340" width="20" height="20" as="geometry" />
        </mxCell>
        <mxCell id="9igGc7xNILyxVrzB3KSH-51" value="&lt;span style=&quot;font-size: 24px&quot;&gt;Char&lt;/span&gt;" style="text;html=1;resizable=0;autosize=1;align=center;verticalAlign=middle;points=[];fillColor=none;strokeColor=none;rounded=0;" vertex="1" parent="9igGc7xNILyxVrzB3KSH-1">
          <mxGeometry x="575" y="1340" width="70" height="20" as="geometry" />
        </mxCell>
        <mxCell id="9igGc7xNILyxVrzB3KSH-52" value="&lt;span style=&quot;font-size: 24px&quot;&gt;&quot;&lt;/span&gt;" style="text;html=1;resizable=0;autosize=1;align=center;verticalAlign=middle;points=[];fillColor=none;strokeColor=none;rounded=0;" vertex="1" parent="9igGc7xNILyxVrzB3KSH-1">
          <mxGeometry x="885" y="1340" width="20" height="20" as="geometry" />
        </mxCell>
        <mxCell id="9igGc7xNILyxVrzB3KSH-53" value="&lt;span style=&quot;font-size: 24px&quot;&gt;\n&lt;/span&gt;" style="text;html=1;resizable=0;autosize=1;align=center;verticalAlign=middle;points=[];fillColor=none;strokeColor=none;rounded=0;" vertex="1" parent="9igGc7xNILyxVrzB3KSH-1">
          <mxGeometry x="875" y="1180" width="40" height="20" as="geometry" />
        </mxCell>
        <mxCell id="9igGc7xNILyxVrzB3KSH-54" value="&lt;font style=&quot;font-size: 36px&quot;&gt;&lt;b&gt;THex&lt;/b&gt;&lt;/font&gt;" style="text;html=1;align=center;verticalAlign=middle;resizable=0;points=[];autosize=1;strokeColor=none;" vertex="1" parent="9igGc7xNILyxVrzB3KSH-1">
          <mxGeometry x="1200" y="90" width="100" height="30" as="geometry" />
        </mxCell>
        <mxCell id="9igGc7xNILyxVrzB3KSH-55" value="&lt;font style=&quot;font-size: 36px&quot;&gt;&lt;b&gt;TInt&lt;/b&gt;&lt;/font&gt;" style="text;html=1;align=center;verticalAlign=middle;resizable=0;points=[];autosize=1;strokeColor=none;" vertex="1" parent="9igGc7xNILyxVrzB3KSH-1">
          <mxGeometry x="535" y="270" width="80" height="30" as="geometry" />
        </mxCell>
        <mxCell id="9igGc7xNILyxVrzB3KSH-56" value="&lt;span style=&quot;font-size: 36px&quot;&gt;&lt;b&gt;TSymbol&lt;/b&gt;&lt;/span&gt;" style="text;html=1;align=center;verticalAlign=middle;resizable=0;points=[];autosize=1;strokeColor=none;" vertex="1" parent="9igGc7xNILyxVrzB3KSH-1">
          <mxGeometry x="920" y="730" width="170" height="30" as="geometry" />
        </mxCell>
        <mxCell id="9igGc7xNILyxVrzB3KSH-57" value="&lt;font style=&quot;font-size: 36px&quot;&gt;&lt;b&gt;TAddress&lt;/b&gt;&lt;/font&gt;" style="text;html=1;align=center;verticalAlign=middle;resizable=0;points=[];autosize=1;strokeColor=none;" vertex="1" parent="9igGc7xNILyxVrzB3KSH-1">
          <mxGeometry x="875" y="1015" width="180" height="30" as="geometry" />
        </mxCell>
        <mxCell id="9igGc7xNILyxVrzB3KSH-58" value="&lt;font style=&quot;font-size: 36px&quot;&gt;&lt;b&gt;TComment&lt;/b&gt;&lt;/font&gt;" style="text;html=1;align=center;verticalAlign=middle;resizable=0;points=[];autosize=1;strokeColor=none;" vertex="1" parent="9igGc7xNILyxVrzB3KSH-1">
          <mxGeometry x="1080" y="1220" width="200" height="30" as="geometry" />
        </mxCell>
        <mxCell id="9igGc7xNILyxVrzB3KSH-59" value="&lt;font style=&quot;font-size: 36px&quot;&gt;&lt;b&gt;TStringLiteral&lt;/b&gt;&lt;/font&gt;" style="text;html=1;align=center;verticalAlign=middle;resizable=0;points=[];autosize=1;strokeColor=none;" vertex="1" parent="9igGc7xNILyxVrzB3KSH-1">
          <mxGeometry x="1080" y="1380" width="250" height="30" as="geometry" />
        </mxCell>
        <mxCell id="9igGc7xNILyxVrzB3KSH-60" value="&lt;span style=&quot;font-size: 36px&quot;&gt;&lt;b&gt;TIdent&lt;/b&gt;&lt;/span&gt;" style="text;html=1;align=center;verticalAlign=middle;resizable=0;points=[];autosize=1;strokeColor=none;" vertex="1" parent="9igGc7xNILyxVrzB3KSH-1">
          <mxGeometry x="370" y="615" width="120" height="30" as="geometry" />
        </mxCell>
        <mxCell id="9igGc7xNILyxVrzB3KSH-61" value="&lt;font style=&quot;font-size: 24px&quot;&gt;Digit&lt;/font&gt;" style="text;html=1;resizable=0;autosize=1;align=center;verticalAlign=middle;points=[];fillColor=none;strokeColor=none;rounded=0;" vertex="1" parent="9igGc7xNILyxVrzB3KSH-1">
          <mxGeometry x="415" y="200" width="60" height="20" as="geometry" />
        </mxCell>
        <mxCell id="9igGc7xNILyxVrzB3KSH-62" value="" style="edgeStyle=orthogonalEdgeStyle;rounded=0;orthogonalLoop=1;jettySize=auto;html=1;entryX=0.5;entryY=0;entryDx=0;entryDy=0;endArrow=none;" edge="1" parent="9igGc7xNILyxVrzB3KSH-1" source="9igGc7xNILyxVrzB3KSH-7" target="9igGc7xNILyxVrzB3KSH-61">
          <mxGeometry relative="1" as="geometry">
            <mxPoint x="420" y="170" as="sourcePoint" />
            <mxPoint x="420" y="250" as="targetPoint" />
          </mxGeometry>
        </mxCell>
        <mxCell id="9igGc7xNILyxVrzB3KSH-63" value="&lt;font style=&quot;font-size: 24px&quot;&gt;Digit&lt;/font&gt;" style="text;html=1;resizable=0;autosize=1;align=center;verticalAlign=middle;points=[];fillColor=none;strokeColor=none;rounded=0;" vertex="1" parent="9igGc7xNILyxVrzB3KSH-1">
          <mxGeometry x="415" y="360" width="60" height="20" as="geometry" />
        </mxCell>
        <mxCell id="9igGc7xNILyxVrzB3KSH-64" value="" style="edgeStyle=orthogonalEdgeStyle;rounded=0;orthogonalLoop=1;jettySize=auto;html=1;entryX=0.5;entryY=1;entryDx=0;entryDy=0;endArrow=none;" edge="1" parent="9igGc7xNILyxVrzB3KSH-1" source="9igGc7xNILyxVrzB3KSH-10" target="9igGc7xNILyxVrzB3KSH-63">
          <mxGeometry relative="1" as="geometry">
            <mxPoint x="420" y="410" as="sourcePoint" />
            <mxPoint x="420" y="330" as="targetPoint" />
          </mxGeometry>
        </mxCell>
        <mxCell id="9igGc7xNILyxVrzB3KSH-65" value="&lt;font style=&quot;font-size: 24px&quot;&gt;0&lt;/font&gt;" style="text;html=1;resizable=0;autosize=1;align=center;verticalAlign=middle;points=[];fillColor=none;strokeColor=none;rounded=0;" vertex="1" parent="9igGc7xNILyxVrzB3KSH-1">
          <mxGeometry x="295" y="120" width="30" height="20" as="geometry" />
        </mxCell>
        <mxCell id="9igGc7xNILyxVrzB3KSH-66" value="&lt;font style=&quot;font-size: 24px&quot;&gt;Letter&lt;/font&gt;" style="text;html=1;resizable=0;autosize=1;align=center;verticalAlign=middle;points=[];fillColor=none;strokeColor=none;rounded=0;" vertex="1" parent="9igGc7xNILyxVrzB3KSH-1">
          <mxGeometry x="425" y="800" width="80" height="20" as="geometry" />
        </mxCell>
        <mxCell id="9igGc7xNILyxVrzB3KSH-67" value="" style="edgeStyle=orthogonalEdgeStyle;rounded=0;orthogonalLoop=1;jettySize=auto;html=1;endArrow=none;" edge="1" parent="9igGc7xNILyxVrzB3KSH-1" source="9igGc7xNILyxVrzB3KSH-16" target="9igGc7xNILyxVrzB3KSH-66">
          <mxGeometry relative="1" as="geometry">
            <mxPoint x="420" y="850" as="sourcePoint" />
            <mxPoint x="420" y="770" as="targetPoint" />
            <Array as="points" />
          </mxGeometry>
        </mxCell>
        <mxCell id="9igGc7xNILyxVrzB3KSH-68" value="&lt;font style=&quot;font-size: 24px&quot;&gt;:&lt;/font&gt;" style="text;html=1;resizable=0;autosize=1;align=center;verticalAlign=middle;points=[];fillColor=none;strokeColor=none;rounded=0;" vertex="1" parent="9igGc7xNILyxVrzB3KSH-1">
          <mxGeometry x="550" y="720" width="20" height="20" as="geometry" />
        </mxCell>
        <mxCell id="9igGc7xNILyxVrzB3KSH-69" value="" style="edgeStyle=orthogonalEdgeStyle;rounded=0;orthogonalLoop=1;jettySize=auto;html=1;exitX=1;exitY=0.5;exitDx=0;exitDy=0;endArrow=none;" edge="1" parent="9igGc7xNILyxVrzB3KSH-1" source="9igGc7xNILyxVrzB3KSH-12" target="9igGc7xNILyxVrzB3KSH-68">
          <mxGeometry relative="1" as="geometry">
            <mxPoint x="480.0000000000001" y="730" as="sourcePoint" />
            <mxPoint x="640" y="730" as="targetPoint" />
          </mxGeometry>
        </mxCell>
        <mxCell id="9igGc7xNILyxVrzB3KSH-70" value="&lt;font style=&quot;font-size: 24px&quot;&gt;Letter/Digit&lt;/font&gt;" style="text;html=1;resizable=0;autosize=1;align=center;verticalAlign=middle;points=[];fillColor=none;strokeColor=none;rounded=0;" vertex="1" parent="9igGc7xNILyxVrzB3KSH-1">
          <mxGeometry x="735" y="620" width="130" height="20" as="geometry" />
        </mxCell>
        <mxCell id="9igGc7xNILyxVrzB3KSH-71" value="" style="endArrow=none;html=1;entryX=1;entryY=0.5;entryDx=0;entryDy=0;entryPerimeter=0;rounded=0;" edge="1" parent="9igGc7xNILyxVrzB3KSH-1" source="9igGc7xNILyxVrzB3KSH-20" target="9igGc7xNILyxVrzB3KSH-70">
          <mxGeometry width="50" height="50" relative="1" as="geometry">
            <mxPoint x="950" y="710" as="sourcePoint" />
            <mxPoint x="1000" y="660" as="targetPoint" />
            <Array as="points">
              <mxPoint x="890" y="730" />
              <mxPoint x="890" y="630" />
            </Array>
          </mxGeometry>
        </mxCell>
        <mxCell id="9igGc7xNILyxVrzB3KSH-72" value="&lt;span style=&quot;font-size: 24px&quot;&gt;Hexdigit&lt;/span&gt;" style="text;html=1;resizable=0;autosize=1;align=center;verticalAlign=middle;points=[];fillColor=none;strokeColor=none;rounded=0;" vertex="1" parent="9igGc7xNILyxVrzB3KSH-1">
          <mxGeometry x="790" y="120" width="100" height="20" as="geometry" />
        </mxCell>
        <mxCell id="9igGc7xNILyxVrzB3KSH-73" value="" style="edgeStyle=orthogonalEdgeStyle;rounded=0;orthogonalLoop=1;jettySize=auto;html=1;endArrow=none;" edge="1" parent="9igGc7xNILyxVrzB3KSH-1" source="9igGc7xNILyxVrzB3KSH-18" target="9igGc7xNILyxVrzB3KSH-72">
          <mxGeometry relative="1" as="geometry">
            <mxPoint x="760" y="130" as="sourcePoint" />
            <mxPoint x="920" y="130" as="targetPoint" />
          </mxGeometry>
        </mxCell>
        <mxCell id="9igGc7xNILyxVrzB3KSH-74" value="&lt;font style=&quot;font-size: 24px&quot;&gt;Hexdigit&lt;/font&gt;" style="text;html=1;resizable=0;autosize=1;align=center;verticalAlign=middle;points=[];fillColor=none;strokeColor=none;rounded=0;" vertex="1" parent="9igGc7xNILyxVrzB3KSH-1">
          <mxGeometry x="1030" y="40" width="100" height="20" as="geometry" />
        </mxCell>
        <mxCell id="9igGc7xNILyxVrzB3KSH-75" value="" style="endArrow=none;html=1;entryX=1.019;entryY=0.667;entryDx=0;entryDy=0;entryPerimeter=0;rounded=0;" edge="1" parent="9igGc7xNILyxVrzB3KSH-1" target="9igGc7xNILyxVrzB3KSH-74">
          <mxGeometry width="50" height="50" relative="1" as="geometry">
            <mxPoint x="1040" y="130" as="sourcePoint" />
            <mxPoint x="1140" y="110" as="targetPoint" />
            <Array as="points">
              <mxPoint x="1160" y="130" />
              <mxPoint x="1160" y="53" />
            </Array>
          </mxGeometry>
        </mxCell>
        <mxCell id="9igGc7xNILyxVrzB3KSH-76" value="&lt;font style=&quot;font-size: 24px&quot;&gt;xx&lt;/font&gt;" style="text;html=1;resizable=0;autosize=1;align=center;verticalAlign=middle;points=[];fillColor=none;strokeColor=none;rounded=0;" vertex="1" parent="9igGc7xNILyxVrzB3KSH-1">
          <mxGeometry x="540" y="120" width="40" height="20" as="geometry" />
        </mxCell>
        <mxCell id="9igGc7xNILyxVrzB3KSH-77" value="" style="edgeStyle=orthogonalEdgeStyle;rounded=0;orthogonalLoop=1;jettySize=auto;html=1;endArrow=none;" edge="1" parent="9igGc7xNILyxVrzB3KSH-1" source="9igGc7xNILyxVrzB3KSH-7" target="9igGc7xNILyxVrzB3KSH-76">
          <mxGeometry relative="1" as="geometry">
            <mxPoint x="480" y="130" as="sourcePoint" />
            <mxPoint x="640" y="130" as="targetPoint" />
          </mxGeometry>
        </mxCell>
        <mxCell id="9igGc7xNILyxVrzB3KSH-78" value="" style="endArrow=none;html=1;rounded=0;entryX=-0.025;entryY=0.5;entryDx=0;entryDy=0;entryPerimeter=0;" edge="1" parent="9igGc7xNILyxVrzB3KSH-1" target="9igGc7xNILyxVrzB3KSH-65">
          <mxGeometry width="50" height="50" relative="1" as="geometry">
            <mxPoint x="280" y="450" as="sourcePoint" />
            <mxPoint x="620" y="-30" as="targetPoint" />
            <Array as="points">
              <mxPoint x="280" y="130" />
            </Array>
          </mxGeometry>
        </mxCell>
        <mxCell id="9igGc7xNILyxVrzB3KSH-79" value="" style="endArrow=classic;html=1;" edge="1" parent="9igGc7xNILyxVrzB3KSH-1" source="9igGc7xNILyxVrzB3KSH-65" target="9igGc7xNILyxVrzB3KSH-7">
          <mxGeometry width="50" height="50" relative="1" as="geometry">
            <mxPoint x="330" y="120" as="sourcePoint" />
            <mxPoint x="380" y="70" as="targetPoint" />
          </mxGeometry>
        </mxCell>
        <mxCell id="9igGc7xNILyxVrzB3KSH-80" value="&lt;font style=&quot;font-size: 24px&quot;&gt;+/-&lt;/font&gt;" style="text;html=1;resizable=0;autosize=1;align=center;verticalAlign=middle;points=[];fillColor=none;strokeColor=none;rounded=0;" vertex="1" parent="9igGc7xNILyxVrzB3KSH-1">
          <mxGeometry x="320" y="440" width="40" height="20" as="geometry" />
        </mxCell>
        <mxCell id="9igGc7xNILyxVrzB3KSH-81" value="" style="endArrow=none;html=1;entryX=0;entryY=0.5;entryDx=0;entryDy=0;" edge="1" parent="9igGc7xNILyxVrzB3KSH-1" target="9igGc7xNILyxVrzB3KSH-80">
          <mxGeometry width="50" height="50" relative="1" as="geometry">
            <mxPoint x="280" y="450" as="sourcePoint" />
            <mxPoint x="360" y="450" as="targetPoint" />
          </mxGeometry>
        </mxCell>
        <mxCell id="9igGc7xNILyxVrzB3KSH-82" value="&lt;font style=&quot;font-size: 24px&quot;&gt;1..9&lt;/font&gt;" style="text;html=1;resizable=0;autosize=1;align=center;verticalAlign=middle;points=[];fillColor=none;strokeColor=none;rounded=0;" vertex="1" parent="9igGc7xNILyxVrzB3KSH-1">
          <mxGeometry x="300" y="280" width="60" height="20" as="geometry" />
        </mxCell>
        <mxCell id="9igGc7xNILyxVrzB3KSH-83" value="" style="endArrow=none;html=1;entryX=0;entryY=0.5;entryDx=0;entryDy=0;" edge="1" parent="9igGc7xNILyxVrzB3KSH-1" target="9igGc7xNILyxVrzB3KSH-82">
          <mxGeometry width="50" height="50" relative="1" as="geometry">
            <mxPoint x="280" y="289.5" as="sourcePoint" />
            <mxPoint x="360" y="289.5" as="targetPoint" />
          </mxGeometry>
        </mxCell>
        <mxCell id="9igGc7xNILyxVrzB3KSH-84" value="&lt;font style=&quot;font-size: 24px&quot;&gt;.&lt;/font&gt;" style="text;html=1;resizable=0;autosize=1;align=center;verticalAlign=middle;points=[];fillColor=none;strokeColor=none;rounded=0;" vertex="1" parent="9igGc7xNILyxVrzB3KSH-1">
          <mxGeometry x="330" y="880" width="20" height="20" as="geometry" />
        </mxCell>
        <mxCell id="9igGc7xNILyxVrzB3KSH-85" value="" style="endArrow=none;html=1;entryX=0;entryY=0.5;entryDx=0;entryDy=0;" edge="1" parent="9igGc7xNILyxVrzB3KSH-1" target="9igGc7xNILyxVrzB3KSH-84">
          <mxGeometry width="50" height="50" relative="1" as="geometry">
            <mxPoint x="280" y="890.0000000000002" as="sourcePoint" />
            <mxPoint x="360" y="890.0000000000002" as="targetPoint" />
          </mxGeometry>
        </mxCell>
        <mxCell id="9igGc7xNILyxVrzB3KSH-86" value="&lt;font style=&quot;font-size: 24px&quot;&gt;Letter&lt;/font&gt;" style="text;html=1;resizable=0;autosize=1;align=center;verticalAlign=middle;points=[];fillColor=none;strokeColor=none;rounded=0;" vertex="1" parent="9igGc7xNILyxVrzB3KSH-1">
          <mxGeometry x="305" y="720" width="80" height="20" as="geometry" />
        </mxCell>
        <mxCell id="9igGc7xNILyxVrzB3KSH-87" value="" style="endArrow=none;html=1;" edge="1" parent="9igGc7xNILyxVrzB3KSH-1" target="9igGc7xNILyxVrzB3KSH-86">
          <mxGeometry width="50" height="50" relative="1" as="geometry">
            <mxPoint x="280" y="729.71" as="sourcePoint" />
            <mxPoint x="405" y="729.9059459459461" as="targetPoint" />
          </mxGeometry>
        </mxCell>
        <mxCell id="9igGc7xNILyxVrzB3KSH-88" value="&lt;font style=&quot;font-size: 24px&quot;&gt;,&lt;/font&gt;" style="text;html=1;resizable=0;autosize=1;align=center;verticalAlign=middle;points=[];fillColor=none;strokeColor=none;rounded=0;" vertex="1" parent="9igGc7xNILyxVrzB3KSH-1">
          <mxGeometry x="340" y="1040" width="20" height="20" as="geometry" />
        </mxCell>
        <mxCell id="9igGc7xNILyxVrzB3KSH-89" value="" style="endArrow=none;html=1;entryX=0;entryY=0.5;entryDx=0;entryDy=0;" edge="1" parent="9igGc7xNILyxVrzB3KSH-1" target="9igGc7xNILyxVrzB3KSH-88">
          <mxGeometry width="50" height="50" relative="1" as="geometry">
            <mxPoint x="280" y="1049.5" as="sourcePoint" />
            <mxPoint x="410" y="1050" as="targetPoint" />
          </mxGeometry>
        </mxCell>
      </root>
    </mxGraphModel>
  </diagram>
  <diagram id="Ypq1rjrA1peFRGNKabIA" name="Instructions UML">
    <mxGraphModel dx="1416" dy="1299" grid="1" gridSize="10" guides="1" tooltips="1" connect="1" arrows="1" fold="1" page="1" pageScale="1" pageWidth="850" pageHeight="1100" math="0" shadow="0">
      <root>
        <mxCell id="0" />
        <mxCell id="1" parent="0" />
        <mxCell id="r54TK2zgipbRfYalsghI-1" value="ACode" style="swimlane;fontStyle=1;align=center;verticalAlign=top;childLayout=stackLayout;horizontal=1;startSize=26;horizontalStack=0;resizeParent=1;resizeParentMax=0;resizeLast=0;collapsible=1;marginBottom=0;" vertex="1" parent="1">
          <mxGeometry x="240" y="40" width="160" height="120" as="geometry" />
        </mxCell>
        <mxCell id="r54TK2zgipbRfYalsghI-2" value="byteSize: int" style="text;strokeColor=none;fillColor=none;align=left;verticalAlign=top;spacingLeft=4;spacingRight=4;overflow=hidden;rotatable=0;points=[[0,0.5],[1,0.5]];portConstraint=eastwest;" vertex="1" parent="r54TK2zgipbRfYalsghI-1">
          <mxGeometry y="26" width="160" height="26" as="geometry" />
        </mxCell>
        <mxCell id="r54TK2zgipbRfYalsghI-3" value="" style="line;strokeWidth=1;fillColor=none;align=left;verticalAlign=middle;spacingTop=-1;spacingLeft=3;spacingRight=3;rotatable=0;labelPosition=right;points=[];portConstraint=eastwest;" vertex="1" parent="r54TK2zgipbRfYalsghI-1">
          <mxGeometry y="52" width="160" height="8" as="geometry" />
        </mxCell>
        <mxCell id="r54TK2zgipbRfYalsghI-4" value="+ generateCode(): String&#xa;+ generateListing(): String&#xa;+ getByteSize(): int" style="text;strokeColor=none;fillColor=none;align=left;verticalAlign=top;spacingLeft=4;spacingRight=4;overflow=hidden;rotatable=0;points=[[0,0.5],[1,0.5]];portConstraint=eastwest;" vertex="1" parent="r54TK2zgipbRfYalsghI-1">
          <mxGeometry y="60" width="160" height="60" as="geometry" />
        </mxCell>
        <mxCell id="r54TK2zgipbRfYalsghI-5" value="Error" style="swimlane;fontStyle=1;align=center;verticalAlign=top;childLayout=stackLayout;horizontal=1;startSize=26;horizontalStack=0;resizeParent=1;resizeParentMax=0;resizeLast=0;collapsible=1;marginBottom=0;" vertex="1" parent="1">
          <mxGeometry x="40" y="410" width="160" height="86" as="geometry" />
        </mxCell>
        <mxCell id="r54TK2zgipbRfYalsghI-6" value="- errorMessage: String" style="text;strokeColor=none;fillColor=none;align=left;verticalAlign=top;spacingLeft=4;spacingRight=4;overflow=hidden;rotatable=0;points=[[0,0.5],[1,0.5]];portConstraint=eastwest;" vertex="1" parent="r54TK2zgipbRfYalsghI-5">
          <mxGeometry y="26" width="160" height="26" as="geometry" />
        </mxCell>
        <mxCell id="r54TK2zgipbRfYalsghI-7" value="" style="line;strokeWidth=1;fillColor=none;align=left;verticalAlign=middle;spacingTop=-1;spacingLeft=3;spacingRight=3;rotatable=0;labelPosition=right;points=[];portConstraint=eastwest;" vertex="1" parent="r54TK2zgipbRfYalsghI-5">
          <mxGeometry y="52" width="160" height="8" as="geometry" />
        </mxCell>
        <mxCell id="r54TK2zgipbRfYalsghI-8" value="  " style="text;strokeColor=none;fillColor=none;align=left;verticalAlign=top;spacingLeft=4;spacingRight=4;overflow=hidden;rotatable=0;points=[[0,0.5],[1,0.5]];portConstraint=eastwest;" vertex="1" parent="r54TK2zgipbRfYalsghI-5">
          <mxGeometry y="60" width="160" height="26" as="geometry" />
        </mxCell>
        <mxCell id="r54TK2zgipbRfYalsghI-9" value="Extends" style="endArrow=block;endSize=16;endFill=0;html=1;exitX=0.456;exitY=0.023;exitDx=0;exitDy=0;exitPerimeter=0;" edge="1" parent="1" source="r54TK2zgipbRfYalsghI-5" target="r54TK2zgipbRfYalsghI-4">
          <mxGeometry x="-0.7725" width="160" relative="1" as="geometry">
            <mxPoint x="310" y="650" as="sourcePoint" />
            <mxPoint x="470" y="650" as="targetPoint" />
            <Array as="points">
              <mxPoint x="113" y="300" />
              <mxPoint x="320" y="300" />
            </Array>
            <mxPoint as="offset" />
          </mxGeometry>
        </mxCell>
        <mxCell id="r54TK2zgipbRfYalsghI-10" value="Extends" style="endArrow=block;endSize=16;endFill=0;html=1;exitX=0.5;exitY=0;exitDx=0;exitDy=0;" edge="1" parent="1" source="r54TK2zgipbRfYalsghI-11" target="r54TK2zgipbRfYalsghI-4">
          <mxGeometry x="-0.5" width="160" relative="1" as="geometry">
            <mxPoint x="400" y="420" as="sourcePoint" />
            <mxPoint x="330" y="260" as="targetPoint" />
            <Array as="points">
              <mxPoint x="320" y="300" />
            </Array>
            <mxPoint as="offset" />
          </mxGeometry>
        </mxCell>
        <mxCell id="r54TK2zgipbRfYalsghI-11" value="EmptyInstr" style="swimlane;fontStyle=1;align=center;verticalAlign=top;childLayout=stackLayout;horizontal=1;startSize=26;horizontalStack=0;resizeParent=1;resizeParentMax=0;resizeLast=0;collapsible=1;marginBottom=0;" vertex="1" parent="1">
          <mxGeometry x="240" y="410" width="160" height="86" as="geometry" />
        </mxCell>
        <mxCell id="r54TK2zgipbRfYalsghI-12" value=" " style="text;strokeColor=none;fillColor=none;align=left;verticalAlign=top;spacingLeft=4;spacingRight=4;overflow=hidden;rotatable=0;points=[[0,0.5],[1,0.5]];portConstraint=eastwest;" vertex="1" parent="r54TK2zgipbRfYalsghI-11">
          <mxGeometry y="26" width="160" height="26" as="geometry" />
        </mxCell>
        <mxCell id="r54TK2zgipbRfYalsghI-13" value="" style="line;strokeWidth=1;fillColor=none;align=left;verticalAlign=middle;spacingTop=-1;spacingLeft=3;spacingRight=3;rotatable=0;labelPosition=right;points=[];portConstraint=eastwest;" vertex="1" parent="r54TK2zgipbRfYalsghI-11">
          <mxGeometry y="52" width="160" height="8" as="geometry" />
        </mxCell>
        <mxCell id="r54TK2zgipbRfYalsghI-14" value="  " style="text;strokeColor=none;fillColor=none;align=left;verticalAlign=top;spacingLeft=4;spacingRight=4;overflow=hidden;rotatable=0;points=[[0,0.5],[1,0.5]];portConstraint=eastwest;" vertex="1" parent="r54TK2zgipbRfYalsghI-11">
          <mxGeometry y="60" width="160" height="26" as="geometry" />
        </mxCell>
        <mxCell id="r54TK2zgipbRfYalsghI-15" value="Extends" style="endArrow=block;endSize=16;endFill=0;html=1;exitX=0.5;exitY=0;exitDx=0;exitDy=0;" edge="1" parent="1" source="r54TK2zgipbRfYalsghI-16" target="r54TK2zgipbRfYalsghI-4">
          <mxGeometry x="-0.7778" width="160" relative="1" as="geometry">
            <mxPoint x="600" y="420" as="sourcePoint" />
            <mxPoint x="520" y="250" as="targetPoint" />
            <Array as="points">
              <mxPoint x="520" y="300" />
              <mxPoint x="320" y="300" />
            </Array>
            <mxPoint as="offset" />
          </mxGeometry>
        </mxCell>
        <mxCell id="r54TK2zgipbRfYalsghI-16" value="UnaryInstr" style="swimlane;fontStyle=1;align=center;verticalAlign=top;childLayout=stackLayout;horizontal=1;startSize=26;horizontalStack=0;resizeParent=1;resizeParentMax=0;resizeLast=0;collapsible=1;marginBottom=0;" vertex="1" parent="1">
          <mxGeometry x="440" y="410" width="160" height="86" as="geometry" />
        </mxCell>
        <mxCell id="r54TK2zgipbRfYalsghI-17" value="- mnemonic: Mnemon" style="text;strokeColor=none;fillColor=none;align=left;verticalAlign=top;spacingLeft=4;spacingRight=4;overflow=hidden;rotatable=0;points=[[0,0.5],[1,0.5]];portConstraint=eastwest;" vertex="1" parent="r54TK2zgipbRfYalsghI-16">
          <mxGeometry y="26" width="160" height="26" as="geometry" />
        </mxCell>
        <mxCell id="r54TK2zgipbRfYalsghI-18" value="" style="line;strokeWidth=1;fillColor=none;align=left;verticalAlign=middle;spacingTop=-1;spacingLeft=3;spacingRight=3;rotatable=0;labelPosition=right;points=[];portConstraint=eastwest;" vertex="1" parent="r54TK2zgipbRfYalsghI-16">
          <mxGeometry y="52" width="160" height="8" as="geometry" />
        </mxCell>
        <mxCell id="r54TK2zgipbRfYalsghI-19" value="  " style="text;strokeColor=none;fillColor=none;align=left;verticalAlign=top;spacingLeft=4;spacingRight=4;overflow=hidden;rotatable=0;points=[[0,0.5],[1,0.5]];portConstraint=eastwest;" vertex="1" parent="r54TK2zgipbRfYalsghI-16">
          <mxGeometry y="60" width="160" height="26" as="geometry" />
        </mxCell>
        <mxCell id="r54TK2zgipbRfYalsghI-20" value="NonUnaryAddrInstr" style="swimlane;fontStyle=1;align=center;verticalAlign=top;childLayout=stackLayout;horizontal=1;startSize=26;horizontalStack=0;resizeParent=1;resizeParentMax=0;resizeLast=0;collapsible=1;marginBottom=0;" vertex="1" parent="1">
          <mxGeometry x="720" y="401" width="160" height="104" as="geometry" />
        </mxCell>
        <mxCell id="r54TK2zgipbRfYalsghI-21" value="- mnemonic: Mnemon&#xa;- aArg: AArg&#xa;- addr: AddresssMode" style="text;strokeColor=none;fillColor=none;align=left;verticalAlign=top;spacingLeft=4;spacingRight=4;overflow=hidden;rotatable=0;points=[[0,0.5],[1,0.5]];portConstraint=eastwest;" vertex="1" parent="r54TK2zgipbRfYalsghI-20">
          <mxGeometry y="26" width="160" height="44" as="geometry" />
        </mxCell>
        <mxCell id="r54TK2zgipbRfYalsghI-22" value="" style="line;strokeWidth=1;fillColor=none;align=left;verticalAlign=middle;spacingTop=-1;spacingLeft=3;spacingRight=3;rotatable=0;labelPosition=right;points=[];portConstraint=eastwest;" vertex="1" parent="r54TK2zgipbRfYalsghI-20">
          <mxGeometry y="70" width="160" height="8" as="geometry" />
        </mxCell>
        <mxCell id="r54TK2zgipbRfYalsghI-23" value="  " style="text;strokeColor=none;fillColor=none;align=left;verticalAlign=top;spacingLeft=4;spacingRight=4;overflow=hidden;rotatable=0;points=[[0,0.5],[1,0.5]];portConstraint=eastwest;" vertex="1" parent="r54TK2zgipbRfYalsghI-20">
          <mxGeometry y="78" width="160" height="26" as="geometry" />
        </mxCell>
        <mxCell id="r54TK2zgipbRfYalsghI-24" value="Extends" style="endArrow=block;endSize=16;endFill=0;html=1;" edge="1" parent="1" source="r54TK2zgipbRfYalsghI-20" target="r54TK2zgipbRfYalsghI-4">
          <mxGeometry x="-0.8701" width="160" relative="1" as="geometry">
            <mxPoint x="730" y="420" as="sourcePoint" />
            <mxPoint x="330" y="260" as="targetPoint" />
            <Array as="points">
              <mxPoint x="800" y="300" />
              <mxPoint x="320" y="300" />
            </Array>
            <mxPoint as="offset" />
          </mxGeometry>
        </mxCell>
        <mxCell id="r54TK2zgipbRfYalsghI-25" value="DotCommandInstr" style="swimlane;fontStyle=1;align=center;verticalAlign=top;childLayout=stackLayout;horizontal=1;startSize=26;horizontalStack=0;resizeParent=1;resizeParentMax=0;resizeLast=0;collapsible=1;marginBottom=0;" vertex="1" parent="1">
          <mxGeometry x="1040" y="410" width="160" height="86" as="geometry" />
        </mxCell>
        <mxCell id="r54TK2zgipbRfYalsghI-26" value="- mnemonic: Mnemon" style="text;strokeColor=none;fillColor=none;align=left;verticalAlign=top;spacingLeft=4;spacingRight=4;overflow=hidden;rotatable=0;points=[[0,0.5],[1,0.5]];portConstraint=eastwest;" vertex="1" parent="r54TK2zgipbRfYalsghI-25">
          <mxGeometry y="26" width="160" height="26" as="geometry" />
        </mxCell>
        <mxCell id="r54TK2zgipbRfYalsghI-27" value="" style="line;strokeWidth=1;fillColor=none;align=left;verticalAlign=middle;spacingTop=-1;spacingLeft=3;spacingRight=3;rotatable=0;labelPosition=right;points=[];portConstraint=eastwest;" vertex="1" parent="r54TK2zgipbRfYalsghI-25">
          <mxGeometry y="52" width="160" height="8" as="geometry" />
        </mxCell>
        <mxCell id="r54TK2zgipbRfYalsghI-28" value="  " style="text;strokeColor=none;fillColor=none;align=left;verticalAlign=top;spacingLeft=4;spacingRight=4;overflow=hidden;rotatable=0;points=[[0,0.5],[1,0.5]];portConstraint=eastwest;" vertex="1" parent="r54TK2zgipbRfYalsghI-25">
          <mxGeometry y="60" width="160" height="26" as="geometry" />
        </mxCell>
        <mxCell id="r54TK2zgipbRfYalsghI-29" value="Extends" style="endArrow=block;endSize=16;endFill=0;html=1;" edge="1" parent="1" source="r54TK2zgipbRfYalsghI-25" target="r54TK2zgipbRfYalsghI-4">
          <mxGeometry x="-0.8701" width="160" relative="1" as="geometry">
            <mxPoint x="930" y="420" as="sourcePoint" />
            <mxPoint x="520" y="250" as="targetPoint" />
            <Array as="points">
              <mxPoint x="1120" y="300" />
              <mxPoint x="320" y="300" />
            </Array>
            <mxPoint as="offset" />
          </mxGeometry>
        </mxCell>
        <mxCell id="r54TK2zgipbRfYalsghI-30" value="AArg" style="swimlane;fontStyle=1;align=center;verticalAlign=top;childLayout=stackLayout;horizontal=1;startSize=26;horizontalStack=0;resizeParent=1;resizeParentMax=0;resizeLast=0;collapsible=1;marginBottom=0;" vertex="1" parent="1">
          <mxGeometry x="720" y="730" width="160" height="86" as="geometry" />
        </mxCell>
        <mxCell id="r54TK2zgipbRfYalsghI-31" value="+ field: type" style="text;strokeColor=none;fillColor=none;align=left;verticalAlign=top;spacingLeft=4;spacingRight=4;overflow=hidden;rotatable=0;points=[[0,0.5],[1,0.5]];portConstraint=eastwest;" vertex="1" parent="r54TK2zgipbRfYalsghI-30">
          <mxGeometry y="26" width="160" height="26" as="geometry" />
        </mxCell>
        <mxCell id="r54TK2zgipbRfYalsghI-32" value="" style="line;strokeWidth=1;fillColor=none;align=left;verticalAlign=middle;spacingTop=-1;spacingLeft=3;spacingRight=3;rotatable=0;labelPosition=right;points=[];portConstraint=eastwest;" vertex="1" parent="r54TK2zgipbRfYalsghI-30">
          <mxGeometry y="52" width="160" height="8" as="geometry" />
        </mxCell>
        <mxCell id="r54TK2zgipbRfYalsghI-33" value="+ generateListing(): String" style="text;strokeColor=none;fillColor=none;align=left;verticalAlign=top;spacingLeft=4;spacingRight=4;overflow=hidden;rotatable=0;points=[[0,0.5],[1,0.5]];portConstraint=eastwest;" vertex="1" parent="r54TK2zgipbRfYalsghI-30">
          <mxGeometry y="60" width="160" height="26" as="geometry" />
        </mxCell>
        <mxCell id="r54TK2zgipbRfYalsghI-34" value="IdentifierArg" style="swimlane;fontStyle=1;align=center;verticalAlign=top;childLayout=stackLayout;horizontal=1;startSize=26;horizontalStack=0;resizeParent=1;resizeParentMax=0;resizeLast=0;collapsible=1;marginBottom=0;" vertex="1" parent="1">
          <mxGeometry x="520" y="940" width="160" height="100" as="geometry" />
        </mxCell>
        <mxCell id="r54TK2zgipbRfYalsghI-35" value="- stringValue: String" style="text;strokeColor=none;fillColor=none;align=left;verticalAlign=top;spacingLeft=4;spacingRight=4;overflow=hidden;rotatable=0;points=[[0,0.5],[1,0.5]];portConstraint=eastwest;" vertex="1" parent="r54TK2zgipbRfYalsghI-34">
          <mxGeometry y="26" width="160" height="34" as="geometry" />
        </mxCell>
        <mxCell id="r54TK2zgipbRfYalsghI-36" value="" style="line;strokeWidth=1;fillColor=none;align=left;verticalAlign=middle;spacingTop=-1;spacingLeft=3;spacingRight=3;rotatable=0;labelPosition=right;points=[];portConstraint=eastwest;" vertex="1" parent="r54TK2zgipbRfYalsghI-34">
          <mxGeometry y="60" width="160" height="8" as="geometry" />
        </mxCell>
        <mxCell id="r54TK2zgipbRfYalsghI-37" value="+IdentifierArg(str: String)" style="text;strokeColor=none;fillColor=none;align=left;verticalAlign=top;spacingLeft=4;spacingRight=4;overflow=hidden;rotatable=0;points=[[0,0.5],[1,0.5]];portConstraint=eastwest;" vertex="1" parent="r54TK2zgipbRfYalsghI-34">
          <mxGeometry y="68" width="160" height="32" as="geometry" />
        </mxCell>
        <mxCell id="r54TK2zgipbRfYalsghI-38" value="Extends" style="endArrow=block;endSize=16;endFill=0;html=1;" edge="1" parent="1" source="r54TK2zgipbRfYalsghI-34" target="r54TK2zgipbRfYalsghI-33">
          <mxGeometry x="-0.7253" width="160" relative="1" as="geometry">
            <mxPoint x="620" y="920" as="sourcePoint" />
            <mxPoint x="800" y="830" as="targetPoint" />
            <Array as="points">
              <mxPoint x="600" y="860" />
              <mxPoint x="800" y="860" />
            </Array>
            <mxPoint as="offset" />
          </mxGeometry>
        </mxCell>
        <mxCell id="r54TK2zgipbRfYalsghI-39" value="IntArg" style="swimlane;fontStyle=1;align=center;verticalAlign=top;childLayout=stackLayout;horizontal=1;startSize=26;horizontalStack=0;resizeParent=1;resizeParentMax=0;resizeLast=0;collapsible=1;marginBottom=0;" vertex="1" parent="1">
          <mxGeometry x="720" y="940" width="160" height="86" as="geometry" />
        </mxCell>
        <mxCell id="r54TK2zgipbRfYalsghI-40" value="- intValue: int        " style="text;strokeColor=none;fillColor=none;align=left;verticalAlign=top;spacingLeft=4;spacingRight=4;overflow=hidden;rotatable=0;points=[[0,0.5],[1,0.5]];portConstraint=eastwest;" vertex="1" parent="r54TK2zgipbRfYalsghI-39">
          <mxGeometry y="26" width="160" height="26" as="geometry" />
        </mxCell>
        <mxCell id="r54TK2zgipbRfYalsghI-41" value="" style="line;strokeWidth=1;fillColor=none;align=left;verticalAlign=middle;spacingTop=-1;spacingLeft=3;spacingRight=3;rotatable=0;labelPosition=right;points=[];portConstraint=eastwest;" vertex="1" parent="r54TK2zgipbRfYalsghI-39">
          <mxGeometry y="52" width="160" height="8" as="geometry" />
        </mxCell>
        <mxCell id="r54TK2zgipbRfYalsghI-42" value="+ IntArg(i: int)" style="text;strokeColor=none;fillColor=none;align=left;verticalAlign=top;spacingLeft=4;spacingRight=4;overflow=hidden;rotatable=0;points=[[0,0.5],[1,0.5]];portConstraint=eastwest;" vertex="1" parent="r54TK2zgipbRfYalsghI-39">
          <mxGeometry y="60" width="160" height="26" as="geometry" />
        </mxCell>
        <mxCell id="r54TK2zgipbRfYalsghI-43" value="Extends" style="endArrow=block;endSize=16;endFill=0;html=1;" edge="1" parent="1" source="r54TK2zgipbRfYalsghI-39" target="r54TK2zgipbRfYalsghI-33">
          <mxGeometry x="-0.3902" width="160" relative="1" as="geometry">
            <mxPoint x="560" y="970" as="sourcePoint" />
            <mxPoint x="770" y="836" as="targetPoint" />
            <Array as="points">
              <mxPoint x="800" y="860" />
            </Array>
            <mxPoint as="offset" />
          </mxGeometry>
        </mxCell>
        <mxCell id="r54TK2zgipbRfYalsghI-44" value="HexArg" style="swimlane;fontStyle=1;align=center;verticalAlign=top;childLayout=stackLayout;horizontal=1;startSize=26;horizontalStack=0;resizeParent=1;resizeParentMax=0;resizeLast=0;collapsible=1;marginBottom=0;" vertex="1" parent="1">
          <mxGeometry x="920" y="940" width="160" height="108" as="geometry" />
        </mxCell>
        <mxCell id="r54TK2zgipbRfYalsghI-45" value="- intValue: int        &#xa;- hexStr: String" style="text;strokeColor=none;fillColor=none;align=left;verticalAlign=top;spacingLeft=4;spacingRight=4;overflow=hidden;rotatable=0;points=[[0,0.5],[1,0.5]];portConstraint=eastwest;" vertex="1" parent="r54TK2zgipbRfYalsghI-44">
          <mxGeometry y="26" width="160" height="34" as="geometry" />
        </mxCell>
        <mxCell id="r54TK2zgipbRfYalsghI-46" value="" style="line;strokeWidth=1;fillColor=none;align=left;verticalAlign=middle;spacingTop=-1;spacingLeft=3;spacingRight=3;rotatable=0;labelPosition=right;points=[];portConstraint=eastwest;" vertex="1" parent="r54TK2zgipbRfYalsghI-44">
          <mxGeometry y="60" width="160" height="8" as="geometry" />
        </mxCell>
        <mxCell id="r54TK2zgipbRfYalsghI-47" value="+ HexArg(i: int) &#xa;+ HexArg(s: String)" style="text;strokeColor=none;fillColor=none;align=left;verticalAlign=top;spacingLeft=4;spacingRight=4;overflow=hidden;rotatable=0;points=[[0,0.5],[1,0.5]];portConstraint=eastwest;" vertex="1" parent="r54TK2zgipbRfYalsghI-44">
          <mxGeometry y="68" width="160" height="40" as="geometry" />
        </mxCell>
        <mxCell id="r54TK2zgipbRfYalsghI-48" value="Extends" style="endArrow=block;endSize=16;endFill=0;html=1;" edge="1" parent="1" source="r54TK2zgipbRfYalsghI-44" target="r54TK2zgipbRfYalsghI-33">
          <mxGeometry x="-0.7521" width="160" relative="1" as="geometry">
            <mxPoint x="1070" y="954" as="sourcePoint" />
            <mxPoint x="950.3880597014925" y="790" as="targetPoint" />
            <Array as="points">
              <mxPoint x="1000" y="860" />
              <mxPoint x="800" y="860" />
            </Array>
            <mxPoint as="offset" />
          </mxGeometry>
        </mxCell>
        <mxCell id="r54TK2zgipbRfYalsghI-49" value="1" style="endArrow=open;html=1;endSize=12;startArrow=diamondThin;startSize=14;startFill=1;edgeStyle=orthogonalEdgeStyle;align=left;verticalAlign=bottom;entryX=0.5;entryY=0;entryDx=0;entryDy=0;" edge="1" parent="1" source="r54TK2zgipbRfYalsghI-23" target="r54TK2zgipbRfYalsghI-30">
          <mxGeometry x="-1" y="3" relative="1" as="geometry">
            <mxPoint x="500" y="620" as="sourcePoint" />
            <mxPoint x="800" y="710" as="targetPoint" />
            <Array as="points">
              <mxPoint x="800" y="710" />
            </Array>
          </mxGeometry>
        </mxCell>
      </root>
    </mxGraphModel>
  </diagram>
  <diagram name="AToken UML - 001" id="6Q-RGVqSDGVyamL5vcTy">
    <mxGraphModel dx="3258" dy="2208" grid="1" gridSize="10" guides="1" tooltips="1" connect="1" arrows="1" fold="1" page="1" pageScale="1" pageWidth="850" pageHeight="1100" math="0" shadow="0">
      <root>
        <mxCell id="0" />
        <mxCell id="1" parent="0" />
        <mxCell id="onpqcnygxdSsIgm2WQr1-6" value="TInteger" style="swimlane;fontStyle=1;align=center;verticalAlign=top;childLayout=stackLayout;horizontal=1;startSize=26;horizontalStack=0;resizeParent=1;resizeParentMax=0;resizeLast=0;collapsible=1;marginBottom=0;" parent="1" vertex="1">
          <mxGeometry x="480" y="360" width="160" height="100" as="geometry">
            <mxRectangle x="40" y="360" width="80" height="26" as="alternateBounds" />
          </mxGeometry>
        </mxCell>
        <mxCell id="onpqcnygxdSsIgm2WQr1-7" value="- intValue: int" style="text;strokeColor=none;fillColor=none;align=left;verticalAlign=top;spacingLeft=4;spacingRight=4;overflow=hidden;rotatable=0;points=[[0,0.5],[1,0.5]];portConstraint=eastwest;" parent="onpqcnygxdSsIgm2WQr1-6" vertex="1">
          <mxGeometry y="26" width="160" height="26" as="geometry" />
        </mxCell>
        <mxCell id="onpqcnygxdSsIgm2WQr1-8" value="" style="line;strokeWidth=1;fillColor=none;align=left;verticalAlign=middle;spacingTop=-1;spacingLeft=3;spacingRight=3;rotatable=0;labelPosition=right;points=[];portConstraint=eastwest;" parent="onpqcnygxdSsIgm2WQr1-6" vertex="1">
          <mxGeometry y="52" width="160" height="8" as="geometry" />
        </mxCell>
        <mxCell id="onpqcnygxdSsIgm2WQr1-9" value="+ TInteger(i: int)&#xa;+ getIntValue(): int" style="text;strokeColor=none;fillColor=none;align=left;verticalAlign=top;spacingLeft=4;spacingRight=4;overflow=hidden;rotatable=0;points=[[0,0.5],[1,0.5]];portConstraint=eastwest;" parent="onpqcnygxdSsIgm2WQr1-6" vertex="1">
          <mxGeometry y="60" width="160" height="40" as="geometry" />
        </mxCell>
        <mxCell id="onpqcnygxdSsIgm2WQr1-14" value="AToken" style="swimlane;fontStyle=1;align=center;verticalAlign=top;childLayout=stackLayout;horizontal=1;startSize=26;horizontalStack=0;resizeParent=1;resizeParentMax=0;resizeLast=0;collapsible=1;marginBottom=0;" parent="1" vertex="1">
          <mxGeometry x="360" y="40" width="160" height="86" as="geometry" />
        </mxCell>
        <mxCell id="onpqcnygxdSsIgm2WQr1-15" value="  " style="text;strokeColor=none;fillColor=none;align=left;verticalAlign=top;spacingLeft=4;spacingRight=4;overflow=hidden;rotatable=0;points=[[0,0.5],[1,0.5]];portConstraint=eastwest;" parent="onpqcnygxdSsIgm2WQr1-14" vertex="1">
          <mxGeometry y="26" width="160" height="26" as="geometry" />
        </mxCell>
        <mxCell id="onpqcnygxdSsIgm2WQr1-16" value="" style="line;strokeWidth=1;fillColor=none;align=left;verticalAlign=middle;spacingTop=-1;spacingLeft=3;spacingRight=3;rotatable=0;labelPosition=right;points=[];portConstraint=eastwest;" parent="onpqcnygxdSsIgm2WQr1-14" vertex="1">
          <mxGeometry y="52" width="160" height="8" as="geometry" />
        </mxCell>
        <mxCell id="onpqcnygxdSsIgm2WQr1-17" value="+ getDescribtion()" style="text;strokeColor=none;fillColor=none;align=left;verticalAlign=top;spacingLeft=4;spacingRight=4;overflow=hidden;rotatable=0;points=[[0,0.5],[1,0.5]];portConstraint=eastwest;" parent="onpqcnygxdSsIgm2WQr1-14" vertex="1">
          <mxGeometry y="60" width="160" height="26" as="geometry" />
        </mxCell>
        <mxCell id="onpqcnygxdSsIgm2WQr1-29" value="Extends" style="endArrow=block;endSize=16;endFill=0;html=1;exitX=0.5;exitY=0;exitDx=0;exitDy=0;" parent="1" source="onpqcnygxdSsIgm2WQr1-6" target="onpqcnygxdSsIgm2WQr1-17" edge="1">
          <mxGeometry x="-0.7112" width="160" relative="1" as="geometry">
            <mxPoint x="450" y="480" as="sourcePoint" />
            <mxPoint x="443" y="130" as="targetPoint" />
            <Array as="points">
              <mxPoint x="560" y="200" />
              <mxPoint x="440" y="200" />
            </Array>
            <mxPoint as="offset" />
          </mxGeometry>
        </mxCell>
        <mxCell id="onpqcnygxdSsIgm2WQr1-30" value="Extends" style="endArrow=block;endSize=16;endFill=0;html=1;" parent="1" source="onpqcnygxdSsIgm2WQr1-56" target="onpqcnygxdSsIgm2WQr1-17" edge="1">
          <mxGeometry x="-0.8782" width="160" relative="1" as="geometry">
            <mxPoint x="-640" y="360" as="sourcePoint" />
            <mxPoint x="433.68421052631584" y="126" as="targetPoint" />
            <Array as="points">
              <mxPoint x="-620" y="200" />
              <mxPoint x="440" y="200" />
            </Array>
            <mxPoint as="offset" />
          </mxGeometry>
        </mxCell>
        <mxCell id="onpqcnygxdSsIgm2WQr1-31" value="TEmpty" style="swimlane;fontStyle=1;align=center;verticalAlign=top;childLayout=stackLayout;horizontal=1;startSize=26;horizontalStack=0;resizeParent=1;resizeParentMax=0;resizeLast=0;collapsible=1;marginBottom=0;" parent="1" vertex="1">
          <mxGeometry x="-200" y="360" width="160" height="100" as="geometry">
            <mxRectangle x="40" y="360" width="80" height="26" as="alternateBounds" />
          </mxGeometry>
        </mxCell>
        <mxCell id="onpqcnygxdSsIgm2WQr1-32" value=" " style="text;strokeColor=none;fillColor=none;align=left;verticalAlign=top;spacingLeft=4;spacingRight=4;overflow=hidden;rotatable=0;points=[[0,0.5],[1,0.5]];portConstraint=eastwest;" parent="onpqcnygxdSsIgm2WQr1-31" vertex="1">
          <mxGeometry y="26" width="160" height="26" as="geometry" />
        </mxCell>
        <mxCell id="onpqcnygxdSsIgm2WQr1-33" value="" style="line;strokeWidth=1;fillColor=none;align=left;verticalAlign=middle;spacingTop=-1;spacingLeft=3;spacingRight=3;rotatable=0;labelPosition=right;points=[];portConstraint=eastwest;" parent="onpqcnygxdSsIgm2WQr1-31" vertex="1">
          <mxGeometry y="52" width="160" height="8" as="geometry" />
        </mxCell>
        <mxCell id="onpqcnygxdSsIgm2WQr1-34" value="  " style="text;strokeColor=none;fillColor=none;align=left;verticalAlign=top;spacingLeft=4;spacingRight=4;overflow=hidden;rotatable=0;points=[[0,0.5],[1,0.5]];portConstraint=eastwest;" parent="onpqcnygxdSsIgm2WQr1-31" vertex="1">
          <mxGeometry y="60" width="160" height="40" as="geometry" />
        </mxCell>
        <mxCell id="onpqcnygxdSsIgm2WQr1-35" value="Extends" style="endArrow=block;endSize=16;endFill=0;html=1;exitX=0.5;exitY=0;exitDx=0;exitDy=0;" parent="1" source="onpqcnygxdSsIgm2WQr1-31" target="onpqcnygxdSsIgm2WQr1-17" edge="1">
          <mxGeometry x="-0.801" width="160" relative="1" as="geometry">
            <mxPoint x="520" y="360" as="sourcePoint" />
            <mxPoint x="640" y="126" as="targetPoint" />
            <Array as="points">
              <mxPoint x="-120" y="200" />
              <mxPoint x="440" y="200" />
            </Array>
            <mxPoint as="offset" />
          </mxGeometry>
        </mxCell>
        <mxCell id="onpqcnygxdSsIgm2WQr1-36" value="TIdent" style="swimlane;fontStyle=1;align=center;verticalAlign=top;childLayout=stackLayout;horizontal=1;startSize=26;horizontalStack=0;resizeParent=1;resizeParentMax=0;resizeLast=0;collapsible=1;marginBottom=0;" parent="1" vertex="1">
          <mxGeometry x="200" y="360" width="220" height="100" as="geometry">
            <mxRectangle x="40" y="360" width="80" height="26" as="alternateBounds" />
          </mxGeometry>
        </mxCell>
        <mxCell id="onpqcnygxdSsIgm2WQr1-37" value="- stringValue: String" style="text;strokeColor=none;fillColor=none;align=left;verticalAlign=top;spacingLeft=4;spacingRight=4;overflow=hidden;rotatable=0;points=[[0,0.5],[1,0.5]];portConstraint=eastwest;" parent="onpqcnygxdSsIgm2WQr1-36" vertex="1">
          <mxGeometry y="26" width="220" height="26" as="geometry" />
        </mxCell>
        <mxCell id="onpqcnygxdSsIgm2WQr1-38" value="" style="line;strokeWidth=1;fillColor=none;align=left;verticalAlign=middle;spacingTop=-1;spacingLeft=3;spacingRight=3;rotatable=0;labelPosition=right;points=[];portConstraint=eastwest;" parent="onpqcnygxdSsIgm2WQr1-36" vertex="1">
          <mxGeometry y="52" width="220" height="8" as="geometry" />
        </mxCell>
        <mxCell id="onpqcnygxdSsIgm2WQr1-39" value="+ TIdent(instr: String)&#xa;+ getStringValue(): String" style="text;strokeColor=none;fillColor=none;align=left;verticalAlign=top;spacingLeft=4;spacingRight=4;overflow=hidden;rotatable=0;points=[[0,0.5],[1,0.5]];portConstraint=eastwest;" parent="onpqcnygxdSsIgm2WQr1-36" vertex="1">
          <mxGeometry y="60" width="220" height="40" as="geometry" />
        </mxCell>
        <mxCell id="onpqcnygxdSsIgm2WQr1-40" value="Extends" style="endArrow=block;endSize=16;endFill=0;html=1;exitX=0.5;exitY=0;exitDx=0;exitDy=0;" parent="1" source="onpqcnygxdSsIgm2WQr1-36" target="onpqcnygxdSsIgm2WQr1-17" edge="1">
          <mxGeometry x="-0.8037" width="160" relative="1" as="geometry">
            <mxPoint x="-80" y="354" as="sourcePoint" />
            <mxPoint x="40" y="120" as="targetPoint" />
            <Array as="points">
              <mxPoint x="310" y="200" />
              <mxPoint x="440" y="200" />
            </Array>
            <mxPoint as="offset" />
          </mxGeometry>
        </mxCell>
        <mxCell id="onpqcnygxdSsIgm2WQr1-41" value="TInvalid" style="swimlane;fontStyle=1;align=center;verticalAlign=top;childLayout=stackLayout;horizontal=1;startSize=26;horizontalStack=0;resizeParent=1;resizeParentMax=0;resizeLast=0;collapsible=1;marginBottom=0;" parent="1" vertex="1">
          <mxGeometry x="680" y="360" width="160" height="120" as="geometry">
            <mxRectangle x="40" y="360" width="80" height="26" as="alternateBounds" />
          </mxGeometry>
        </mxCell>
        <mxCell id="onpqcnygxdSsIgm2WQr1-42" value="- errorMessage: string" style="text;strokeColor=none;fillColor=none;align=left;verticalAlign=top;spacingLeft=4;spacingRight=4;overflow=hidden;rotatable=0;points=[[0,0.5],[1,0.5]];portConstraint=eastwest;" parent="onpqcnygxdSsIgm2WQr1-41" vertex="1">
          <mxGeometry y="26" width="160" height="26" as="geometry" />
        </mxCell>
        <mxCell id="onpqcnygxdSsIgm2WQr1-43" value="" style="line;strokeWidth=1;fillColor=none;align=left;verticalAlign=middle;spacingTop=-1;spacingLeft=3;spacingRight=3;rotatable=0;labelPosition=right;points=[];portConstraint=eastwest;" parent="onpqcnygxdSsIgm2WQr1-41" vertex="1">
          <mxGeometry y="52" width="160" height="8" as="geometry" />
        </mxCell>
        <mxCell id="onpqcnygxdSsIgm2WQr1-44" value="+ TInvalid(errmsg: String)&#xa;+ getErrorMessage(): String&#xa;" style="text;strokeColor=none;fillColor=none;align=left;verticalAlign=top;spacingLeft=4;spacingRight=4;overflow=hidden;rotatable=0;points=[[0,0.5],[1,0.5]];portConstraint=eastwest;" parent="onpqcnygxdSsIgm2WQr1-41" vertex="1">
          <mxGeometry y="60" width="160" height="60" as="geometry" />
        </mxCell>
        <mxCell id="onpqcnygxdSsIgm2WQr1-45" value="Extends" style="endArrow=block;endSize=16;endFill=0;html=1;exitX=0.5;exitY=0;exitDx=0;exitDy=0;" parent="1" source="onpqcnygxdSsIgm2WQr1-41" target="onpqcnygxdSsIgm2WQr1-17" edge="1">
          <mxGeometry x="-0.8496" width="160" relative="1" as="geometry">
            <mxPoint x="780" y="354" as="sourcePoint" />
            <mxPoint x="700" y="120" as="targetPoint" />
            <Array as="points">
              <mxPoint x="760" y="200" />
              <mxPoint x="440" y="200" />
            </Array>
            <mxPoint as="offset" />
          </mxGeometry>
        </mxCell>
        <mxCell id="onpqcnygxdSsIgm2WQr1-51" value="THex" style="swimlane;fontStyle=1;align=center;verticalAlign=top;childLayout=stackLayout;horizontal=1;startSize=26;horizontalStack=0;resizeParent=1;resizeParentMax=0;resizeLast=0;collapsible=1;marginBottom=0;" parent="1" vertex="1">
          <mxGeometry y="360" width="160" height="140" as="geometry" />
        </mxCell>
        <mxCell id="onpqcnygxdSsIgm2WQr1-52" value="- intValue: int&#xa;- stringValue: String" style="text;strokeColor=none;fillColor=none;align=left;verticalAlign=top;spacingLeft=4;spacingRight=4;overflow=hidden;rotatable=0;points=[[0,0.5],[1,0.5]];portConstraint=eastwest;" parent="onpqcnygxdSsIgm2WQr1-51" vertex="1">
          <mxGeometry y="26" width="160" height="34" as="geometry" />
        </mxCell>
        <mxCell id="onpqcnygxdSsIgm2WQr1-53" value="" style="line;strokeWidth=1;fillColor=none;align=left;verticalAlign=middle;spacingTop=-1;spacingLeft=3;spacingRight=3;rotatable=0;labelPosition=right;points=[];portConstraint=eastwest;" parent="onpqcnygxdSsIgm2WQr1-51" vertex="1">
          <mxGeometry y="60" width="160" height="8" as="geometry" />
        </mxCell>
        <mxCell id="onpqcnygxdSsIgm2WQr1-54" value="+ THex(i : int)&#xa;+ THhex(h: String)&#xa;+ getIntValue() : int&#xa;+ getStringValue(): String&#xa;" style="text;strokeColor=none;fillColor=none;align=left;verticalAlign=top;spacingLeft=4;spacingRight=4;overflow=hidden;rotatable=0;points=[[0,0.5],[1,0.5]];portConstraint=eastwest;" parent="onpqcnygxdSsIgm2WQr1-51" vertex="1">
          <mxGeometry y="68" width="160" height="72" as="geometry" />
        </mxCell>
        <mxCell id="onpqcnygxdSsIgm2WQr1-56" value="TAddress" style="swimlane;fontStyle=1;align=center;verticalAlign=top;childLayout=stackLayout;horizontal=1;startSize=26;horizontalStack=0;resizeParent=1;resizeParentMax=0;resizeLast=0;collapsible=1;marginBottom=0;" parent="1" vertex="1">
          <mxGeometry x="-760" y="360" width="280" height="100" as="geometry">
            <mxRectangle x="40" y="360" width="80" height="26" as="alternateBounds" />
          </mxGeometry>
        </mxCell>
        <mxCell id="onpqcnygxdSsIgm2WQr1-57" value="- stringValue: String" style="text;strokeColor=none;fillColor=none;align=left;verticalAlign=top;spacingLeft=4;spacingRight=4;overflow=hidden;rotatable=0;points=[[0,0.5],[1,0.5]];portConstraint=eastwest;" parent="onpqcnygxdSsIgm2WQr1-56" vertex="1">
          <mxGeometry y="26" width="280" height="26" as="geometry" />
        </mxCell>
        <mxCell id="onpqcnygxdSsIgm2WQr1-58" value="" style="line;strokeWidth=1;fillColor=none;align=left;verticalAlign=middle;spacingTop=-1;spacingLeft=3;spacingRight=3;rotatable=0;labelPosition=right;points=[];portConstraint=eastwest;" parent="onpqcnygxdSsIgm2WQr1-56" vertex="1">
          <mxGeometry y="52" width="280" height="8" as="geometry" />
        </mxCell>
        <mxCell id="onpqcnygxdSsIgm2WQr1-59" value="+ TAddress(addrss: String)&#xa;+ getStringValue(): String" style="text;strokeColor=none;fillColor=none;align=left;verticalAlign=top;spacingLeft=4;spacingRight=4;overflow=hidden;rotatable=0;points=[[0,0.5],[1,0.5]];portConstraint=eastwest;" parent="onpqcnygxdSsIgm2WQr1-56" vertex="1">
          <mxGeometry y="60" width="280" height="40" as="geometry" />
        </mxCell>
        <mxCell id="KIehKJ6DLFjDkGbRngQa-1" value="Extends" style="endArrow=block;endSize=16;endFill=0;html=1;exitX=0.5;exitY=0;exitDx=0;exitDy=0;" parent="1" target="onpqcnygxdSsIgm2WQr1-17" edge="1">
          <mxGeometry x="-0.8037" width="160" relative="1" as="geometry">
            <mxPoint x="80" y="360" as="sourcePoint" />
            <mxPoint x="180" y="126" as="targetPoint" />
            <Array as="points">
              <mxPoint x="80" y="200" />
              <mxPoint x="440" y="200" />
            </Array>
            <mxPoint as="offset" />
          </mxGeometry>
        </mxCell>
        <mxCell id="KIehKJ6DLFjDkGbRngQa-2" value="TSymbol" style="swimlane;fontStyle=1;align=center;verticalAlign=top;childLayout=stackLayout;horizontal=1;startSize=26;horizontalStack=0;resizeParent=1;resizeParentMax=0;resizeLast=0;collapsible=1;marginBottom=0;" parent="1" vertex="1">
          <mxGeometry x="1080" y="360" width="160" height="120" as="geometry">
            <mxRectangle x="40" y="360" width="80" height="26" as="alternateBounds" />
          </mxGeometry>
        </mxCell>
        <mxCell id="KIehKJ6DLFjDkGbRngQa-3" value="- stringValue: String" style="text;strokeColor=none;fillColor=none;align=left;verticalAlign=top;spacingLeft=4;spacingRight=4;overflow=hidden;rotatable=0;points=[[0,0.5],[1,0.5]];portConstraint=eastwest;" parent="KIehKJ6DLFjDkGbRngQa-2" vertex="1">
          <mxGeometry y="26" width="160" height="26" as="geometry" />
        </mxCell>
        <mxCell id="KIehKJ6DLFjDkGbRngQa-4" value="" style="line;strokeWidth=1;fillColor=none;align=left;verticalAlign=middle;spacingTop=-1;spacingLeft=3;spacingRight=3;rotatable=0;labelPosition=right;points=[];portConstraint=eastwest;" parent="KIehKJ6DLFjDkGbRngQa-2" vertex="1">
          <mxGeometry y="52" width="160" height="8" as="geometry" />
        </mxCell>
        <mxCell id="KIehKJ6DLFjDkGbRngQa-5" value="+ TSymbol(symbol: String)&#xa;+ getStringValue(): String&#xa;" style="text;strokeColor=none;fillColor=none;align=left;verticalAlign=top;spacingLeft=4;spacingRight=4;overflow=hidden;rotatable=0;points=[[0,0.5],[1,0.5]];portConstraint=eastwest;" parent="KIehKJ6DLFjDkGbRngQa-2" vertex="1">
          <mxGeometry y="60" width="160" height="60" as="geometry" />
        </mxCell>
        <mxCell id="KIehKJ6DLFjDkGbRngQa-6" value="Extends" style="endArrow=block;endSize=16;endFill=0;html=1;exitX=0.5;exitY=0;exitDx=0;exitDy=0;" parent="1" source="KIehKJ6DLFjDkGbRngQa-2" target="onpqcnygxdSsIgm2WQr1-17" edge="1">
          <mxGeometry x="-0.8496" width="160" relative="1" as="geometry">
            <mxPoint x="990" y="354" as="sourcePoint" />
            <mxPoint x="650" y="126" as="targetPoint" />
            <Array as="points">
              <mxPoint x="1160" y="200" />
              <mxPoint x="440" y="200" />
            </Array>
            <mxPoint as="offset" />
          </mxGeometry>
        </mxCell>
        <mxCell id="KIehKJ6DLFjDkGbRngQa-8" value="TComment" style="swimlane;fontStyle=1;align=center;verticalAlign=top;childLayout=stackLayout;horizontal=1;startSize=26;horizontalStack=0;resizeParent=1;resizeParentMax=0;resizeLast=0;collapsible=1;marginBottom=0;" parent="1" vertex="1">
          <mxGeometry x="-440" y="360" width="200" height="120" as="geometry">
            <mxRectangle x="40" y="360" width="80" height="26" as="alternateBounds" />
          </mxGeometry>
        </mxCell>
        <mxCell id="KIehKJ6DLFjDkGbRngQa-9" value="- stringValue: String" style="text;strokeColor=none;fillColor=none;align=left;verticalAlign=top;spacingLeft=4;spacingRight=4;overflow=hidden;rotatable=0;points=[[0,0.5],[1,0.5]];portConstraint=eastwest;" parent="KIehKJ6DLFjDkGbRngQa-8" vertex="1">
          <mxGeometry y="26" width="200" height="26" as="geometry" />
        </mxCell>
        <mxCell id="KIehKJ6DLFjDkGbRngQa-10" value="" style="line;strokeWidth=1;fillColor=none;align=left;verticalAlign=middle;spacingTop=-1;spacingLeft=3;spacingRight=3;rotatable=0;labelPosition=right;points=[];portConstraint=eastwest;" parent="KIehKJ6DLFjDkGbRngQa-8" vertex="1">
          <mxGeometry y="52" width="200" height="8" as="geometry" />
        </mxCell>
        <mxCell id="KIehKJ6DLFjDkGbRngQa-11" value="+ TComment(cmnt: String)&#xa;+ getStringValue(): String&#xa;" style="text;strokeColor=none;fillColor=none;align=left;verticalAlign=top;spacingLeft=4;spacingRight=4;overflow=hidden;rotatable=0;points=[[0,0.5],[1,0.5]];portConstraint=eastwest;" parent="KIehKJ6DLFjDkGbRngQa-8" vertex="1">
          <mxGeometry y="60" width="200" height="60" as="geometry" />
        </mxCell>
        <mxCell id="KIehKJ6DLFjDkGbRngQa-12" value="Extends" style="endArrow=block;endSize=16;endFill=0;html=1;" parent="1" source="KIehKJ6DLFjDkGbRngQa-8" target="onpqcnygxdSsIgm2WQr1-17" edge="1">
          <mxGeometry x="-0.8782" width="160" relative="1" as="geometry">
            <mxPoint x="-930" y="370" as="sourcePoint" />
            <mxPoint x="470" y="140" as="targetPoint" />
            <Array as="points">
              <mxPoint x="-340" y="200" />
              <mxPoint x="440" y="200" />
            </Array>
            <mxPoint as="offset" />
          </mxGeometry>
        </mxCell>
        <mxCell id="KIehKJ6DLFjDkGbRngQa-13" value="TStringLiteral" style="swimlane;fontStyle=1;align=center;verticalAlign=top;childLayout=stackLayout;horizontal=1;startSize=26;horizontalStack=0;resizeParent=1;resizeParentMax=0;resizeLast=0;collapsible=1;marginBottom=0;" parent="1" vertex="1">
          <mxGeometry x="880" y="360" width="160" height="120" as="geometry">
            <mxRectangle x="40" y="360" width="80" height="26" as="alternateBounds" />
          </mxGeometry>
        </mxCell>
        <mxCell id="KIehKJ6DLFjDkGbRngQa-14" value="- stringValue: String" style="text;strokeColor=none;fillColor=none;align=left;verticalAlign=top;spacingLeft=4;spacingRight=4;overflow=hidden;rotatable=0;points=[[0,0.5],[1,0.5]];portConstraint=eastwest;" parent="KIehKJ6DLFjDkGbRngQa-13" vertex="1">
          <mxGeometry y="26" width="160" height="26" as="geometry" />
        </mxCell>
        <mxCell id="KIehKJ6DLFjDkGbRngQa-15" value="" style="line;strokeWidth=1;fillColor=none;align=left;verticalAlign=middle;spacingTop=-1;spacingLeft=3;spacingRight=3;rotatable=0;labelPosition=right;points=[];portConstraint=eastwest;" parent="KIehKJ6DLFjDkGbRngQa-13" vertex="1">
          <mxGeometry y="52" width="160" height="8" as="geometry" />
        </mxCell>
        <mxCell id="KIehKJ6DLFjDkGbRngQa-16" value="+ TStringLiteral(str: String)&#xa;+ getStringValue(): String&#xa;" style="text;strokeColor=none;fillColor=none;align=left;verticalAlign=top;spacingLeft=4;spacingRight=4;overflow=hidden;rotatable=0;points=[[0,0.5],[1,0.5]];portConstraint=eastwest;" parent="KIehKJ6DLFjDkGbRngQa-13" vertex="1">
          <mxGeometry y="60" width="160" height="60" as="geometry" />
        </mxCell>
        <mxCell id="KIehKJ6DLFjDkGbRngQa-17" value="Extends" style="endArrow=block;endSize=16;endFill=0;html=1;exitX=0.5;exitY=0;exitDx=0;exitDy=0;" parent="1" source="KIehKJ6DLFjDkGbRngQa-13" target="onpqcnygxdSsIgm2WQr1-17" edge="1">
          <mxGeometry x="-0.8496" width="160" relative="1" as="geometry">
            <mxPoint x="1170" y="370" as="sourcePoint" />
            <mxPoint x="450" y="136" as="targetPoint" />
            <Array as="points">
              <mxPoint x="960" y="200" />
              <mxPoint x="440" y="200" />
            </Array>
            <mxPoint as="offset" />
          </mxGeometry>
        </mxCell>
      </root>
    </mxGraphModel>
  </diagram>
  <diagram name="Copy of AToken UML - 001" id="k0tCqZHdPlN5HMsD_UIt">
    <mxGraphModel dx="2570" dy="1577" grid="1" gridSize="10" guides="1" tooltips="1" connect="1" arrows="1" fold="1" page="1" pageScale="1" pageWidth="850" pageHeight="1100" math="0" shadow="0">
      <root>
        <mxCell id="vXnV-pwzw2AVVzY67xEj-0" />
        <mxCell id="vXnV-pwzw2AVVzY67xEj-1" parent="vXnV-pwzw2AVVzY67xEj-0" />
        <mxCell id="vXnV-pwzw2AVVzY67xEj-2" value="TInteger" style="swimlane;fontStyle=1;align=center;verticalAlign=top;childLayout=stackLayout;horizontal=1;startSize=26;horizontalStack=0;resizeParent=1;resizeParentMax=0;resizeLast=0;collapsible=1;marginBottom=0;" vertex="1" parent="vXnV-pwzw2AVVzY67xEj-1">
          <mxGeometry x="880" y="630" width="160" height="100" as="geometry">
            <mxRectangle x="40" y="360" width="80" height="26" as="alternateBounds" />
          </mxGeometry>
        </mxCell>
        <mxCell id="vXnV-pwzw2AVVzY67xEj-3" value="- intValue: int" style="text;strokeColor=none;fillColor=none;align=left;verticalAlign=top;spacingLeft=4;spacingRight=4;overflow=hidden;rotatable=0;points=[[0,0.5],[1,0.5]];portConstraint=eastwest;" vertex="1" parent="vXnV-pwzw2AVVzY67xEj-2">
          <mxGeometry y="26" width="160" height="26" as="geometry" />
        </mxCell>
        <mxCell id="vXnV-pwzw2AVVzY67xEj-4" value="" style="line;strokeWidth=1;fillColor=none;align=left;verticalAlign=middle;spacingTop=-1;spacingLeft=3;spacingRight=3;rotatable=0;labelPosition=right;points=[];portConstraint=eastwest;" vertex="1" parent="vXnV-pwzw2AVVzY67xEj-2">
          <mxGeometry y="52" width="160" height="8" as="geometry" />
        </mxCell>
        <mxCell id="vXnV-pwzw2AVVzY67xEj-5" value="+ TInteger(i: int)" style="text;strokeColor=none;fillColor=none;align=left;verticalAlign=top;spacingLeft=4;spacingRight=4;overflow=hidden;rotatable=0;points=[[0,0.5],[1,0.5]];portConstraint=eastwest;" vertex="1" parent="vXnV-pwzw2AVVzY67xEj-2">
          <mxGeometry y="60" width="160" height="40" as="geometry" />
        </mxCell>
        <mxCell id="vXnV-pwzw2AVVzY67xEj-6" value="AToken" style="swimlane;fontStyle=1;align=center;verticalAlign=top;childLayout=stackLayout;horizontal=1;startSize=26;horizontalStack=0;resizeParent=1;resizeParentMax=0;resizeLast=0;collapsible=1;marginBottom=0;" vertex="1" parent="vXnV-pwzw2AVVzY67xEj-1">
          <mxGeometry x="760" y="80" width="160" height="86" as="geometry" />
        </mxCell>
        <mxCell id="vXnV-pwzw2AVVzY67xEj-7" value="  " style="text;strokeColor=none;fillColor=none;align=left;verticalAlign=top;spacingLeft=4;spacingRight=4;overflow=hidden;rotatable=0;points=[[0,0.5],[1,0.5]];portConstraint=eastwest;" vertex="1" parent="vXnV-pwzw2AVVzY67xEj-6">
          <mxGeometry y="26" width="160" height="26" as="geometry" />
        </mxCell>
        <mxCell id="vXnV-pwzw2AVVzY67xEj-8" value="" style="line;strokeWidth=1;fillColor=none;align=left;verticalAlign=middle;spacingTop=-1;spacingLeft=3;spacingRight=3;rotatable=0;labelPosition=right;points=[];portConstraint=eastwest;" vertex="1" parent="vXnV-pwzw2AVVzY67xEj-6">
          <mxGeometry y="52" width="160" height="8" as="geometry" />
        </mxCell>
        <mxCell id="vXnV-pwzw2AVVzY67xEj-9" value="+ getDescribtion()" style="text;strokeColor=none;fillColor=none;align=left;verticalAlign=top;spacingLeft=4;spacingRight=4;overflow=hidden;rotatable=0;points=[[0,0.5],[1,0.5]];portConstraint=eastwest;" vertex="1" parent="vXnV-pwzw2AVVzY67xEj-6">
          <mxGeometry y="60" width="160" height="26" as="geometry" />
        </mxCell>
        <mxCell id="vXnV-pwzw2AVVzY67xEj-10" value="Extends" style="endArrow=block;endSize=16;endFill=0;html=1;exitX=0.5;exitY=0;exitDx=0;exitDy=0;" edge="1" parent="vXnV-pwzw2AVVzY67xEj-1" source="vXnV-pwzw2AVVzY67xEj-2" target="vXnV-pwzw2AVVzY67xEj-9">
          <mxGeometry x="-0.7112" width="160" relative="1" as="geometry">
            <mxPoint x="850" y="520" as="sourcePoint" />
            <mxPoint x="843" y="170" as="targetPoint" />
            <Array as="points">
              <mxPoint x="960" y="240" />
              <mxPoint x="840" y="240" />
            </Array>
            <mxPoint as="offset" />
          </mxGeometry>
        </mxCell>
        <mxCell id="vXnV-pwzw2AVVzY67xEj-11" value="Extends" style="endArrow=block;endSize=16;endFill=0;html=1;" edge="1" parent="vXnV-pwzw2AVVzY67xEj-1" source="vXnV-pwzw2AVVzY67xEj-31" target="vXnV-pwzw2AVVzY67xEj-9">
          <mxGeometry x="-0.8782" width="160" relative="1" as="geometry">
            <mxPoint x="-240" y="400" as="sourcePoint" />
            <mxPoint x="833.6842105263158" y="166" as="targetPoint" />
            <Array as="points">
              <mxPoint x="-220" y="240" />
              <mxPoint x="840" y="240" />
            </Array>
            <mxPoint as="offset" />
          </mxGeometry>
        </mxCell>
        <mxCell id="vXnV-pwzw2AVVzY67xEj-12" value="TEmpty" style="swimlane;fontStyle=1;align=center;verticalAlign=top;childLayout=stackLayout;horizontal=1;startSize=26;horizontalStack=0;resizeParent=1;resizeParentMax=0;resizeLast=0;collapsible=1;marginBottom=0;" vertex="1" parent="vXnV-pwzw2AVVzY67xEj-1">
          <mxGeometry x="200" y="610" width="160" height="100" as="geometry">
            <mxRectangle x="40" y="360" width="80" height="26" as="alternateBounds" />
          </mxGeometry>
        </mxCell>
        <mxCell id="vXnV-pwzw2AVVzY67xEj-13" value=" " style="text;strokeColor=none;fillColor=none;align=left;verticalAlign=top;spacingLeft=4;spacingRight=4;overflow=hidden;rotatable=0;points=[[0,0.5],[1,0.5]];portConstraint=eastwest;" vertex="1" parent="vXnV-pwzw2AVVzY67xEj-12">
          <mxGeometry y="26" width="160" height="26" as="geometry" />
        </mxCell>
        <mxCell id="vXnV-pwzw2AVVzY67xEj-14" value="" style="line;strokeWidth=1;fillColor=none;align=left;verticalAlign=middle;spacingTop=-1;spacingLeft=3;spacingRight=3;rotatable=0;labelPosition=right;points=[];portConstraint=eastwest;" vertex="1" parent="vXnV-pwzw2AVVzY67xEj-12">
          <mxGeometry y="52" width="160" height="8" as="geometry" />
        </mxCell>
        <mxCell id="vXnV-pwzw2AVVzY67xEj-15" value="  " style="text;strokeColor=none;fillColor=none;align=left;verticalAlign=top;spacingLeft=4;spacingRight=4;overflow=hidden;rotatable=0;points=[[0,0.5],[1,0.5]];portConstraint=eastwest;" vertex="1" parent="vXnV-pwzw2AVVzY67xEj-12">
          <mxGeometry y="60" width="160" height="40" as="geometry" />
        </mxCell>
        <mxCell id="vXnV-pwzw2AVVzY67xEj-16" value="Extends" style="endArrow=block;endSize=16;endFill=0;html=1;exitX=0.5;exitY=0;exitDx=0;exitDy=0;" edge="1" parent="vXnV-pwzw2AVVzY67xEj-1" source="vXnV-pwzw2AVVzY67xEj-12" target="vXnV-pwzw2AVVzY67xEj-9">
          <mxGeometry x="-0.801" width="160" relative="1" as="geometry">
            <mxPoint x="920" y="400" as="sourcePoint" />
            <mxPoint x="1040" y="166" as="targetPoint" />
            <Array as="points">
              <mxPoint x="280" y="240" />
              <mxPoint x="840" y="240" />
            </Array>
            <mxPoint as="offset" />
          </mxGeometry>
        </mxCell>
        <mxCell id="vXnV-pwzw2AVVzY67xEj-17" value="TIdent" style="swimlane;fontStyle=1;align=center;verticalAlign=top;childLayout=stackLayout;horizontal=1;startSize=26;horizontalStack=0;resizeParent=1;resizeParentMax=0;resizeLast=0;collapsible=1;marginBottom=0;" vertex="1" parent="vXnV-pwzw2AVVzY67xEj-1">
          <mxGeometry x="600" y="610" width="220" height="100" as="geometry">
            <mxRectangle x="40" y="360" width="80" height="26" as="alternateBounds" />
          </mxGeometry>
        </mxCell>
        <mxCell id="vXnV-pwzw2AVVzY67xEj-18" value="indentifier: String" style="text;strokeColor=none;fillColor=none;align=left;verticalAlign=top;spacingLeft=4;spacingRight=4;overflow=hidden;rotatable=0;points=[[0,0.5],[1,0.5]];portConstraint=eastwest;" vertex="1" parent="vXnV-pwzw2AVVzY67xEj-17">
          <mxGeometry y="26" width="220" height="26" as="geometry" />
        </mxCell>
        <mxCell id="vXnV-pwzw2AVVzY67xEj-19" value="" style="line;strokeWidth=1;fillColor=none;align=left;verticalAlign=middle;spacingTop=-1;spacingLeft=3;spacingRight=3;rotatable=0;labelPosition=right;points=[];portConstraint=eastwest;" vertex="1" parent="vXnV-pwzw2AVVzY67xEj-17">
          <mxGeometry y="52" width="220" height="8" as="geometry" />
        </mxCell>
        <mxCell id="vXnV-pwzw2AVVzY67xEj-20" value="+ TIdent(instr: String)" style="text;strokeColor=none;fillColor=none;align=left;verticalAlign=top;spacingLeft=4;spacingRight=4;overflow=hidden;rotatable=0;points=[[0,0.5],[1,0.5]];portConstraint=eastwest;" vertex="1" parent="vXnV-pwzw2AVVzY67xEj-17">
          <mxGeometry y="60" width="220" height="40" as="geometry" />
        </mxCell>
        <mxCell id="vXnV-pwzw2AVVzY67xEj-21" value="Extends" style="endArrow=block;endSize=16;endFill=0;html=1;exitX=0.5;exitY=0;exitDx=0;exitDy=0;" edge="1" parent="vXnV-pwzw2AVVzY67xEj-1" source="vXnV-pwzw2AVVzY67xEj-17" target="vXnV-pwzw2AVVzY67xEj-9">
          <mxGeometry x="-0.8037" width="160" relative="1" as="geometry">
            <mxPoint x="320" y="394" as="sourcePoint" />
            <mxPoint x="440" y="160" as="targetPoint" />
            <Array as="points">
              <mxPoint x="710" y="240" />
              <mxPoint x="840" y="240" />
            </Array>
            <mxPoint as="offset" />
          </mxGeometry>
        </mxCell>
        <mxCell id="vXnV-pwzw2AVVzY67xEj-22" value="TInvalid" style="swimlane;fontStyle=1;align=center;verticalAlign=top;childLayout=stackLayout;horizontal=1;startSize=26;horizontalStack=0;resizeParent=1;resizeParentMax=0;resizeLast=0;collapsible=1;marginBottom=0;" vertex="1" parent="vXnV-pwzw2AVVzY67xEj-1">
          <mxGeometry x="1080" y="610" width="160" height="120" as="geometry">
            <mxRectangle x="40" y="360" width="80" height="26" as="alternateBounds" />
          </mxGeometry>
        </mxCell>
        <mxCell id="vXnV-pwzw2AVVzY67xEj-23" value="- errorMessage: string" style="text;strokeColor=none;fillColor=none;align=left;verticalAlign=top;spacingLeft=4;spacingRight=4;overflow=hidden;rotatable=0;points=[[0,0.5],[1,0.5]];portConstraint=eastwest;" vertex="1" parent="vXnV-pwzw2AVVzY67xEj-22">
          <mxGeometry y="26" width="160" height="26" as="geometry" />
        </mxCell>
        <mxCell id="vXnV-pwzw2AVVzY67xEj-24" value="" style="line;strokeWidth=1;fillColor=none;align=left;verticalAlign=middle;spacingTop=-1;spacingLeft=3;spacingRight=3;rotatable=0;labelPosition=right;points=[];portConstraint=eastwest;" vertex="1" parent="vXnV-pwzw2AVVzY67xEj-22">
          <mxGeometry y="52" width="160" height="8" as="geometry" />
        </mxCell>
        <mxCell id="vXnV-pwzw2AVVzY67xEj-25" value="+ TInvalid(errmsg: String)" style="text;strokeColor=none;fillColor=none;align=left;verticalAlign=top;spacingLeft=4;spacingRight=4;overflow=hidden;rotatable=0;points=[[0,0.5],[1,0.5]];portConstraint=eastwest;" vertex="1" parent="vXnV-pwzw2AVVzY67xEj-22">
          <mxGeometry y="60" width="160" height="60" as="geometry" />
        </mxCell>
        <mxCell id="vXnV-pwzw2AVVzY67xEj-26" value="Extends" style="endArrow=block;endSize=16;endFill=0;html=1;exitX=0.5;exitY=0;exitDx=0;exitDy=0;" edge="1" parent="vXnV-pwzw2AVVzY67xEj-1" source="vXnV-pwzw2AVVzY67xEj-22" target="vXnV-pwzw2AVVzY67xEj-9">
          <mxGeometry x="-0.8496" width="160" relative="1" as="geometry">
            <mxPoint x="1180" y="394" as="sourcePoint" />
            <mxPoint x="1100" y="160" as="targetPoint" />
            <Array as="points">
              <mxPoint x="1160" y="240" />
              <mxPoint x="840" y="240" />
            </Array>
            <mxPoint as="offset" />
          </mxGeometry>
        </mxCell>
        <mxCell id="vXnV-pwzw2AVVzY67xEj-27" value="THex" style="swimlane;fontStyle=1;align=center;verticalAlign=top;childLayout=stackLayout;horizontal=1;startSize=26;horizontalStack=0;resizeParent=1;resizeParentMax=0;resizeLast=0;collapsible=1;marginBottom=0;" vertex="1" parent="vXnV-pwzw2AVVzY67xEj-1">
          <mxGeometry x="400" y="610" width="160" height="140" as="geometry" />
        </mxCell>
        <mxCell id="vXnV-pwzw2AVVzY67xEj-28" value="hexValue: int&#xa;hexCode: String" style="text;strokeColor=none;fillColor=none;align=left;verticalAlign=top;spacingLeft=4;spacingRight=4;overflow=hidden;rotatable=0;points=[[0,0.5],[1,0.5]];portConstraint=eastwest;" vertex="1" parent="vXnV-pwzw2AVVzY67xEj-27">
          <mxGeometry y="26" width="160" height="34" as="geometry" />
        </mxCell>
        <mxCell id="vXnV-pwzw2AVVzY67xEj-29" value="" style="line;strokeWidth=1;fillColor=none;align=left;verticalAlign=middle;spacingTop=-1;spacingLeft=3;spacingRight=3;rotatable=0;labelPosition=right;points=[];portConstraint=eastwest;" vertex="1" parent="vXnV-pwzw2AVVzY67xEj-27">
          <mxGeometry y="60" width="160" height="8" as="geometry" />
        </mxCell>
        <mxCell id="vXnV-pwzw2AVVzY67xEj-30" value="+ THex(i : int)&#xa;+ THhex(h: String)" style="text;strokeColor=none;fillColor=none;align=left;verticalAlign=top;spacingLeft=4;spacingRight=4;overflow=hidden;rotatable=0;points=[[0,0.5],[1,0.5]];portConstraint=eastwest;" vertex="1" parent="vXnV-pwzw2AVVzY67xEj-27">
          <mxGeometry y="68" width="160" height="72" as="geometry" />
        </mxCell>
        <mxCell id="vXnV-pwzw2AVVzY67xEj-31" value="TAddress" style="swimlane;fontStyle=1;align=center;verticalAlign=top;childLayout=stackLayout;horizontal=1;startSize=26;horizontalStack=0;resizeParent=1;resizeParentMax=0;resizeLast=0;collapsible=1;marginBottom=0;" vertex="1" parent="vXnV-pwzw2AVVzY67xEj-1">
          <mxGeometry x="-360" y="610" width="280" height="100" as="geometry">
            <mxRectangle x="40" y="360" width="80" height="26" as="alternateBounds" />
          </mxGeometry>
        </mxCell>
        <mxCell id="vXnV-pwzw2AVVzY67xEj-32" value="- address: String" style="text;strokeColor=none;fillColor=none;align=left;verticalAlign=top;spacingLeft=4;spacingRight=4;overflow=hidden;rotatable=0;points=[[0,0.5],[1,0.5]];portConstraint=eastwest;" vertex="1" parent="vXnV-pwzw2AVVzY67xEj-31">
          <mxGeometry y="26" width="280" height="26" as="geometry" />
        </mxCell>
        <mxCell id="vXnV-pwzw2AVVzY67xEj-33" value="" style="line;strokeWidth=1;fillColor=none;align=left;verticalAlign=middle;spacingTop=-1;spacingLeft=3;spacingRight=3;rotatable=0;labelPosition=right;points=[];portConstraint=eastwest;" vertex="1" parent="vXnV-pwzw2AVVzY67xEj-31">
          <mxGeometry y="52" width="280" height="8" as="geometry" />
        </mxCell>
        <mxCell id="vXnV-pwzw2AVVzY67xEj-34" value="+ TAddress(addrss: String)" style="text;strokeColor=none;fillColor=none;align=left;verticalAlign=top;spacingLeft=4;spacingRight=4;overflow=hidden;rotatable=0;points=[[0,0.5],[1,0.5]];portConstraint=eastwest;" vertex="1" parent="vXnV-pwzw2AVVzY67xEj-31">
          <mxGeometry y="60" width="280" height="40" as="geometry" />
        </mxCell>
        <mxCell id="vXnV-pwzw2AVVzY67xEj-35" value="Extends" style="endArrow=block;endSize=16;endFill=0;html=1;exitX=0.5;exitY=0;exitDx=0;exitDy=0;" edge="1" parent="vXnV-pwzw2AVVzY67xEj-1" target="vXnV-pwzw2AVVzY67xEj-9" source="vXnV-pwzw2AVVzY67xEj-27">
          <mxGeometry x="-0.8037" width="160" relative="1" as="geometry">
            <mxPoint x="470" y="620" as="sourcePoint" />
            <mxPoint x="580" y="166" as="targetPoint" />
            <Array as="points">
              <mxPoint x="480" y="240" />
              <mxPoint x="840" y="240" />
            </Array>
            <mxPoint as="offset" />
          </mxGeometry>
        </mxCell>
        <mxCell id="vXnV-pwzw2AVVzY67xEj-36" value="TSymbol" style="swimlane;fontStyle=1;align=center;verticalAlign=top;childLayout=stackLayout;horizontal=1;startSize=26;horizontalStack=0;resizeParent=1;resizeParentMax=0;resizeLast=0;collapsible=1;marginBottom=0;" vertex="1" parent="vXnV-pwzw2AVVzY67xEj-1">
          <mxGeometry x="1480" y="610" width="160" height="120" as="geometry">
            <mxRectangle x="40" y="360" width="80" height="26" as="alternateBounds" />
          </mxGeometry>
        </mxCell>
        <mxCell id="vXnV-pwzw2AVVzY67xEj-37" value="symbol: String" style="text;strokeColor=none;fillColor=none;align=left;verticalAlign=top;spacingLeft=4;spacingRight=4;overflow=hidden;rotatable=0;points=[[0,0.5],[1,0.5]];portConstraint=eastwest;" vertex="1" parent="vXnV-pwzw2AVVzY67xEj-36">
          <mxGeometry y="26" width="160" height="26" as="geometry" />
        </mxCell>
        <mxCell id="vXnV-pwzw2AVVzY67xEj-38" value="" style="line;strokeWidth=1;fillColor=none;align=left;verticalAlign=middle;spacingTop=-1;spacingLeft=3;spacingRight=3;rotatable=0;labelPosition=right;points=[];portConstraint=eastwest;" vertex="1" parent="vXnV-pwzw2AVVzY67xEj-36">
          <mxGeometry y="52" width="160" height="8" as="geometry" />
        </mxCell>
        <mxCell id="vXnV-pwzw2AVVzY67xEj-39" value="+ TSymbol(symbol: String)&#xa;" style="text;strokeColor=none;fillColor=none;align=left;verticalAlign=top;spacingLeft=4;spacingRight=4;overflow=hidden;rotatable=0;points=[[0,0.5],[1,0.5]];portConstraint=eastwest;" vertex="1" parent="vXnV-pwzw2AVVzY67xEj-36">
          <mxGeometry y="60" width="160" height="60" as="geometry" />
        </mxCell>
        <mxCell id="vXnV-pwzw2AVVzY67xEj-40" value="Extends" style="endArrow=block;endSize=16;endFill=0;html=1;exitX=0.5;exitY=0;exitDx=0;exitDy=0;" edge="1" parent="vXnV-pwzw2AVVzY67xEj-1" source="vXnV-pwzw2AVVzY67xEj-36" target="vXnV-pwzw2AVVzY67xEj-9">
          <mxGeometry x="-0.8496" width="160" relative="1" as="geometry">
            <mxPoint x="1390" y="394" as="sourcePoint" />
            <mxPoint x="1050" y="166" as="targetPoint" />
            <Array as="points">
              <mxPoint x="1560" y="240" />
              <mxPoint x="840" y="240" />
            </Array>
            <mxPoint as="offset" />
          </mxGeometry>
        </mxCell>
        <mxCell id="vXnV-pwzw2AVVzY67xEj-41" value="TComment" style="swimlane;fontStyle=1;align=center;verticalAlign=top;childLayout=stackLayout;horizontal=1;startSize=26;horizontalStack=0;resizeParent=1;resizeParentMax=0;resizeLast=0;collapsible=1;marginBottom=0;" vertex="1" parent="vXnV-pwzw2AVVzY67xEj-1">
          <mxGeometry x="-40" y="610" width="200" height="120" as="geometry">
            <mxRectangle x="40" y="360" width="80" height="26" as="alternateBounds" />
          </mxGeometry>
        </mxCell>
        <mxCell id="vXnV-pwzw2AVVzY67xEj-42" value="comment: String" style="text;strokeColor=none;fillColor=none;align=left;verticalAlign=top;spacingLeft=4;spacingRight=4;overflow=hidden;rotatable=0;points=[[0,0.5],[1,0.5]];portConstraint=eastwest;" vertex="1" parent="vXnV-pwzw2AVVzY67xEj-41">
          <mxGeometry y="26" width="200" height="26" as="geometry" />
        </mxCell>
        <mxCell id="vXnV-pwzw2AVVzY67xEj-43" value="" style="line;strokeWidth=1;fillColor=none;align=left;verticalAlign=middle;spacingTop=-1;spacingLeft=3;spacingRight=3;rotatable=0;labelPosition=right;points=[];portConstraint=eastwest;" vertex="1" parent="vXnV-pwzw2AVVzY67xEj-41">
          <mxGeometry y="52" width="200" height="8" as="geometry" />
        </mxCell>
        <mxCell id="vXnV-pwzw2AVVzY67xEj-44" value="+ TComment(cmnt: String)" style="text;strokeColor=none;fillColor=none;align=left;verticalAlign=top;spacingLeft=4;spacingRight=4;overflow=hidden;rotatable=0;points=[[0,0.5],[1,0.5]];portConstraint=eastwest;" vertex="1" parent="vXnV-pwzw2AVVzY67xEj-41">
          <mxGeometry y="60" width="200" height="60" as="geometry" />
        </mxCell>
        <mxCell id="vXnV-pwzw2AVVzY67xEj-45" value="Extends" style="endArrow=block;endSize=16;endFill=0;html=1;" edge="1" parent="vXnV-pwzw2AVVzY67xEj-1" source="vXnV-pwzw2AVVzY67xEj-41" target="vXnV-pwzw2AVVzY67xEj-9">
          <mxGeometry x="-0.8782" width="160" relative="1" as="geometry">
            <mxPoint x="-530" y="410" as="sourcePoint" />
            <mxPoint x="870" y="180" as="targetPoint" />
            <Array as="points">
              <mxPoint x="60" y="240" />
              <mxPoint x="840" y="240" />
            </Array>
            <mxPoint as="offset" />
          </mxGeometry>
        </mxCell>
        <mxCell id="vXnV-pwzw2AVVzY67xEj-46" value="TStringLiteral" style="swimlane;fontStyle=1;align=center;verticalAlign=top;childLayout=stackLayout;horizontal=1;startSize=26;horizontalStack=0;resizeParent=1;resizeParentMax=0;resizeLast=0;collapsible=1;marginBottom=0;" vertex="1" parent="vXnV-pwzw2AVVzY67xEj-1">
          <mxGeometry x="1280" y="610" width="160" height="120" as="geometry">
            <mxRectangle x="40" y="360" width="80" height="26" as="alternateBounds" />
          </mxGeometry>
        </mxCell>
        <mxCell id="vXnV-pwzw2AVVzY67xEj-47" value="stringLiteral: String" style="text;strokeColor=none;fillColor=none;align=left;verticalAlign=top;spacingLeft=4;spacingRight=4;overflow=hidden;rotatable=0;points=[[0,0.5],[1,0.5]];portConstraint=eastwest;" vertex="1" parent="vXnV-pwzw2AVVzY67xEj-46">
          <mxGeometry y="26" width="160" height="26" as="geometry" />
        </mxCell>
        <mxCell id="vXnV-pwzw2AVVzY67xEj-48" value="" style="line;strokeWidth=1;fillColor=none;align=left;verticalAlign=middle;spacingTop=-1;spacingLeft=3;spacingRight=3;rotatable=0;labelPosition=right;points=[];portConstraint=eastwest;" vertex="1" parent="vXnV-pwzw2AVVzY67xEj-46">
          <mxGeometry y="52" width="160" height="8" as="geometry" />
        </mxCell>
        <mxCell id="vXnV-pwzw2AVVzY67xEj-49" value="+ TStringLiteral(str: String)" style="text;strokeColor=none;fillColor=none;align=left;verticalAlign=top;spacingLeft=4;spacingRight=4;overflow=hidden;rotatable=0;points=[[0,0.5],[1,0.5]];portConstraint=eastwest;" vertex="1" parent="vXnV-pwzw2AVVzY67xEj-46">
          <mxGeometry y="60" width="160" height="60" as="geometry" />
        </mxCell>
        <mxCell id="vXnV-pwzw2AVVzY67xEj-50" value="Extends" style="endArrow=block;endSize=16;endFill=0;html=1;exitX=0.5;exitY=0;exitDx=0;exitDy=0;" edge="1" parent="vXnV-pwzw2AVVzY67xEj-1" source="vXnV-pwzw2AVVzY67xEj-46" target="vXnV-pwzw2AVVzY67xEj-9">
          <mxGeometry x="-0.8496" width="160" relative="1" as="geometry">
            <mxPoint x="1570" y="410" as="sourcePoint" />
            <mxPoint x="850" y="176" as="targetPoint" />
            <Array as="points">
              <mxPoint x="1360" y="240" />
              <mxPoint x="840" y="240" />
            </Array>
            <mxPoint as="offset" />
          </mxGeometry>
        </mxCell>
        <mxCell id="0_KP-R9f6Dp5k-g6K6UW-0" value="&lt;p style=&quot;margin: 0px ; margin-top: 4px ; text-align: center&quot;&gt;&lt;i&gt;&amp;lt;&amp;lt;Interface&amp;gt;&amp;gt;&lt;/i&gt;&lt;br&gt;&lt;b&gt;StrToken&lt;/b&gt;&lt;/p&gt;&lt;hr size=&quot;1&quot;&gt;&lt;p style=&quot;margin: 0px ; margin-left: 4px&quot;&gt;&amp;nbsp;&lt;/p&gt;&lt;hr size=&quot;1&quot;&gt;&lt;p style=&quot;margin: 0px ; margin-left: 4px&quot;&gt;+ getStringValue(): String&lt;/p&gt;" style="verticalAlign=top;align=left;overflow=fill;fontSize=12;fontFamily=Helvetica;html=1;" vertex="1" parent="vXnV-pwzw2AVVzY67xEj-1">
          <mxGeometry x="-790" y="420" width="190" height="140" as="geometry" />
        </mxCell>
        <mxCell id="0_KP-R9f6Dp5k-g6K6UW-1" value="&lt;p style=&quot;margin: 0px ; margin-top: 4px ; text-align: center&quot;&gt;&lt;i&gt;&amp;lt;&amp;lt;Interface&amp;gt;&amp;gt;&lt;/i&gt;&lt;br&gt;&lt;b&gt;IntToken&lt;/b&gt;&lt;/p&gt;&lt;hr size=&quot;1&quot;&gt;&lt;p style=&quot;margin: 0px ; margin-left: 4px&quot;&gt;&amp;nbsp;&lt;/p&gt;&lt;hr size=&quot;1&quot;&gt;&lt;p style=&quot;margin: 0px ; margin-left: 4px&quot;&gt;+ getIntValue(): int&lt;/p&gt;" style="verticalAlign=top;align=left;overflow=fill;fontSize=12;fontFamily=Helvetica;html=1;" vertex="1" parent="vXnV-pwzw2AVVzY67xEj-1">
          <mxGeometry x="-790" y="250" width="190" height="140" as="geometry" />
        </mxCell>
        <mxCell id="0_KP-R9f6Dp5k-g6K6UW-2" value="" style="endArrow=block;dashed=1;endFill=0;endSize=12;html=1;" edge="1" parent="vXnV-pwzw2AVVzY67xEj-1" source="vXnV-pwzw2AVVzY67xEj-31" target="0_KP-R9f6Dp5k-g6K6UW-0">
          <mxGeometry width="160" relative="1" as="geometry">
            <mxPoint x="-180" y="649" as="sourcePoint" />
            <mxPoint x="440" y="310" as="targetPoint" />
            <Array as="points">
              <mxPoint x="-400" y="650" />
              <mxPoint x="-400" y="490" />
            </Array>
          </mxGeometry>
        </mxCell>
        <mxCell id="0_KP-R9f6Dp5k-g6K6UW-4" value="" style="endArrow=block;dashed=1;endFill=0;endSize=12;html=1;" edge="1" parent="vXnV-pwzw2AVVzY67xEj-1" source="vXnV-pwzw2AVVzY67xEj-41" target="0_KP-R9f6Dp5k-g6K6UW-0">
          <mxGeometry width="160" relative="1" as="geometry">
            <mxPoint x="-341.94444444444457" y="619.9999999999998" as="sourcePoint" />
            <mxPoint x="-590" y="525.9999999999998" as="targetPoint" />
            <Array as="points">
              <mxPoint x="-70" y="670" />
              <mxPoint x="-70" y="490" />
            </Array>
          </mxGeometry>
        </mxCell>
        <mxCell id="0_KP-R9f6Dp5k-g6K6UW-6" value="" style="endArrow=block;dashed=1;endFill=0;endSize=12;html=1;" edge="1" parent="vXnV-pwzw2AVVzY67xEj-1" source="vXnV-pwzw2AVVzY67xEj-27" target="0_KP-R9f6Dp5k-g6K6UW-0">
          <mxGeometry width="160" relative="1" as="geometry">
            <mxPoint x="400" y="669.9999999999998" as="sourcePoint" />
            <mxPoint x="-160" y="489.9999999999998" as="targetPoint" />
            <Array as="points">
              <mxPoint x="370" y="680" />
              <mxPoint x="370" y="490" />
            </Array>
          </mxGeometry>
        </mxCell>
        <mxCell id="0_KP-R9f6Dp5k-g6K6UW-7" value="" style="endArrow=block;dashed=1;endFill=0;endSize=12;html=1;" edge="1" parent="vXnV-pwzw2AVVzY67xEj-1" source="vXnV-pwzw2AVVzY67xEj-17" target="0_KP-R9f6Dp5k-g6K6UW-0">
          <mxGeometry width="160" relative="1" as="geometry">
            <mxPoint x="600" y="669.9999999999998" as="sourcePoint" />
            <mxPoint x="40" y="489.9999999999998" as="targetPoint" />
            <Array as="points">
              <mxPoint x="570" y="660" />
              <mxPoint x="570" y="490" />
            </Array>
          </mxGeometry>
        </mxCell>
        <mxCell id="0_KP-R9f6Dp5k-g6K6UW-8" value="" style="endArrow=block;dashed=1;endFill=0;endSize=12;html=1;" edge="1" parent="vXnV-pwzw2AVVzY67xEj-1" source="vXnV-pwzw2AVVzY67xEj-22" target="0_KP-R9f6Dp5k-g6K6UW-0">
          <mxGeometry width="160" relative="1" as="geometry">
            <mxPoint x="1090" y="667.8571428571431" as="sourcePoint" />
            <mxPoint x="-110" y="490" as="targetPoint" />
            <Array as="points">
              <mxPoint x="1060" y="670" />
              <mxPoint x="1060" y="490" />
            </Array>
          </mxGeometry>
        </mxCell>
        <mxCell id="0_KP-R9f6Dp5k-g6K6UW-9" value="" style="endArrow=block;dashed=1;endFill=0;endSize=12;html=1;" edge="1" parent="vXnV-pwzw2AVVzY67xEj-1" source="vXnV-pwzw2AVVzY67xEj-46" target="0_KP-R9f6Dp5k-g6K6UW-0">
          <mxGeometry width="160" relative="1" as="geometry">
            <mxPoint x="1290" y="667.8571428571431" as="sourcePoint" />
            <mxPoint x="90" y="490" as="targetPoint" />
            <Array as="points">
              <mxPoint x="1260" y="670" />
              <mxPoint x="1260" y="490" />
            </Array>
          </mxGeometry>
        </mxCell>
        <mxCell id="0_KP-R9f6Dp5k-g6K6UW-10" value="" style="endArrow=block;dashed=1;endFill=0;endSize=12;html=1;" edge="1" parent="vXnV-pwzw2AVVzY67xEj-1" source="vXnV-pwzw2AVVzY67xEj-36" target="0_KP-R9f6Dp5k-g6K6UW-0">
          <mxGeometry width="160" relative="1" as="geometry">
            <mxPoint x="1480" y="667.8571428571431" as="sourcePoint" />
            <mxPoint x="280" y="490" as="targetPoint" />
            <Array as="points">
              <mxPoint x="1450" y="670" />
              <mxPoint x="1450" y="490" />
            </Array>
          </mxGeometry>
        </mxCell>
        <mxCell id="0_KP-R9f6Dp5k-g6K6UW-11" value="" style="endArrow=block;dashed=1;endFill=0;endSize=12;html=1;" edge="1" parent="vXnV-pwzw2AVVzY67xEj-1" source="vXnV-pwzw2AVVzY67xEj-27" target="0_KP-R9f6Dp5k-g6K6UW-1">
          <mxGeometry width="160" relative="1" as="geometry">
            <mxPoint x="410" y="682.2222222222222" as="sourcePoint" />
            <mxPoint x="170.00000000000023" y="520" as="targetPoint" />
            <Array as="points">
              <mxPoint x="370" y="680" />
              <mxPoint x="370" y="320" />
            </Array>
          </mxGeometry>
        </mxCell>
        <mxCell id="0_KP-R9f6Dp5k-g6K6UW-14" value="" style="endArrow=block;dashed=1;endFill=0;endSize=12;html=1;" edge="1" parent="vXnV-pwzw2AVVzY67xEj-1" source="vXnV-pwzw2AVVzY67xEj-2" target="0_KP-R9f6Dp5k-g6K6UW-1">
          <mxGeometry width="160" relative="1" as="geometry">
            <mxPoint x="880" y="680" as="sourcePoint" />
            <mxPoint x="-119.99999999999977" y="320" as="targetPoint" />
            <Array as="points">
              <mxPoint x="850" y="680" />
              <mxPoint x="850" y="320" />
            </Array>
          </mxGeometry>
        </mxCell>
      </root>
    </mxGraphModel>
  </diagram>
  <diagram name="AToken UML - 002" id="owZUvSf26EvtYXKI-aI1">
    <mxGraphModel dx="2054" dy="1104" grid="1" gridSize="10" guides="1" tooltips="1" connect="1" arrows="1" fold="1" page="1" pageScale="1" pageWidth="850" pageHeight="1100" math="0" shadow="0">
      <root>
        <mxCell id="caqeOcLrMtZHwTMlGjk9-0" />
        <mxCell id="caqeOcLrMtZHwTMlGjk9-1" parent="caqeOcLrMtZHwTMlGjk9-0" />
        <mxCell id="caqeOcLrMtZHwTMlGjk9-2" value="TInteger" style="swimlane;fontStyle=1;align=center;verticalAlign=top;childLayout=stackLayout;horizontal=1;startSize=26;horizontalStack=0;resizeParent=1;resizeParentMax=0;resizeLast=0;collapsible=1;marginBottom=0;" parent="caqeOcLrMtZHwTMlGjk9-1" vertex="1">
          <mxGeometry x="730" y="360" width="160" height="100" as="geometry">
            <mxRectangle x="40" y="360" width="80" height="26" as="alternateBounds" />
          </mxGeometry>
        </mxCell>
        <mxCell id="caqeOcLrMtZHwTMlGjk9-3" value="- intValue: int" style="text;strokeColor=none;fillColor=none;align=left;verticalAlign=top;spacingLeft=4;spacingRight=4;overflow=hidden;rotatable=0;points=[[0,0.5],[1,0.5]];portConstraint=eastwest;" parent="caqeOcLrMtZHwTMlGjk9-2" vertex="1">
          <mxGeometry y="26" width="160" height="26" as="geometry" />
        </mxCell>
        <mxCell id="caqeOcLrMtZHwTMlGjk9-4" value="" style="line;strokeWidth=1;fillColor=none;align=left;verticalAlign=middle;spacingTop=-1;spacingLeft=3;spacingRight=3;rotatable=0;labelPosition=right;points=[];portConstraint=eastwest;" parent="caqeOcLrMtZHwTMlGjk9-2" vertex="1">
          <mxGeometry y="52" width="160" height="8" as="geometry" />
        </mxCell>
        <mxCell id="caqeOcLrMtZHwTMlGjk9-5" value="+ TInteger(i: int)&#xa;+ getIntValue(): int" style="text;strokeColor=none;fillColor=none;align=left;verticalAlign=top;spacingLeft=4;spacingRight=4;overflow=hidden;rotatable=0;points=[[0,0.5],[1,0.5]];portConstraint=eastwest;" parent="caqeOcLrMtZHwTMlGjk9-2" vertex="1">
          <mxGeometry y="60" width="160" height="40" as="geometry" />
        </mxCell>
        <mxCell id="caqeOcLrMtZHwTMlGjk9-6" value="&lt;&lt;abstract&gt;&gt;&#xa;AToken" style="swimlane;fontStyle=1;align=center;verticalAlign=top;childLayout=stackLayout;horizontal=1;startSize=40;horizontalStack=0;resizeParent=1;resizeParentMax=0;resizeLast=0;collapsible=1;marginBottom=0;" parent="caqeOcLrMtZHwTMlGjk9-1" vertex="1">
          <mxGeometry x="360" y="20" width="160" height="114" as="geometry">
            <mxRectangle x="360" y="40" width="110" height="30" as="alternateBounds" />
          </mxGeometry>
        </mxCell>
        <mxCell id="caqeOcLrMtZHwTMlGjk9-7" value="  " style="text;strokeColor=none;fillColor=none;align=left;verticalAlign=top;spacingLeft=4;spacingRight=4;overflow=hidden;rotatable=0;points=[[0,0.5],[1,0.5]];portConstraint=eastwest;" parent="caqeOcLrMtZHwTMlGjk9-6" vertex="1">
          <mxGeometry y="40" width="160" height="26" as="geometry" />
        </mxCell>
        <mxCell id="caqeOcLrMtZHwTMlGjk9-8" value="" style="line;strokeWidth=1;fillColor=none;align=left;verticalAlign=middle;spacingTop=-1;spacingLeft=3;spacingRight=3;rotatable=0;labelPosition=right;points=[];portConstraint=eastwest;" parent="caqeOcLrMtZHwTMlGjk9-6" vertex="1">
          <mxGeometry y="66" width="160" height="8" as="geometry" />
        </mxCell>
        <mxCell id="caqeOcLrMtZHwTMlGjk9-9" value="+ getDescribtion()" style="text;strokeColor=none;fillColor=none;align=left;verticalAlign=top;spacingLeft=4;spacingRight=4;overflow=hidden;rotatable=0;points=[[0,0.5],[1,0.5]];portConstraint=eastwest;" parent="caqeOcLrMtZHwTMlGjk9-6" vertex="1">
          <mxGeometry y="74" width="160" height="40" as="geometry" />
        </mxCell>
        <mxCell id="caqeOcLrMtZHwTMlGjk9-10" value="Extends" style="endArrow=block;endSize=16;endFill=0;html=1;exitX=0.5;exitY=0;exitDx=0;exitDy=0;" parent="caqeOcLrMtZHwTMlGjk9-1" source="caqeOcLrMtZHwTMlGjk9-2" target="caqeOcLrMtZHwTMlGjk9-9" edge="1">
          <mxGeometry x="-0.7112" width="160" relative="1" as="geometry">
            <mxPoint x="450" y="480" as="sourcePoint" />
            <mxPoint x="443" y="130" as="targetPoint" />
            <Array as="points">
              <mxPoint x="810" y="200" />
              <mxPoint x="440" y="200" />
            </Array>
            <mxPoint as="offset" />
          </mxGeometry>
        </mxCell>
        <mxCell id="caqeOcLrMtZHwTMlGjk9-12" value="TEmpty" style="swimlane;fontStyle=1;align=center;verticalAlign=top;childLayout=stackLayout;horizontal=1;startSize=26;horizontalStack=0;resizeParent=1;resizeParentMax=0;resizeLast=0;collapsible=1;marginBottom=0;" parent="caqeOcLrMtZHwTMlGjk9-1" vertex="1">
          <mxGeometry x="-200" y="360" width="160" height="100" as="geometry">
            <mxRectangle x="40" y="360" width="80" height="26" as="alternateBounds" />
          </mxGeometry>
        </mxCell>
        <mxCell id="caqeOcLrMtZHwTMlGjk9-13" value=" " style="text;strokeColor=none;fillColor=none;align=left;verticalAlign=top;spacingLeft=4;spacingRight=4;overflow=hidden;rotatable=0;points=[[0,0.5],[1,0.5]];portConstraint=eastwest;" parent="caqeOcLrMtZHwTMlGjk9-12" vertex="1">
          <mxGeometry y="26" width="160" height="26" as="geometry" />
        </mxCell>
        <mxCell id="caqeOcLrMtZHwTMlGjk9-14" value="" style="line;strokeWidth=1;fillColor=none;align=left;verticalAlign=middle;spacingTop=-1;spacingLeft=3;spacingRight=3;rotatable=0;labelPosition=right;points=[];portConstraint=eastwest;" parent="caqeOcLrMtZHwTMlGjk9-12" vertex="1">
          <mxGeometry y="52" width="160" height="8" as="geometry" />
        </mxCell>
        <mxCell id="caqeOcLrMtZHwTMlGjk9-15" value="  " style="text;strokeColor=none;fillColor=none;align=left;verticalAlign=top;spacingLeft=4;spacingRight=4;overflow=hidden;rotatable=0;points=[[0,0.5],[1,0.5]];portConstraint=eastwest;" parent="caqeOcLrMtZHwTMlGjk9-12" vertex="1">
          <mxGeometry y="60" width="160" height="40" as="geometry" />
        </mxCell>
        <mxCell id="caqeOcLrMtZHwTMlGjk9-16" value="Extends" style="endArrow=block;endSize=16;endFill=0;html=1;exitX=0.5;exitY=0;exitDx=0;exitDy=0;" parent="caqeOcLrMtZHwTMlGjk9-1" source="caqeOcLrMtZHwTMlGjk9-12" target="caqeOcLrMtZHwTMlGjk9-9" edge="1">
          <mxGeometry x="-0.801" width="160" relative="1" as="geometry">
            <mxPoint x="520" y="360" as="sourcePoint" />
            <mxPoint x="640" y="126" as="targetPoint" />
            <Array as="points">
              <mxPoint x="-120" y="200" />
              <mxPoint x="440" y="200" />
            </Array>
            <mxPoint as="offset" />
          </mxGeometry>
        </mxCell>
        <mxCell id="caqeOcLrMtZHwTMlGjk9-22" value="TInvalid" style="swimlane;fontStyle=1;align=center;verticalAlign=top;childLayout=stackLayout;horizontal=1;startSize=26;horizontalStack=0;resizeParent=1;resizeParentMax=0;resizeLast=0;collapsible=1;marginBottom=0;" parent="caqeOcLrMtZHwTMlGjk9-1" vertex="1">
          <mxGeometry x="930" y="360" width="160" height="120" as="geometry">
            <mxRectangle x="40" y="360" width="80" height="26" as="alternateBounds" />
          </mxGeometry>
        </mxCell>
        <mxCell id="caqeOcLrMtZHwTMlGjk9-23" value="- errorMessage: string" style="text;strokeColor=none;fillColor=none;align=left;verticalAlign=top;spacingLeft=4;spacingRight=4;overflow=hidden;rotatable=0;points=[[0,0.5],[1,0.5]];portConstraint=eastwest;" parent="caqeOcLrMtZHwTMlGjk9-22" vertex="1">
          <mxGeometry y="26" width="160" height="26" as="geometry" />
        </mxCell>
        <mxCell id="caqeOcLrMtZHwTMlGjk9-24" value="" style="line;strokeWidth=1;fillColor=none;align=left;verticalAlign=middle;spacingTop=-1;spacingLeft=3;spacingRight=3;rotatable=0;labelPosition=right;points=[];portConstraint=eastwest;" parent="caqeOcLrMtZHwTMlGjk9-22" vertex="1">
          <mxGeometry y="52" width="160" height="8" as="geometry" />
        </mxCell>
        <mxCell id="caqeOcLrMtZHwTMlGjk9-25" value="+ TInvalid(errmsg: String)&#xa;+ getErrorMessage(): String&#xa;" style="text;strokeColor=none;fillColor=none;align=left;verticalAlign=top;spacingLeft=4;spacingRight=4;overflow=hidden;rotatable=0;points=[[0,0.5],[1,0.5]];portConstraint=eastwest;" parent="caqeOcLrMtZHwTMlGjk9-22" vertex="1">
          <mxGeometry y="60" width="160" height="60" as="geometry" />
        </mxCell>
        <mxCell id="caqeOcLrMtZHwTMlGjk9-26" value="Extends" style="endArrow=block;endSize=16;endFill=0;html=1;exitX=0.5;exitY=0;exitDx=0;exitDy=0;" parent="caqeOcLrMtZHwTMlGjk9-1" source="caqeOcLrMtZHwTMlGjk9-22" target="caqeOcLrMtZHwTMlGjk9-9" edge="1">
          <mxGeometry x="-0.8496" width="160" relative="1" as="geometry">
            <mxPoint x="780" y="354" as="sourcePoint" />
            <mxPoint x="700" y="120" as="targetPoint" />
            <Array as="points">
              <mxPoint x="1010" y="200" />
              <mxPoint x="440" y="200" />
            </Array>
            <mxPoint as="offset" />
          </mxGeometry>
        </mxCell>
        <mxCell id="caqeOcLrMtZHwTMlGjk9-32" value="THex" style="swimlane;fontStyle=1;align=center;verticalAlign=top;childLayout=stackLayout;horizontal=1;startSize=26;horizontalStack=0;resizeParent=1;resizeParentMax=0;resizeLast=0;collapsible=1;marginBottom=0;" parent="caqeOcLrMtZHwTMlGjk9-1" vertex="1">
          <mxGeometry y="360" width="160" height="140" as="geometry" />
        </mxCell>
        <mxCell id="caqeOcLrMtZHwTMlGjk9-33" value="- intValue: int&#xa;- stringValue: String&#xa;&#xa;" style="text;strokeColor=none;fillColor=none;align=left;verticalAlign=top;spacingLeft=4;spacingRight=4;overflow=hidden;rotatable=0;points=[[0,0.5],[1,0.5]];portConstraint=eastwest;" parent="caqeOcLrMtZHwTMlGjk9-32" vertex="1">
          <mxGeometry y="26" width="160" height="34" as="geometry" />
        </mxCell>
        <mxCell id="caqeOcLrMtZHwTMlGjk9-34" value="" style="line;strokeWidth=1;fillColor=none;align=left;verticalAlign=middle;spacingTop=-1;spacingLeft=3;spacingRight=3;rotatable=0;labelPosition=right;points=[];portConstraint=eastwest;" parent="caqeOcLrMtZHwTMlGjk9-32" vertex="1">
          <mxGeometry y="60" width="160" height="8" as="geometry" />
        </mxCell>
        <mxCell id="caqeOcLrMtZHwTMlGjk9-35" value="+ THex(i :int)&#xa;+ THhex(h: String)&#xa;+ getIntValue() : int&#xa;+ getStringValue(): String&#xa;" style="text;strokeColor=none;fillColor=none;align=left;verticalAlign=top;spacingLeft=4;spacingRight=4;overflow=hidden;rotatable=0;points=[[0,0.5],[1,0.5]];portConstraint=eastwest;" parent="caqeOcLrMtZHwTMlGjk9-32" vertex="1">
          <mxGeometry y="68" width="160" height="72" as="geometry" />
        </mxCell>
        <mxCell id="caqeOcLrMtZHwTMlGjk9-40" value="Extends" style="endArrow=block;endSize=16;endFill=0;html=1;" parent="caqeOcLrMtZHwTMlGjk9-1" source="caqeOcLrMtZHwTMlGjk9-32" target="caqeOcLrMtZHwTMlGjk9-9" edge="1">
          <mxGeometry x="-0.8037" width="160" relative="1" as="geometry">
            <mxPoint x="80" y="360" as="sourcePoint" />
            <mxPoint x="180" y="126" as="targetPoint" />
            <Array as="points">
              <mxPoint x="80" y="200" />
              <mxPoint x="440" y="200" />
            </Array>
            <mxPoint as="offset" />
          </mxGeometry>
        </mxCell>
        <mxCell id="caqeOcLrMtZHwTMlGjk9-56" value="&lt;&lt;abstract&gt;&gt;&#xa;AStrToken" style="swimlane;fontStyle=1;align=center;verticalAlign=top;childLayout=stackLayout;horizontal=1;startSize=40;horizontalStack=0;resizeParent=1;resizeParentMax=0;resizeLast=0;collapsible=1;marginBottom=0;" parent="caqeOcLrMtZHwTMlGjk9-1" vertex="1">
          <mxGeometry x="360" y="360" width="160" height="134" as="geometry">
            <mxRectangle x="40" y="360" width="80" height="26" as="alternateBounds" />
          </mxGeometry>
        </mxCell>
        <mxCell id="caqeOcLrMtZHwTMlGjk9-57" value="- stringValue: String" style="text;strokeColor=none;fillColor=none;align=left;verticalAlign=top;spacingLeft=4;spacingRight=4;overflow=hidden;rotatable=0;points=[[0,0.5],[1,0.5]];portConstraint=eastwest;" parent="caqeOcLrMtZHwTMlGjk9-56" vertex="1">
          <mxGeometry y="40" width="160" height="26" as="geometry" />
        </mxCell>
        <mxCell id="caqeOcLrMtZHwTMlGjk9-58" value="" style="line;strokeWidth=1;fillColor=none;align=left;verticalAlign=middle;spacingTop=-1;spacingLeft=3;spacingRight=3;rotatable=0;labelPosition=right;points=[];portConstraint=eastwest;" parent="caqeOcLrMtZHwTMlGjk9-56" vertex="1">
          <mxGeometry y="66" width="160" height="8" as="geometry" />
        </mxCell>
        <mxCell id="caqeOcLrMtZHwTMlGjk9-59" value="+ getStringValue(): String" style="text;strokeColor=none;fillColor=none;align=left;verticalAlign=top;spacingLeft=4;spacingRight=4;overflow=hidden;rotatable=0;points=[[0,0.5],[1,0.5]];portConstraint=eastwest;" parent="caqeOcLrMtZHwTMlGjk9-56" vertex="1">
          <mxGeometry y="74" width="160" height="60" as="geometry" />
        </mxCell>
        <mxCell id="caqeOcLrMtZHwTMlGjk9-68" value="TIdent" style="swimlane;fontStyle=1;align=center;verticalAlign=top;childLayout=stackLayout;horizontal=1;startSize=26;horizontalStack=0;resizeParent=1;resizeParentMax=0;resizeLast=0;collapsible=1;marginBottom=0;" parent="caqeOcLrMtZHwTMlGjk9-1" vertex="1">
          <mxGeometry x="330" y="900" width="220" height="100" as="geometry">
            <mxRectangle x="40" y="360" width="80" height="26" as="alternateBounds" />
          </mxGeometry>
        </mxCell>
        <mxCell id="caqeOcLrMtZHwTMlGjk9-69" value=" " style="text;strokeColor=none;fillColor=none;align=left;verticalAlign=top;spacingLeft=4;spacingRight=4;overflow=hidden;rotatable=0;points=[[0,0.5],[1,0.5]];portConstraint=eastwest;" parent="caqeOcLrMtZHwTMlGjk9-68" vertex="1">
          <mxGeometry y="26" width="220" height="26" as="geometry" />
        </mxCell>
        <mxCell id="caqeOcLrMtZHwTMlGjk9-70" value="" style="line;strokeWidth=1;fillColor=none;align=left;verticalAlign=middle;spacingTop=-1;spacingLeft=3;spacingRight=3;rotatable=0;labelPosition=right;points=[];portConstraint=eastwest;" parent="caqeOcLrMtZHwTMlGjk9-68" vertex="1">
          <mxGeometry y="52" width="220" height="8" as="geometry" />
        </mxCell>
        <mxCell id="caqeOcLrMtZHwTMlGjk9-71" value="+ TIdent(instr: String)&#xa;" style="text;strokeColor=none;fillColor=none;align=left;verticalAlign=top;spacingLeft=4;spacingRight=4;overflow=hidden;rotatable=0;points=[[0,0.5],[1,0.5]];portConstraint=eastwest;" parent="caqeOcLrMtZHwTMlGjk9-68" vertex="1">
          <mxGeometry y="60" width="220" height="40" as="geometry" />
        </mxCell>
        <mxCell id="caqeOcLrMtZHwTMlGjk9-76" value="TSymbol" style="swimlane;fontStyle=1;align=center;verticalAlign=top;childLayout=stackLayout;horizontal=1;startSize=26;horizontalStack=0;resizeParent=1;resizeParentMax=0;resizeLast=0;collapsible=1;marginBottom=0;" parent="caqeOcLrMtZHwTMlGjk9-1" vertex="1">
          <mxGeometry x="800" y="900" width="160" height="120" as="geometry">
            <mxRectangle x="40" y="360" width="80" height="26" as="alternateBounds" />
          </mxGeometry>
        </mxCell>
        <mxCell id="caqeOcLrMtZHwTMlGjk9-77" value=" " style="text;strokeColor=none;fillColor=none;align=left;verticalAlign=top;spacingLeft=4;spacingRight=4;overflow=hidden;rotatable=0;points=[[0,0.5],[1,0.5]];portConstraint=eastwest;" parent="caqeOcLrMtZHwTMlGjk9-76" vertex="1">
          <mxGeometry y="26" width="160" height="26" as="geometry" />
        </mxCell>
        <mxCell id="caqeOcLrMtZHwTMlGjk9-78" value="" style="line;strokeWidth=1;fillColor=none;align=left;verticalAlign=middle;spacingTop=-1;spacingLeft=3;spacingRight=3;rotatable=0;labelPosition=right;points=[];portConstraint=eastwest;" parent="caqeOcLrMtZHwTMlGjk9-76" vertex="1">
          <mxGeometry y="52" width="160" height="8" as="geometry" />
        </mxCell>
        <mxCell id="caqeOcLrMtZHwTMlGjk9-79" value="+ TSymbol(symbol: String)&#xa;" style="text;strokeColor=none;fillColor=none;align=left;verticalAlign=top;spacingLeft=4;spacingRight=4;overflow=hidden;rotatable=0;points=[[0,0.5],[1,0.5]];portConstraint=eastwest;" parent="caqeOcLrMtZHwTMlGjk9-76" vertex="1">
          <mxGeometry y="60" width="160" height="60" as="geometry" />
        </mxCell>
        <mxCell id="caqeOcLrMtZHwTMlGjk9-80" value="TStringLiteral" style="swimlane;fontStyle=1;align=center;verticalAlign=top;childLayout=stackLayout;horizontal=1;startSize=26;horizontalStack=0;resizeParent=1;resizeParentMax=0;resizeLast=0;collapsible=1;marginBottom=0;" parent="caqeOcLrMtZHwTMlGjk9-1" vertex="1">
          <mxGeometry x="600" y="900" width="160" height="120" as="geometry">
            <mxRectangle x="40" y="360" width="80" height="26" as="alternateBounds" />
          </mxGeometry>
        </mxCell>
        <mxCell id="caqeOcLrMtZHwTMlGjk9-81" value=" " style="text;strokeColor=none;fillColor=none;align=left;verticalAlign=top;spacingLeft=4;spacingRight=4;overflow=hidden;rotatable=0;points=[[0,0.5],[1,0.5]];portConstraint=eastwest;" parent="caqeOcLrMtZHwTMlGjk9-80" vertex="1">
          <mxGeometry y="26" width="160" height="26" as="geometry" />
        </mxCell>
        <mxCell id="caqeOcLrMtZHwTMlGjk9-82" value="" style="line;strokeWidth=1;fillColor=none;align=left;verticalAlign=middle;spacingTop=-1;spacingLeft=3;spacingRight=3;rotatable=0;labelPosition=right;points=[];portConstraint=eastwest;" parent="caqeOcLrMtZHwTMlGjk9-80" vertex="1">
          <mxGeometry y="52" width="160" height="8" as="geometry" />
        </mxCell>
        <mxCell id="caqeOcLrMtZHwTMlGjk9-83" value="+ TStringLiteral(str: String)&#xa;" style="text;strokeColor=none;fillColor=none;align=left;verticalAlign=top;spacingLeft=4;spacingRight=4;overflow=hidden;rotatable=0;points=[[0,0.5],[1,0.5]];portConstraint=eastwest;" parent="caqeOcLrMtZHwTMlGjk9-80" vertex="1">
          <mxGeometry y="60" width="160" height="60" as="geometry" />
        </mxCell>
        <mxCell id="caqeOcLrMtZHwTMlGjk9-88" value="TAddress" style="swimlane;fontStyle=1;align=center;verticalAlign=top;childLayout=stackLayout;horizontal=1;startSize=26;horizontalStack=0;resizeParent=1;resizeParentMax=0;resizeLast=0;collapsible=1;marginBottom=0;" parent="caqeOcLrMtZHwTMlGjk9-1" vertex="1">
          <mxGeometry x="-260" y="900" width="280" height="100" as="geometry">
            <mxRectangle x="40" y="360" width="80" height="26" as="alternateBounds" />
          </mxGeometry>
        </mxCell>
        <mxCell id="caqeOcLrMtZHwTMlGjk9-89" value=" " style="text;strokeColor=none;fillColor=none;align=left;verticalAlign=top;spacingLeft=4;spacingRight=4;overflow=hidden;rotatable=0;points=[[0,0.5],[1,0.5]];portConstraint=eastwest;" parent="caqeOcLrMtZHwTMlGjk9-88" vertex="1">
          <mxGeometry y="26" width="280" height="26" as="geometry" />
        </mxCell>
        <mxCell id="caqeOcLrMtZHwTMlGjk9-90" value="" style="line;strokeWidth=1;fillColor=none;align=left;verticalAlign=middle;spacingTop=-1;spacingLeft=3;spacingRight=3;rotatable=0;labelPosition=right;points=[];portConstraint=eastwest;" parent="caqeOcLrMtZHwTMlGjk9-88" vertex="1">
          <mxGeometry y="52" width="280" height="8" as="geometry" />
        </mxCell>
        <mxCell id="caqeOcLrMtZHwTMlGjk9-91" value="+ TAddress(addrss: String)" style="text;strokeColor=none;fillColor=none;align=left;verticalAlign=top;spacingLeft=4;spacingRight=4;overflow=hidden;rotatable=0;points=[[0,0.5],[1,0.5]];portConstraint=eastwest;" parent="caqeOcLrMtZHwTMlGjk9-88" vertex="1">
          <mxGeometry y="60" width="280" height="40" as="geometry" />
        </mxCell>
        <mxCell id="caqeOcLrMtZHwTMlGjk9-92" value="TComment" style="swimlane;fontStyle=1;align=center;verticalAlign=top;childLayout=stackLayout;horizontal=1;startSize=26;horizontalStack=0;resizeParent=1;resizeParentMax=0;resizeLast=0;collapsible=1;marginBottom=0;" parent="caqeOcLrMtZHwTMlGjk9-1" vertex="1">
          <mxGeometry x="60" y="900" width="200" height="120" as="geometry">
            <mxRectangle x="40" y="360" width="80" height="26" as="alternateBounds" />
          </mxGeometry>
        </mxCell>
        <mxCell id="caqeOcLrMtZHwTMlGjk9-93" value=" " style="text;strokeColor=none;fillColor=none;align=left;verticalAlign=top;spacingLeft=4;spacingRight=4;overflow=hidden;rotatable=0;points=[[0,0.5],[1,0.5]];portConstraint=eastwest;" parent="caqeOcLrMtZHwTMlGjk9-92" vertex="1">
          <mxGeometry y="26" width="200" height="26" as="geometry" />
        </mxCell>
        <mxCell id="caqeOcLrMtZHwTMlGjk9-94" value="" style="line;strokeWidth=1;fillColor=none;align=left;verticalAlign=middle;spacingTop=-1;spacingLeft=3;spacingRight=3;rotatable=0;labelPosition=right;points=[];portConstraint=eastwest;" parent="caqeOcLrMtZHwTMlGjk9-92" vertex="1">
          <mxGeometry y="52" width="200" height="8" as="geometry" />
        </mxCell>
        <mxCell id="caqeOcLrMtZHwTMlGjk9-95" value="+ TComment(cmnt: String)&#xa;" style="text;strokeColor=none;fillColor=none;align=left;verticalAlign=top;spacingLeft=4;spacingRight=4;overflow=hidden;rotatable=0;points=[[0,0.5],[1,0.5]];portConstraint=eastwest;" parent="caqeOcLrMtZHwTMlGjk9-92" vertex="1">
          <mxGeometry y="60" width="200" height="60" as="geometry" />
        </mxCell>
        <mxCell id="caqeOcLrMtZHwTMlGjk9-96" value="Extends" style="endArrow=block;endSize=16;endFill=0;html=1;" parent="caqeOcLrMtZHwTMlGjk9-1" source="caqeOcLrMtZHwTMlGjk9-88" target="caqeOcLrMtZHwTMlGjk9-59" edge="1">
          <mxGeometry x="-0.801" width="160" relative="1" as="geometry">
            <mxPoint x="-140" y="890" as="sourcePoint" />
            <mxPoint x="420" y="750" as="targetPoint" />
            <Array as="points">
              <mxPoint x="-118" y="740" />
              <mxPoint x="440" y="740" />
            </Array>
            <mxPoint as="offset" />
          </mxGeometry>
        </mxCell>
        <mxCell id="caqeOcLrMtZHwTMlGjk9-98" value="Extends" style="endArrow=block;endSize=16;endFill=0;html=1;" parent="caqeOcLrMtZHwTMlGjk9-1" source="caqeOcLrMtZHwTMlGjk9-92" target="caqeOcLrMtZHwTMlGjk9-59" edge="1">
          <mxGeometry x="-0.801" width="160" relative="1" as="geometry">
            <mxPoint x="-130" y="900" as="sourcePoint" />
            <mxPoint x="430" y="690" as="targetPoint" />
            <Array as="points">
              <mxPoint x="160" y="740" />
              <mxPoint x="440" y="740" />
            </Array>
            <mxPoint as="offset" />
          </mxGeometry>
        </mxCell>
        <mxCell id="caqeOcLrMtZHwTMlGjk9-101" value="Extends" style="endArrow=block;endSize=16;endFill=0;html=1;exitX=0.5;exitY=0;exitDx=0;exitDy=0;" parent="caqeOcLrMtZHwTMlGjk9-1" source="caqeOcLrMtZHwTMlGjk9-68" target="caqeOcLrMtZHwTMlGjk9-59" edge="1">
          <mxGeometry x="-0.801" width="160" relative="1" as="geometry">
            <mxPoint x="170" y="910" as="sourcePoint" />
            <mxPoint x="450" y="700" as="targetPoint" />
            <Array as="points">
              <mxPoint x="441" y="740" />
            </Array>
            <mxPoint as="offset" />
          </mxGeometry>
        </mxCell>
        <mxCell id="caqeOcLrMtZHwTMlGjk9-102" value="Extends" style="endArrow=block;endSize=16;endFill=0;html=1;" parent="caqeOcLrMtZHwTMlGjk9-1" source="caqeOcLrMtZHwTMlGjk9-80" target="caqeOcLrMtZHwTMlGjk9-59" edge="1">
          <mxGeometry x="-0.801" width="160" relative="1" as="geometry">
            <mxPoint x="741.1904761904761" y="910" as="sourcePoint" />
            <mxPoint x="450.375" y="700" as="targetPoint" />
            <Array as="points">
              <mxPoint x="680" y="740" />
              <mxPoint x="440" y="740" />
            </Array>
            <mxPoint as="offset" />
          </mxGeometry>
        </mxCell>
        <mxCell id="caqeOcLrMtZHwTMlGjk9-103" value="Extends" style="endArrow=block;endSize=16;endFill=0;html=1;" parent="caqeOcLrMtZHwTMlGjk9-1" source="caqeOcLrMtZHwTMlGjk9-76" target="caqeOcLrMtZHwTMlGjk9-59" edge="1">
          <mxGeometry x="-0.801" width="160" relative="1" as="geometry">
            <mxPoint x="1210" y="900" as="sourcePoint" />
            <mxPoint x="670" y="690" as="targetPoint" />
            <Array as="points">
              <mxPoint x="880" y="740" />
              <mxPoint x="440" y="740" />
            </Array>
            <mxPoint as="offset" />
          </mxGeometry>
        </mxCell>
        <mxCell id="caqeOcLrMtZHwTMlGjk9-104" value="Extends" style="endArrow=block;endSize=16;endFill=0;html=1;" parent="caqeOcLrMtZHwTMlGjk9-1" source="caqeOcLrMtZHwTMlGjk9-56" target="caqeOcLrMtZHwTMlGjk9-9" edge="1">
          <mxGeometry width="160" relative="1" as="geometry">
            <mxPoint x="380" y="410" as="sourcePoint" />
            <mxPoint x="330" y="590" as="targetPoint" />
          </mxGeometry>
        </mxCell>
      </root>
    </mxGraphModel>
  </diagram>
  <diagram name="Copy of AToken UML - 002" id="qaFwx0K-u6ObgtaDrsX3">
    <mxGraphModel dx="7366" dy="4416" grid="1" gridSize="10" guides="1" tooltips="1" connect="1" arrows="1" fold="1" page="1" pageScale="1" pageWidth="850" pageHeight="1100" math="0" shadow="0">
      <root>
        <mxCell id="aAFmE5aKVcaDAauuk0Ud-0" />
        <mxCell id="aAFmE5aKVcaDAauuk0Ud-1" parent="aAFmE5aKVcaDAauuk0Ud-0" />
        <mxCell id="aAFmE5aKVcaDAauuk0Ud-2" value="TInteger" style="swimlane;fontStyle=1;align=center;verticalAlign=top;childLayout=stackLayout;horizontal=1;startSize=26;horizontalStack=0;resizeParent=1;resizeParentMax=0;resizeLast=0;collapsible=1;marginBottom=0;" vertex="1" parent="aAFmE5aKVcaDAauuk0Ud-1">
          <mxGeometry x="1400" y="758" width="160" height="100" as="geometry">
            <mxRectangle x="40" y="360" width="80" height="26" as="alternateBounds" />
          </mxGeometry>
        </mxCell>
        <mxCell id="aAFmE5aKVcaDAauuk0Ud-3" value="- intValue: int" style="text;strokeColor=none;fillColor=none;align=left;verticalAlign=top;spacingLeft=4;spacingRight=4;overflow=hidden;rotatable=0;points=[[0,0.5],[1,0.5]];portConstraint=eastwest;" vertex="1" parent="aAFmE5aKVcaDAauuk0Ud-2">
          <mxGeometry y="26" width="160" height="26" as="geometry" />
        </mxCell>
        <mxCell id="aAFmE5aKVcaDAauuk0Ud-4" value="" style="line;strokeWidth=1;fillColor=none;align=left;verticalAlign=middle;spacingTop=-1;spacingLeft=3;spacingRight=3;rotatable=0;labelPosition=right;points=[];portConstraint=eastwest;" vertex="1" parent="aAFmE5aKVcaDAauuk0Ud-2">
          <mxGeometry y="52" width="160" height="8" as="geometry" />
        </mxCell>
        <mxCell id="aAFmE5aKVcaDAauuk0Ud-5" value="+ TInteger(i: int)" style="text;strokeColor=none;fillColor=none;align=left;verticalAlign=top;spacingLeft=4;spacingRight=4;overflow=hidden;rotatable=0;points=[[0,0.5],[1,0.5]];portConstraint=eastwest;" vertex="1" parent="aAFmE5aKVcaDAauuk0Ud-2">
          <mxGeometry y="60" width="160" height="40" as="geometry" />
        </mxCell>
        <mxCell id="aAFmE5aKVcaDAauuk0Ud-6" value="&lt;&lt;abstract&gt;&gt;&#xa;AToken" style="swimlane;fontStyle=1;align=center;verticalAlign=top;childLayout=stackLayout;horizontal=1;startSize=40;horizontalStack=0;resizeParent=1;resizeParentMax=0;resizeLast=0;collapsible=1;marginBottom=0;" vertex="1" parent="aAFmE5aKVcaDAauuk0Ud-1">
          <mxGeometry x="440" y="300" width="160" height="114" as="geometry">
            <mxRectangle x="360" y="40" width="110" height="30" as="alternateBounds" />
          </mxGeometry>
        </mxCell>
        <mxCell id="aAFmE5aKVcaDAauuk0Ud-7" value="  " style="text;strokeColor=none;fillColor=none;align=left;verticalAlign=top;spacingLeft=4;spacingRight=4;overflow=hidden;rotatable=0;points=[[0,0.5],[1,0.5]];portConstraint=eastwest;" vertex="1" parent="aAFmE5aKVcaDAauuk0Ud-6">
          <mxGeometry y="40" width="160" height="26" as="geometry" />
        </mxCell>
        <mxCell id="aAFmE5aKVcaDAauuk0Ud-8" value="" style="line;strokeWidth=1;fillColor=none;align=left;verticalAlign=middle;spacingTop=-1;spacingLeft=3;spacingRight=3;rotatable=0;labelPosition=right;points=[];portConstraint=eastwest;" vertex="1" parent="aAFmE5aKVcaDAauuk0Ud-6">
          <mxGeometry y="66" width="160" height="8" as="geometry" />
        </mxCell>
        <mxCell id="aAFmE5aKVcaDAauuk0Ud-9" value="+ getDescribtion()" style="text;strokeColor=none;fillColor=none;align=left;verticalAlign=top;spacingLeft=4;spacingRight=4;overflow=hidden;rotatable=0;points=[[0,0.5],[1,0.5]];portConstraint=eastwest;" vertex="1" parent="aAFmE5aKVcaDAauuk0Ud-6">
          <mxGeometry y="74" width="160" height="40" as="geometry" />
        </mxCell>
        <mxCell id="aAFmE5aKVcaDAauuk0Ud-10" value="Extends" style="endArrow=block;endSize=16;endFill=0;html=1;exitX=0.5;exitY=0;exitDx=0;exitDy=0;" edge="1" parent="aAFmE5aKVcaDAauuk0Ud-1" source="aAFmE5aKVcaDAauuk0Ud-2" target="aAFmE5aKVcaDAauuk0Ud-9">
          <mxGeometry x="-0.862" width="160" relative="1" as="geometry">
            <mxPoint x="530" y="760" as="sourcePoint" />
            <mxPoint x="523" y="410" as="targetPoint" />
            <Array as="points">
              <mxPoint x="1480" y="480" />
              <mxPoint x="520" y="480" />
            </Array>
            <mxPoint as="offset" />
          </mxGeometry>
        </mxCell>
        <mxCell id="aAFmE5aKVcaDAauuk0Ud-11" value="TEmpty" style="swimlane;fontStyle=1;align=center;verticalAlign=top;childLayout=stackLayout;horizontal=1;startSize=26;horizontalStack=0;resizeParent=1;resizeParentMax=0;resizeLast=0;collapsible=1;marginBottom=0;" vertex="1" parent="aAFmE5aKVcaDAauuk0Ud-1">
          <mxGeometry x="-1520" y="589" width="160" height="100" as="geometry">
            <mxRectangle x="40" y="360" width="80" height="26" as="alternateBounds" />
          </mxGeometry>
        </mxCell>
        <mxCell id="aAFmE5aKVcaDAauuk0Ud-12" value=" " style="text;strokeColor=none;fillColor=none;align=left;verticalAlign=top;spacingLeft=4;spacingRight=4;overflow=hidden;rotatable=0;points=[[0,0.5],[1,0.5]];portConstraint=eastwest;" vertex="1" parent="aAFmE5aKVcaDAauuk0Ud-11">
          <mxGeometry y="26" width="160" height="26" as="geometry" />
        </mxCell>
        <mxCell id="aAFmE5aKVcaDAauuk0Ud-13" value="" style="line;strokeWidth=1;fillColor=none;align=left;verticalAlign=middle;spacingTop=-1;spacingLeft=3;spacingRight=3;rotatable=0;labelPosition=right;points=[];portConstraint=eastwest;" vertex="1" parent="aAFmE5aKVcaDAauuk0Ud-11">
          <mxGeometry y="52" width="160" height="8" as="geometry" />
        </mxCell>
        <mxCell id="aAFmE5aKVcaDAauuk0Ud-14" value="  " style="text;strokeColor=none;fillColor=none;align=left;verticalAlign=top;spacingLeft=4;spacingRight=4;overflow=hidden;rotatable=0;points=[[0,0.5],[1,0.5]];portConstraint=eastwest;" vertex="1" parent="aAFmE5aKVcaDAauuk0Ud-11">
          <mxGeometry y="60" width="160" height="40" as="geometry" />
        </mxCell>
        <mxCell id="aAFmE5aKVcaDAauuk0Ud-15" value="Extends" style="endArrow=block;endSize=16;endFill=0;html=1;exitX=0.5;exitY=0;exitDx=0;exitDy=0;" edge="1" parent="aAFmE5aKVcaDAauuk0Ud-1" source="aAFmE5aKVcaDAauuk0Ud-11" target="aAFmE5aKVcaDAauuk0Ud-9">
          <mxGeometry x="-0.9096" width="160" relative="1" as="geometry">
            <mxPoint x="600" y="640" as="sourcePoint" />
            <mxPoint x="720" y="406" as="targetPoint" />
            <Array as="points">
              <mxPoint x="-1440" y="480" />
              <mxPoint x="520" y="480" />
            </Array>
            <mxPoint as="offset" />
          </mxGeometry>
        </mxCell>
        <mxCell id="aAFmE5aKVcaDAauuk0Ud-16" value="TInvalid" style="swimlane;fontStyle=1;align=center;verticalAlign=top;childLayout=stackLayout;horizontal=1;startSize=26;horizontalStack=0;resizeParent=1;resizeParentMax=0;resizeLast=0;collapsible=1;marginBottom=0;" vertex="1" parent="aAFmE5aKVcaDAauuk0Ud-1">
          <mxGeometry x="1110" y="758" width="160" height="122" as="geometry">
            <mxRectangle x="40" y="360" width="80" height="26" as="alternateBounds" />
          </mxGeometry>
        </mxCell>
        <mxCell id="aAFmE5aKVcaDAauuk0Ud-17" value="- errorMessage: string" style="text;strokeColor=none;fillColor=none;align=left;verticalAlign=top;spacingLeft=4;spacingRight=4;overflow=hidden;rotatable=0;points=[[0,0.5],[1,0.5]];portConstraint=eastwest;" vertex="1" parent="aAFmE5aKVcaDAauuk0Ud-16">
          <mxGeometry y="26" width="160" height="26" as="geometry" />
        </mxCell>
        <mxCell id="aAFmE5aKVcaDAauuk0Ud-18" value="" style="line;strokeWidth=1;fillColor=none;align=left;verticalAlign=middle;spacingTop=-1;spacingLeft=3;spacingRight=3;rotatable=0;labelPosition=right;points=[];portConstraint=eastwest;" vertex="1" parent="aAFmE5aKVcaDAauuk0Ud-16">
          <mxGeometry y="52" width="160" height="10" as="geometry" />
        </mxCell>
        <mxCell id="aAFmE5aKVcaDAauuk0Ud-19" value="+ TInvalid(errmsg: String)" style="text;strokeColor=none;fillColor=none;align=left;verticalAlign=top;spacingLeft=4;spacingRight=4;overflow=hidden;rotatable=0;points=[[0,0.5],[1,0.5]];portConstraint=eastwest;" vertex="1" parent="aAFmE5aKVcaDAauuk0Ud-16">
          <mxGeometry y="62" width="160" height="60" as="geometry" />
        </mxCell>
        <mxCell id="aAFmE5aKVcaDAauuk0Ud-20" value="Extends" style="endArrow=block;endSize=16;endFill=0;html=1;exitX=0.5;exitY=0;exitDx=0;exitDy=0;" edge="1" parent="aAFmE5aKVcaDAauuk0Ud-1" source="aAFmE5aKVcaDAauuk0Ud-16" target="aAFmE5aKVcaDAauuk0Ud-9">
          <mxGeometry x="-0.8496" width="160" relative="1" as="geometry">
            <mxPoint x="860" y="634" as="sourcePoint" />
            <mxPoint x="780" y="400" as="targetPoint" />
            <Array as="points">
              <mxPoint x="1190" y="480" />
              <mxPoint x="520" y="480" />
            </Array>
            <mxPoint as="offset" />
          </mxGeometry>
        </mxCell>
        <mxCell id="aAFmE5aKVcaDAauuk0Ud-21" value="THex" style="swimlane;fontStyle=1;align=center;verticalAlign=top;childLayout=stackLayout;horizontal=1;startSize=26;horizontalStack=0;resizeParent=1;resizeParentMax=0;resizeLast=0;collapsible=1;marginBottom=0;" vertex="1" parent="aAFmE5aKVcaDAauuk0Ud-1">
          <mxGeometry x="-1280" y="758" width="160" height="140" as="geometry" />
        </mxCell>
        <mxCell id="aAFmE5aKVcaDAauuk0Ud-22" value="- hexValue: int&#xa;- hexCode: String&#xa;&#xa;" style="text;strokeColor=none;fillColor=none;align=left;verticalAlign=top;spacingLeft=4;spacingRight=4;overflow=hidden;rotatable=0;points=[[0,0.5],[1,0.5]];portConstraint=eastwest;" vertex="1" parent="aAFmE5aKVcaDAauuk0Ud-21">
          <mxGeometry y="26" width="160" height="34" as="geometry" />
        </mxCell>
        <mxCell id="aAFmE5aKVcaDAauuk0Ud-23" value="" style="line;strokeWidth=1;fillColor=none;align=left;verticalAlign=middle;spacingTop=-1;spacingLeft=3;spacingRight=3;rotatable=0;labelPosition=right;points=[];portConstraint=eastwest;" vertex="1" parent="aAFmE5aKVcaDAauuk0Ud-21">
          <mxGeometry y="60" width="160" height="8" as="geometry" />
        </mxCell>
        <mxCell id="aAFmE5aKVcaDAauuk0Ud-24" value="+ THex(i :int)&#xa;+ THex(h: String)" style="text;strokeColor=none;fillColor=none;align=left;verticalAlign=top;spacingLeft=4;spacingRight=4;overflow=hidden;rotatable=0;points=[[0,0.5],[1,0.5]];portConstraint=eastwest;" vertex="1" parent="aAFmE5aKVcaDAauuk0Ud-21">
          <mxGeometry y="68" width="160" height="72" as="geometry" />
        </mxCell>
        <mxCell id="aAFmE5aKVcaDAauuk0Ud-25" value="Extends" style="endArrow=block;endSize=16;endFill=0;html=1;" edge="1" parent="aAFmE5aKVcaDAauuk0Ud-1" source="aAFmE5aKVcaDAauuk0Ud-21" target="aAFmE5aKVcaDAauuk0Ud-9">
          <mxGeometry x="-0.9053" width="160" relative="1" as="geometry">
            <mxPoint x="160" y="640" as="sourcePoint" />
            <mxPoint x="260" y="406" as="targetPoint" />
            <Array as="points">
              <mxPoint x="-1200" y="480" />
              <mxPoint x="520" y="480" />
            </Array>
            <mxPoint as="offset" />
          </mxGeometry>
        </mxCell>
        <mxCell id="aAFmE5aKVcaDAauuk0Ud-30" value="TIdent" style="swimlane;fontStyle=1;align=center;verticalAlign=top;childLayout=stackLayout;horizontal=1;startSize=26;horizontalStack=0;resizeParent=1;resizeParentMax=0;resizeLast=0;collapsible=1;marginBottom=0;" vertex="1" parent="aAFmE5aKVcaDAauuk0Ud-1">
          <mxGeometry x="400" y="760" width="240" height="100" as="geometry">
            <mxRectangle x="40" y="360" width="80" height="26" as="alternateBounds" />
          </mxGeometry>
        </mxCell>
        <mxCell id="aAFmE5aKVcaDAauuk0Ud-31" value="- indentifier: String" style="text;strokeColor=none;fillColor=none;align=left;verticalAlign=top;spacingLeft=4;spacingRight=4;overflow=hidden;rotatable=0;points=[[0,0.5],[1,0.5]];portConstraint=eastwest;" vertex="1" parent="aAFmE5aKVcaDAauuk0Ud-30">
          <mxGeometry y="26" width="240" height="26" as="geometry" />
        </mxCell>
        <mxCell id="aAFmE5aKVcaDAauuk0Ud-32" value="" style="line;strokeWidth=1;fillColor=none;align=left;verticalAlign=middle;spacingTop=-1;spacingLeft=3;spacingRight=3;rotatable=0;labelPosition=right;points=[];portConstraint=eastwest;" vertex="1" parent="aAFmE5aKVcaDAauuk0Ud-30">
          <mxGeometry y="52" width="240" height="8" as="geometry" />
        </mxCell>
        <mxCell id="aAFmE5aKVcaDAauuk0Ud-33" value="+ TIdent(ident: String)&#xa;" style="text;strokeColor=none;fillColor=none;align=left;verticalAlign=top;spacingLeft=4;spacingRight=4;overflow=hidden;rotatable=0;points=[[0,0.5],[1,0.5]];portConstraint=eastwest;" vertex="1" parent="aAFmE5aKVcaDAauuk0Ud-30">
          <mxGeometry y="60" width="240" height="40" as="geometry" />
        </mxCell>
        <mxCell id="aAFmE5aKVcaDAauuk0Ud-34" value="TSymbol" style="swimlane;fontStyle=1;align=center;verticalAlign=top;childLayout=stackLayout;horizontal=1;startSize=26;horizontalStack=0;resizeParent=1;resizeParentMax=0;resizeLast=0;collapsible=1;marginBottom=0;" vertex="1" parent="aAFmE5aKVcaDAauuk0Ud-1">
          <mxGeometry x="880" y="760" width="160" height="120" as="geometry">
            <mxRectangle x="40" y="360" width="80" height="26" as="alternateBounds" />
          </mxGeometry>
        </mxCell>
        <mxCell id="aAFmE5aKVcaDAauuk0Ud-35" value="- symbol: String" style="text;strokeColor=none;fillColor=none;align=left;verticalAlign=top;spacingLeft=4;spacingRight=4;overflow=hidden;rotatable=0;points=[[0,0.5],[1,0.5]];portConstraint=eastwest;" vertex="1" parent="aAFmE5aKVcaDAauuk0Ud-34">
          <mxGeometry y="26" width="160" height="26" as="geometry" />
        </mxCell>
        <mxCell id="aAFmE5aKVcaDAauuk0Ud-36" value="" style="line;strokeWidth=1;fillColor=none;align=left;verticalAlign=middle;spacingTop=-1;spacingLeft=3;spacingRight=3;rotatable=0;labelPosition=right;points=[];portConstraint=eastwest;" vertex="1" parent="aAFmE5aKVcaDAauuk0Ud-34">
          <mxGeometry y="52" width="160" height="8" as="geometry" />
        </mxCell>
        <mxCell id="aAFmE5aKVcaDAauuk0Ud-37" value="+ TSymbol(symbol: String)&#xa;" style="text;strokeColor=none;fillColor=none;align=left;verticalAlign=top;spacingLeft=4;spacingRight=4;overflow=hidden;rotatable=0;points=[[0,0.5],[1,0.5]];portConstraint=eastwest;" vertex="1" parent="aAFmE5aKVcaDAauuk0Ud-34">
          <mxGeometry y="60" width="160" height="60" as="geometry" />
        </mxCell>
        <mxCell id="aAFmE5aKVcaDAauuk0Ud-38" value="TStringLiteral" style="swimlane;fontStyle=1;align=center;verticalAlign=top;childLayout=stackLayout;horizontal=1;startSize=26;horizontalStack=0;resizeParent=1;resizeParentMax=0;resizeLast=0;collapsible=1;marginBottom=0;" vertex="1" parent="aAFmE5aKVcaDAauuk0Ud-1">
          <mxGeometry x="680" y="760" width="160" height="120" as="geometry">
            <mxRectangle x="40" y="360" width="80" height="26" as="alternateBounds" />
          </mxGeometry>
        </mxCell>
        <mxCell id="aAFmE5aKVcaDAauuk0Ud-39" value="- stringLiteral: String" style="text;strokeColor=none;fillColor=none;align=left;verticalAlign=top;spacingLeft=4;spacingRight=4;overflow=hidden;rotatable=0;points=[[0,0.5],[1,0.5]];portConstraint=eastwest;" vertex="1" parent="aAFmE5aKVcaDAauuk0Ud-38">
          <mxGeometry y="26" width="160" height="26" as="geometry" />
        </mxCell>
        <mxCell id="aAFmE5aKVcaDAauuk0Ud-40" value="" style="line;strokeWidth=1;fillColor=none;align=left;verticalAlign=middle;spacingTop=-1;spacingLeft=3;spacingRight=3;rotatable=0;labelPosition=right;points=[];portConstraint=eastwest;" vertex="1" parent="aAFmE5aKVcaDAauuk0Ud-38">
          <mxGeometry y="52" width="160" height="8" as="geometry" />
        </mxCell>
        <mxCell id="aAFmE5aKVcaDAauuk0Ud-41" value="+ TStringLiteral(str: String)&#xa;" style="text;strokeColor=none;fillColor=none;align=left;verticalAlign=top;spacingLeft=4;spacingRight=4;overflow=hidden;rotatable=0;points=[[0,0.5],[1,0.5]];portConstraint=eastwest;" vertex="1" parent="aAFmE5aKVcaDAauuk0Ud-38">
          <mxGeometry y="60" width="160" height="60" as="geometry" />
        </mxCell>
        <mxCell id="aAFmE5aKVcaDAauuk0Ud-42" value="TAddress" style="swimlane;fontStyle=1;align=center;verticalAlign=top;childLayout=stackLayout;horizontal=1;startSize=26;horizontalStack=0;resizeParent=1;resizeParentMax=0;resizeLast=0;collapsible=1;marginBottom=0;" vertex="1" parent="aAFmE5aKVcaDAauuk0Ud-1">
          <mxGeometry x="-160" y="760" width="280" height="100" as="geometry">
            <mxRectangle x="40" y="360" width="80" height="26" as="alternateBounds" />
          </mxGeometry>
        </mxCell>
        <mxCell id="aAFmE5aKVcaDAauuk0Ud-43" value="- address: String" style="text;strokeColor=none;fillColor=none;align=left;verticalAlign=top;spacingLeft=4;spacingRight=4;overflow=hidden;rotatable=0;points=[[0,0.5],[1,0.5]];portConstraint=eastwest;" vertex="1" parent="aAFmE5aKVcaDAauuk0Ud-42">
          <mxGeometry y="26" width="280" height="26" as="geometry" />
        </mxCell>
        <mxCell id="aAFmE5aKVcaDAauuk0Ud-44" value="" style="line;strokeWidth=1;fillColor=none;align=left;verticalAlign=middle;spacingTop=-1;spacingLeft=3;spacingRight=3;rotatable=0;labelPosition=right;points=[];portConstraint=eastwest;" vertex="1" parent="aAFmE5aKVcaDAauuk0Ud-42">
          <mxGeometry y="52" width="280" height="8" as="geometry" />
        </mxCell>
        <mxCell id="aAFmE5aKVcaDAauuk0Ud-45" value="+ TAddress(addrss: String)" style="text;strokeColor=none;fillColor=none;align=left;verticalAlign=top;spacingLeft=4;spacingRight=4;overflow=hidden;rotatable=0;points=[[0,0.5],[1,0.5]];portConstraint=eastwest;" vertex="1" parent="aAFmE5aKVcaDAauuk0Ud-42">
          <mxGeometry y="60" width="280" height="40" as="geometry" />
        </mxCell>
        <mxCell id="aAFmE5aKVcaDAauuk0Ud-46" value="TComment" style="swimlane;fontStyle=1;align=center;verticalAlign=top;childLayout=stackLayout;horizontal=1;startSize=26;horizontalStack=0;resizeParent=1;resizeParentMax=0;resizeLast=0;collapsible=1;marginBottom=0;" vertex="1" parent="aAFmE5aKVcaDAauuk0Ud-1">
          <mxGeometry x="160" y="760" width="200" height="120" as="geometry">
            <mxRectangle x="40" y="360" width="80" height="26" as="alternateBounds" />
          </mxGeometry>
        </mxCell>
        <mxCell id="aAFmE5aKVcaDAauuk0Ud-47" value="- comment: String " style="text;strokeColor=none;fillColor=none;align=left;verticalAlign=top;spacingLeft=4;spacingRight=4;overflow=hidden;rotatable=0;points=[[0,0.5],[1,0.5]];portConstraint=eastwest;" vertex="1" parent="aAFmE5aKVcaDAauuk0Ud-46">
          <mxGeometry y="26" width="200" height="26" as="geometry" />
        </mxCell>
        <mxCell id="aAFmE5aKVcaDAauuk0Ud-48" value="" style="line;strokeWidth=1;fillColor=none;align=left;verticalAlign=middle;spacingTop=-1;spacingLeft=3;spacingRight=3;rotatable=0;labelPosition=right;points=[];portConstraint=eastwest;" vertex="1" parent="aAFmE5aKVcaDAauuk0Ud-46">
          <mxGeometry y="52" width="200" height="8" as="geometry" />
        </mxCell>
        <mxCell id="aAFmE5aKVcaDAauuk0Ud-49" value="+ TComment(cmnt: String)&#xa;" style="text;strokeColor=none;fillColor=none;align=left;verticalAlign=top;spacingLeft=4;spacingRight=4;overflow=hidden;rotatable=0;points=[[0,0.5],[1,0.5]];portConstraint=eastwest;" vertex="1" parent="aAFmE5aKVcaDAauuk0Ud-46">
          <mxGeometry y="60" width="200" height="60" as="geometry" />
        </mxCell>
        <mxCell id="aAFmE5aKVcaDAauuk0Ud-50" value="Extends" style="endArrow=block;endSize=16;endFill=0;html=1;" edge="1" parent="aAFmE5aKVcaDAauuk0Ud-1" source="aAFmE5aKVcaDAauuk0Ud-42" target="aAFmE5aKVcaDAauuk0Ud-9">
          <mxGeometry x="-0.801" width="160" relative="1" as="geometry">
            <mxPoint x="-60" y="1170" as="sourcePoint" />
            <mxPoint x="563.181818181818" y="830" as="targetPoint" />
            <Array as="points">
              <mxPoint x="-23" y="480" />
              <mxPoint x="520" y="480" />
            </Array>
            <mxPoint as="offset" />
          </mxGeometry>
        </mxCell>
        <mxCell id="aAFmE5aKVcaDAauuk0Ud-51" value="Extends" style="endArrow=block;endSize=16;endFill=0;html=1;" edge="1" parent="aAFmE5aKVcaDAauuk0Ud-1" source="aAFmE5aKVcaDAauuk0Ud-46" target="aAFmE5aKVcaDAauuk0Ud-9">
          <mxGeometry x="-0.7351" y="-1" width="160" relative="1" as="geometry">
            <mxPoint x="-50" y="1180" as="sourcePoint" />
            <mxPoint x="563.181818181818" y="830" as="targetPoint" />
            <Array as="points">
              <mxPoint x="262" y="480" />
              <mxPoint x="520" y="480" />
            </Array>
            <mxPoint as="offset" />
          </mxGeometry>
        </mxCell>
        <mxCell id="aAFmE5aKVcaDAauuk0Ud-52" value="Extends" style="endArrow=block;endSize=16;endFill=0;html=1;exitX=0.5;exitY=0;exitDx=0;exitDy=0;" edge="1" parent="aAFmE5aKVcaDAauuk0Ud-1" source="aAFmE5aKVcaDAauuk0Ud-30" target="aAFmE5aKVcaDAauuk0Ud-9">
          <mxGeometry x="-0.801" width="160" relative="1" as="geometry">
            <mxPoint x="250" y="1190" as="sourcePoint" />
            <mxPoint x="563.318181818182" y="830" as="targetPoint" />
            <Array as="points" />
            <mxPoint as="offset" />
          </mxGeometry>
        </mxCell>
        <mxCell id="aAFmE5aKVcaDAauuk0Ud-53" value="Extends" style="endArrow=block;endSize=16;endFill=0;html=1;" edge="1" parent="aAFmE5aKVcaDAauuk0Ud-1" source="aAFmE5aKVcaDAauuk0Ud-38" target="aAFmE5aKVcaDAauuk0Ud-9">
          <mxGeometry x="-0.801" width="160" relative="1" as="geometry">
            <mxPoint x="821.1904761904761" y="1190" as="sourcePoint" />
            <mxPoint x="563.181818181818" y="830" as="targetPoint" />
            <Array as="points">
              <mxPoint x="760" y="480" />
              <mxPoint x="520" y="480" />
            </Array>
            <mxPoint as="offset" />
          </mxGeometry>
        </mxCell>
        <mxCell id="aAFmE5aKVcaDAauuk0Ud-54" value="Extends" style="endArrow=block;endSize=16;endFill=0;html=1;" edge="1" parent="aAFmE5aKVcaDAauuk0Ud-1" source="aAFmE5aKVcaDAauuk0Ud-34" target="aAFmE5aKVcaDAauuk0Ud-9">
          <mxGeometry x="-0.801" width="160" relative="1" as="geometry">
            <mxPoint x="1290" y="1180" as="sourcePoint" />
            <mxPoint x="563.181818181818" y="830" as="targetPoint" />
            <Array as="points">
              <mxPoint x="960" y="480" />
              <mxPoint x="520" y="480" />
            </Array>
            <mxPoint as="offset" />
          </mxGeometry>
        </mxCell>
        <mxCell id="aAFmE5aKVcaDAauuk0Ud-56" value="&lt;p style=&quot;margin: 0px ; margin-top: 4px ; text-align: center&quot;&gt;&lt;i&gt;&amp;lt;&amp;lt;Interface&amp;gt;&amp;gt;&lt;/i&gt;&lt;br&gt;&lt;b&gt;StrToken&lt;/b&gt;&lt;/p&gt;&lt;hr size=&quot;1&quot;&gt;&lt;p style=&quot;margin: 0px ; margin-left: 4px&quot;&gt;&amp;nbsp;&lt;/p&gt;&lt;hr size=&quot;1&quot;&gt;&lt;p style=&quot;margin: 0px ; margin-left: 4px&quot;&gt;+ getStringValue(): String&lt;/p&gt;" style="verticalAlign=top;align=left;overflow=fill;fontSize=12;fontFamily=Helvetica;html=1;" vertex="1" parent="aAFmE5aKVcaDAauuk0Ud-1">
          <mxGeometry x="-2500" y="650" width="190" height="140" as="geometry" />
        </mxCell>
        <mxCell id="aAFmE5aKVcaDAauuk0Ud-58" value="" style="endArrow=block;dashed=1;endFill=0;endSize=12;html=1;" edge="1" parent="aAFmE5aKVcaDAauuk0Ud-1" source="aAFmE5aKVcaDAauuk0Ud-46" target="aAFmE5aKVcaDAauuk0Ud-56">
          <mxGeometry width="160" relative="1" as="geometry">
            <mxPoint x="280" y="880" as="sourcePoint" />
            <mxPoint x="380.6944444444448" y="1110" as="targetPoint" />
            <Array as="points">
              <mxPoint x="140" y="810" />
              <mxPoint x="140" y="720" />
            </Array>
          </mxGeometry>
        </mxCell>
        <mxCell id="aAFmE5aKVcaDAauuk0Ud-59" value="" style="endArrow=block;dashed=1;endFill=0;endSize=12;html=1;" edge="1" parent="aAFmE5aKVcaDAauuk0Ud-1" source="aAFmE5aKVcaDAauuk0Ud-30" target="aAFmE5aKVcaDAauuk0Ud-56">
          <mxGeometry width="160" relative="1" as="geometry">
            <mxPoint x="530" y="860" as="sourcePoint" />
            <mxPoint x="530" y="1170" as="targetPoint" />
            <Array as="points">
              <mxPoint x="380" y="810" />
              <mxPoint x="380" y="720" />
            </Array>
          </mxGeometry>
        </mxCell>
        <mxCell id="aAFmE5aKVcaDAauuk0Ud-60" value="" style="endArrow=block;dashed=1;endFill=0;endSize=12;html=1;" edge="1" parent="aAFmE5aKVcaDAauuk0Ud-1" source="aAFmE5aKVcaDAauuk0Ud-38" target="aAFmE5aKVcaDAauuk0Ud-56">
          <mxGeometry width="160" relative="1" as="geometry">
            <mxPoint x="540.0000000000005" y="870" as="sourcePoint" />
            <mxPoint x="550" y="1210" as="targetPoint" />
            <Array as="points">
              <mxPoint x="650" y="820" />
              <mxPoint x="650" y="720" />
            </Array>
          </mxGeometry>
        </mxCell>
        <mxCell id="aAFmE5aKVcaDAauuk0Ud-61" value="" style="endArrow=block;dashed=1;endFill=0;endSize=12;html=1;" edge="1" parent="aAFmE5aKVcaDAauuk0Ud-1" source="aAFmE5aKVcaDAauuk0Ud-34" target="aAFmE5aKVcaDAauuk0Ud-56">
          <mxGeometry width="160" relative="1" as="geometry">
            <mxPoint x="550.0000000000005" y="880" as="sourcePoint" />
            <mxPoint x="630" y="1070" as="targetPoint" />
            <Array as="points">
              <mxPoint x="860" y="820" />
              <mxPoint x="860" y="720" />
              <mxPoint x="130" y="720" />
              <mxPoint x="-210" y="720" />
            </Array>
          </mxGeometry>
        </mxCell>
        <mxCell id="aAFmE5aKVcaDAauuk0Ud-62" value="" style="endArrow=block;dashed=1;endFill=0;endSize=12;html=1;" edge="1" parent="aAFmE5aKVcaDAauuk0Ud-1" source="aAFmE5aKVcaDAauuk0Ud-42" target="aAFmE5aKVcaDAauuk0Ud-56">
          <mxGeometry width="160" relative="1" as="geometry">
            <mxPoint x="62.758620689655345" y="860" as="sourcePoint" />
            <mxPoint x="-530" y="720" as="targetPoint" />
            <Array as="points">
              <mxPoint x="-210" y="810" />
              <mxPoint x="-210" y="720" />
            </Array>
          </mxGeometry>
        </mxCell>
        <mxCell id="aAFmE5aKVcaDAauuk0Ud-65" value="" style="endArrow=block;dashed=1;endFill=0;endSize=12;html=1;" edge="1" parent="aAFmE5aKVcaDAauuk0Ud-1" source="aAFmE5aKVcaDAauuk0Ud-16" target="aAFmE5aKVcaDAauuk0Ud-56">
          <mxGeometry width="160" relative="1" as="geometry">
            <mxPoint x="890" y="830" as="sourcePoint" />
            <mxPoint x="-430" y="730" as="targetPoint" />
            <Array as="points">
              <mxPoint x="1080" y="820" />
              <mxPoint x="1080" y="720" />
              <mxPoint x="140" y="720" />
            </Array>
          </mxGeometry>
        </mxCell>
        <mxCell id="aAFmE5aKVcaDAauuk0Ud-67" value="&lt;p style=&quot;margin: 0px ; margin-top: 4px ; text-align: center&quot;&gt;&lt;i&gt;&amp;lt;&amp;lt;Interface&amp;gt;&amp;gt;&lt;/i&gt;&lt;br&gt;&lt;b&gt;IntToken&lt;/b&gt;&lt;/p&gt;&lt;hr size=&quot;1&quot;&gt;&lt;p style=&quot;margin: 0px ; margin-left: 4px&quot;&gt;&amp;nbsp;&lt;/p&gt;&lt;hr size=&quot;1&quot;&gt;&lt;p style=&quot;margin: 0px ; margin-left: 4px&quot;&gt;+ getIntValue(): int&lt;/p&gt;" style="verticalAlign=top;align=left;overflow=fill;fontSize=12;fontFamily=Helvetica;html=1;" vertex="1" parent="aAFmE5aKVcaDAauuk0Ud-1">
          <mxGeometry x="-2500" y="490" width="190" height="140" as="geometry" />
        </mxCell>
        <mxCell id="aAFmE5aKVcaDAauuk0Ud-68" value="" style="endArrow=block;dashed=1;endFill=0;endSize=12;html=1;exitX=0.75;exitY=0;exitDx=0;exitDy=0;" edge="1" parent="aAFmE5aKVcaDAauuk0Ud-1" source="aAFmE5aKVcaDAauuk0Ud-21" target="aAFmE5aKVcaDAauuk0Ud-67">
          <mxGeometry width="160" relative="1" as="geometry">
            <mxPoint x="-1160" y="920" as="sourcePoint" />
            <mxPoint x="-1160" y="1000" as="targetPoint" />
            <Array as="points" />
          </mxGeometry>
        </mxCell>
        <mxCell id="aAFmE5aKVcaDAauuk0Ud-69" value="" style="endArrow=block;dashed=1;endFill=0;endSize=12;html=1;" edge="1" parent="aAFmE5aKVcaDAauuk0Ud-1" source="aAFmE5aKVcaDAauuk0Ud-2" target="aAFmE5aKVcaDAauuk0Ud-67">
          <mxGeometry width="160" relative="1" as="geometry">
            <mxPoint x="-890" y="570" as="sourcePoint" />
            <mxPoint x="-986" y="870" as="targetPoint" />
            <Array as="points">
              <mxPoint x="1360" y="808" />
              <mxPoint x="1360" y="680" />
            </Array>
          </mxGeometry>
        </mxCell>
        <mxCell id="aAFmE5aKVcaDAauuk0Ud-70" value="" style="endArrow=block;dashed=1;endFill=0;endSize=12;html=1;" edge="1" parent="aAFmE5aKVcaDAauuk0Ud-1" source="aAFmE5aKVcaDAauuk0Ud-21" target="aAFmE5aKVcaDAauuk0Ud-56">
          <mxGeometry width="160" relative="1" as="geometry">
            <mxPoint x="-1060" y="550" as="sourcePoint" />
            <mxPoint x="-986" y="870" as="targetPoint" />
            <Array as="points">
              <mxPoint x="-1360" y="828" />
              <mxPoint x="-1360" y="720" />
            </Array>
          </mxGeometry>
        </mxCell>
        <mxCell id="aAFmE5aKVcaDAauuk0Ud-72" value="" style="endArrow=block;dashed=1;endFill=0;endSize=12;html=1;" edge="1" parent="aAFmE5aKVcaDAauuk0Ud-1" source="aAFmE5aKVcaDAauuk0Ud-21" target="aAFmE5aKVcaDAauuk0Ud-67">
          <mxGeometry width="160" relative="1" as="geometry">
            <mxPoint x="-1360" y="890" as="sourcePoint" />
            <mxPoint x="-2310" y="575.1084337349398" as="targetPoint" />
            <Array as="points">
              <mxPoint x="-1360" y="828" />
              <mxPoint x="-1370" y="710" />
            </Array>
          </mxGeometry>
        </mxCell>
      </root>
    </mxGraphModel>
  </diagram>
</mxfile>
